<?xml version="1.0" encoding="utf-8"?>
<!-- Generator: Adobe Illustrator 16.0.0, SVG Export Plug-In . SVG Version: 6.00 Build 0)  -->
<!DOCTYPE svg PUBLIC "-//W3C//DTD SVG 1.1//EN" "http://www.w3.org/Graphics/SVG/1.1/DTD/svg11.dtd">
<svg version="1.1" id="圖層_1" xmlns="http://www.w3.org/2000/svg" xmlns:xlink="http://www.w3.org/1999/xlink" x="0px" y="0px"
	 width="601.196px" height="244.488px" viewBox="0 0 601.196 244.488" enable-background="new 0 0 601.196 244.488"
	 xml:space="preserve">
<g>
	<path fill-rule="evenodd" clip-rule="evenodd" fill="#FFFFFF" d="M592.727,80.719c-5.888,4.191-4.906,18.711-20.734,13.115
		c2.282,4.925,4.855,9.74,6.753,14.811c1.349,3.604,3.506,10.061,2.314,10.879c-3.627,2.482-8.661,3.615-13.226,3.881
		c-10.783,0.63-11.979-13.397-22.493-14.545c-17.309,22.794-35.094,46.216-52.88,69.641c-1.768-1.078-3.532-2.154-5.301-3.23
		c3.673-5.443,7.079-11.096,11.083-16.282c4.666-6.038,9.854-11.668,13.986-18.568c-13.835,10.022-31.868,9.392-44.7,24.264
		c-14.324,16.598-38.005,15.655-59.011,15.977c-2.548,0.043-6.545-6.701-7.543-10.854c-2.519-10.493-7.22-13.241-16.7-7.505
		c-8.8,5.321-17.641,5.359-27.648,1.86c-6.766-2.362-14.864-1.003-22.369-1.131c-6.392-0.106-12.814,0.433-19.175-0.011
		c-10.917-0.761-21.909-1.435-32.647-3.38c-6.557-1.187-12.535-5.262-19.045-7.044c-32.667-8.941-65.148-11.855-98.2-0.249
		c-33.777,11.86-61.189,31.604-83.032,59.745c-3.18,4.096-8.397,6.605-12.674,9.85c-1.34-1.438-2.68-2.875-4.021-4.313
		c10.373-12.391,19.724-25.871,31.393-36.896c14.006-13.234,30.438-23.869,44.922-36.649c7.073-6.239,11.628-15.258,18.294-22.068
		c2.757-2.818,10.806-5.43,11.794-4.247c12.513,14.976,27.931,7.659,42.332,7.72c0.32-1.535,0.64-3.073,0.96-4.606
		c-15.487-3.068-30.857-7.715-46.486-8.882c-34.038-2.534-68.324-2.059-102.284-5.218c-23.198-2.157-39.709-19.03-57.917-32.588
		c4.749-8.814,10.153-9.945,17.487-4.941c12.347,8.42,25.083,16.285,37.214,25c9.605,6.895,20.147,10.226,31.022,6.285
		c18.801-6.813,37.248-14.715,55.426-23.068c8.604-3.951,14.516-6.036,18.001,5.693c0.966,3.246,5.763,7.153,9.171,7.546
		c12.575,1.461,25.376,0.935,37.953,2.369c13.681,1.559,28.162,2.183,40.574,7.344c17.106,7.111,32.906,9.746,50.648,3.39
		c5.509-1.973,12.889-0.162,19.044,1.386c13.842,3.488,26.572,2.031,39.735-3.711c7.723-3.37,16.958-3.189,25.448-4.928
		c6.319-1.295,12.534-3.107,18.797-4.686c-0.321-1.357-0.645-2.714-0.97-4.072c-19.918,2.088-39.908,3.669-59.728,6.454
		c-11.774,1.653-15.939-3.801-17.085-14.048c-0.344-3.054-0.835-6.098-1.324-9.137c-3.306-20.423-1.304-22.677,18.807-24.798
		c41.048-4.332,82.054-9.049,123.067-13.702c1.63-0.187,3.15-1.344,4.719-2.049c1.763,0,3.522,0,5.285,0
		c8.758,12.747,20.648,9.661,33.06,4.82c0.758,9.014,1.389,16.481,2.059,24.452c9.754-4.559,18.435-7.54,25.924-12.37
		c11.152-7.199,20.232-2.75,28.803,3.741c7.707,5.839,16.872,11.924,8.164,24.362c5.38,1.061,9.168,1.806,12.955,2.551
		C592.727,78.958,592.727,79.837,592.727,80.719z"/>
</g>
</svg>
