<?xml version="1.0" encoding="utf-8"?>
<!-- Generator: Adobe Illustrator 16.0.0, SVG Export Plug-In . SVG Version: 6.00 Build 0)  -->
<!DOCTYPE svg PUBLIC "-//W3C//DTD SVG 1.1//EN" "http://www.w3.org/Graphics/SVG/1.1/DTD/svg11.dtd">
<svg version="1.1" id="圖層_1" xmlns="http://www.w3.org/2000/svg" xmlns:xlink="http://www.w3.org/1999/xlink" x="0px" y="0px"
	 width="601.196px" height="445.121px" viewBox="0 0 601.196 445.121" enable-background="new 0 0 601.196 445.121"
	 xml:space="preserve">
<g>
	<path fill-rule="evenodd" clip-rule="evenodd" fill="#FFFFFF" d="M542.937,413.161c5.042-7.525,2.966-12.9-5.388-16.104
		c-23.759-9.115-48.898-14.635-69.662-31.145c-24.68-19.627-38.381-44.223-39.64-75.652c-0.563-14.064-6.935-18.09-20.233-13.412
		c-3.328,1.172-9.35,0.477-11.51-1.822c-9.506-10.12-17.824-21.339-27.014-31.773c-7.846-8.908-16.293-17.287-24.49-25.918
		c2.19,0,5.248,0.077,8.301-0.012c23.117-0.671,29.84-6.948,37.076-28.571c10.472-31.283,21.378-62.518,34.265-92.852
		c6.134-14.437,18.268-25.436,34.478-30.376c26.963-8.218,53.878-16.446,82.427-16.952c2.63-0.048,5.241-1.193,7.862-1.829
		c0.004-1.309,0.008-2.618,0.011-3.926c-10.375,0-20.927-1.235-31.093,0.222c-36.508,5.229-72.889,11.339-109.309,17.178
		c-13.509,2.165-16.867,7.977-14.6,21.957c0.838,5.157,0.619,11.5-1.688,15.979c-10.405,20.201-21.901,39.838-32.613,59.887
		c-2.798,5.237-4.192,11.223-6.253,16.919c-17.857,2.84-25.625-12.937-37.82-20.102c-0.701-0.412,1.047-6.142,2.531-8.931
		c6.17-11.574,13.545-22.617,18.443-34.681c1.213-2.992-4.138-11.64-8.271-13.354c-43.752-18.147-87.885-35.382-131.878-52.949
		c-14.109-5.634-27.158-6.107-38.904,5.64c-1.949,1.948-6.388,2.115-9.53,1.772c-1.07-0.116-1.261-4.622-2.61-6.608
		c-3.004-4.42-5.807-11.107-9.919-12.184c-7.755-2.029-18.169-3.834-22.312,5.938c-1.617,3.818,2.647,10.264,4.607,15.369
		c0.492,1.285,2.426,2.016,5.091,4.084c-5.962,4.819-11.005,8.897-15.692,12.684c-6.748-8.402-12.027-16.792-19.063-23.276
		c-8.824-8.132-19.457-10.556-31.246-4.808C46.688,48.721,43.242,57.139,43.684,68.18c0.25,6.288,1.402,13.271-7.397,15.295
		c0,3.232,0,6.464,0,9.697c5.329,6.978,10.587,12.289,21.069,8.204c3.366-1.313,9.129,3.523,11.737,4.655
		c-3.521,6.474-8.326,11.342-7.772,15.496c0.477,3.566,7.248,8.997,10.926,8.761c4.814-0.308,9.363-5.32,13.953-8.415
		c3.238-2.184,7.682-7.114,9.262-6.301c3.527,1.816,6.309,6.133,8.096,10.027c2.469,5.379,3.219,11.546,5.664,16.939
		c2.974,6.565,7.881,11.272,0.455,19.472c-6.588,7.277-0.791,15.079,9.885,15.672c4.159,0.232,8.295,0.885,14.32,1.555
		c-0.881,7.519-0.35,15.429-2.881,22.192c-6.943,18.542-7.156,20.091,5.982,33.51c-0.777,7.11-7.831,16.141,5.6,19.062
		c6.421,1.396,10.605-0.17,12.498-7.465c1.978-7.622,5.535-14.824,8.113-22.307c0.748-2.166,1.162-4.845,0.606-6.998
		c-4.119-15.956-0.733-19.95,14.9-17.167c7.691-16.725,17.37-0.197,26.577-1.645c2.16-11.22,8.58-9.132,15.84-4.485
		c24.342,15.58,48.715,31.108,73.08,46.65c0.676,0.433,1.352,0.914,2.096,1.189c48.555,17.953,81.351,54.783,113.926,92.728
		c21.266,24.771,43.51,49.705,75.169,62.311c13.038,5.191,26.668,8.887,39.978,13.414c1.203,0.408,2.026,1.93,3.026,2.934
		C533.24,413.161,538.088,413.161,542.937,413.161z"/>
</g>
</svg>
