<?xml version="1.0" encoding="utf-8"?>
<!-- Generator: Adobe Illustrator 16.0.0, SVG Export Plug-In . SVG Version: 6.00 Build 0)  -->
<!DOCTYPE svg PUBLIC "-//W3C//DTD SVG 1.1//EN" "http://www.w3.org/Graphics/SVG/1.1/DTD/svg11.dtd">
<svg version="1.1" id="圖層_1" xmlns="http://www.w3.org/2000/svg" xmlns:xlink="http://www.w3.org/1999/xlink" x="0px" y="0px"
	 width="455.567px" height="94.44px" viewBox="0 0 455.567 94.44" enable-background="new 0 0 455.567 94.44" xml:space="preserve">
<path fill-rule="evenodd" clip-rule="evenodd" d="M0,42.176c3.254-0.855,6.477-2.275,9.771-2.47
	C27.005,38.684,44.308,38.521,61.492,37c16.624-1.471,33.165-4.033,49.687-6.484c13.404-1.987,26.651-5.241,40.104-6.646
	c22.325-2.333,44.743-4.74,67.153-5.078c26.485-0.399,52.975,1.343,79.122,6.671c12.613,2.571,25.525,3.651,38.228,5.832
	c6.22,1.068,10.758-0.801,15.122-5.112c8.039-7.942,16.342-15.628,24.759-23.171c5.199-4.659,9.012-3.856,12.627,2.029
	c5.213,8.486,2.532,18.019-6.313,22.6c-4.337,2.246-8.633,4.571-12.701,7.622c10.381,1.987,20.319,2.474,29.966-2.744
	c10.294-5.569,20.757-10.86,31.36-15.812c11.769-5.495,20.649-1.12,23.928,11.259c3.748,14.161-2.982,28.86-15.66,36.612
	c-7.389,4.517-13.592,0.095-20.182-1.01c-18.661-3.131-37.237-6.771-55.866-10.091c-1.606-0.286-3.368,0.307-6.908,0.692
	c12.11,7.91,8.133,17.757,5.774,26.941c-1.852,7.211-8.746,9.696-15.827,6.497c-11.936-5.395-21.454-13.902-29.5-24.006
	c-3.036-3.813-6.176-5.138-10.996-4.878c-20.827,1.123-41.674,1.848-62.513,2.764c-1.44,0.064-2.864,0.512-4.365,1.846
	c4.237,1.139,8.436,2.468,12.725,3.361c3.907,0.814,5.201,2.997,4.918,6.79c-0.302,4.062,0.104,8.204-0.503,12.204
	c-0.442,2.92-1.367,7.352-3.259,8.094c-2.83,1.108-8.08,0.859-9.885-1.072c-7.127-7.62-14.17-15.601-19.551-24.474
	c-3.758-6.195-7.289-8.908-14.705-9.025c-18.577-0.294-37.137-1.723-55.704-2.656c-2.413-0.122-4.836-0.017-8.35-0.017
	c2.976,3.17,5.342,5.421,7.389,7.933c3.644,4.462,2.993,12.037-1.14,15.411c-3.728,3.046-8.902,1.341-12.813-4.486
	c-2.381-3.55-5.626-7.091-6.396-11.042c-2.138-10.965-10.434-11.979-18.877-13.119c-22.119-2.987-44.217-3.275-66.538-1.502
	c-13.123,1.043-26.741,2.797-39.734-2.135c-2.031-0.772-3.979-1.763-5.966-2.654C0.069,44.021,0.034,43.099,0,42.176z"/>
</svg>
