<?xml version="1.0" encoding="utf-8"?>
<!-- Generator: Adobe Illustrator 16.0.0, SVG Export Plug-In . SVG Version: 6.00 Build 0)  -->
<!DOCTYPE svg PUBLIC "-//W3C//DTD SVG 1.1//EN" "http://www.w3.org/Graphics/SVG/1.1/DTD/svg11.dtd">
<svg version="1.1" id="圖層_1" xmlns="http://www.w3.org/2000/svg" xmlns:xlink="http://www.w3.org/1999/xlink" x="0px" y="0px"
	 width="300.734px" height="170.12px" viewBox="0 0 300.734 170.12" enable-background="new 0 0 300.734 170.12"
	 xml:space="preserve">
<path fill-rule="evenodd" clip-rule="evenodd" d="M94.938,0c-3.424,0-6.849,0-10.273,0c-0.873,0.121-1.74,0.27-2.617,0.359
	c-3.116,0.314-6.246,0.609-9.014,2.264c-6.688,4-9.882,10.232-9.873,17.71c0.018,12.654,5.281,23.158,15.177,30.978
	c8.178,6.461,17.766,8.998,28.183,8.196c2.849-0.219,4.428,1.252,3.999,4.096c-0.147,0.978-0.729,2.004-1.396,2.762
	c-0.963,1.1-2.142,2.023-3.295,2.938c-6.267,4.965-13.273,7.391-21.291,5.764c-6.364-1.292-11.799-3.808-15.22-10.014
	c-2.185-3.965-5.212-7.616-8.452-10.813c-4.857-4.796-10.002-4.927-15.73-1.144c-5.255,3.471-9.221,8.225-12.916,13.223
	c-1.122,1.52-2.122,3.129-3.18,4.698c1.121,0.065,1.959-0.165,2.781-0.442c4.336-1.46,7.191-4.776,10.182-7.982
	c1.47-1.578,3.145-3.046,4.949-4.216c2.666-1.728,5.277-1.483,7.647,0.643c1.519,1.364,2.935,2.931,4.062,4.63
	c3.748,5.648,7.241,11.48,13.5,15.682c-5.922,1.208-11.301,2.443-16.731,3.385c-10.207,1.768-20.086,0.906-29.394-4.076
	c-1.441-0.771-3.027-1.414-4.621-1.723c-4.915-0.951-9.842-1.896-14.809-2.494c-4.805-0.578-6.742,1.457-6.598,6.313
	c0.02,0.591,0.025,1.181,0.078,1.769c1.591,18.621,7.394,35.859,17.453,51.576c3.451,5.394,7.072,10.861,11.537,15.383
	c7.795,7.889,17.904,11.323,28.82,12.401c1.631,0.161,3.295,0.022,4.94,0.022c-0.994-0.92-2.006-1.652-3.134-2.094
	c-4.107-1.607-8.197-3.295-12.397-4.633c-11.513-3.666-18.89-11.35-22.083-22.869c-2.277-8.224-4.097-16.578-5.988-24.904
	c-0.727-3.193-1.09-6.469-1.617-9.711c2.609,0.656,4.976,1.42,7.4,1.828c6.379,1.074,12.744,0.396,18.99-0.902
	c11.784-2.447,22.51-0.246,32.167,6.85c1.998,1.47,3.791,3.396,5.209,5.438c1.845,2.66,1.502,5.579-0.687,7.974
	c-1.21,1.325-2.654,2.64-4.263,3.355c-3.747,1.672-7.607,3.152-11.528,4.357c-1.795,0.552-3.879,0.541-5.773,0.309
	c-3.044-0.375-5.713,0.285-8.253,1.887c-1.644,1.037-3.251,2.213-5.032,2.926c-1.73,0.691-2.183,1.817-2.059,3.418
	c0.266,3.408,1.185,6.657,3.142,9.453c0.738,1.057,2.062,2.008,3.301,2.357c5.485,1.551,11.133,2.285,16.806,1.514
	c6.24-0.848,12.473-1.876,18.637-3.183c3.77-0.8,7.465-2.101,11.063-3.509c1.75-0.684,3.304-0.982,5.1-0.509
	c10.254,2.709,20.519,5.37,30.775,8.067c6.43,1.693,12.752,3.896,19.589,3.431c1.021-0.069,2.396,0.756,3.13,1.589
	c2.546,2.883,5.502,5.174,8.93,6.845c2.807,1.368,5.688,2.58,8.532,3.87c2.399,1.089,4.89,1.955,6.808,3.971
	c0.679,0.711,2.035,1.162,3.045,1.104c3.156-0.182,6.296-0.674,9.443-1.025c2.089-0.234,4.184-0.42,6.27-0.666
	c0.556-0.064,1.152-0.168,1.633-0.432c1.818-1,3.498-2.34,5.416-3.054c2.58-0.96,5.325-1.485,8.014-2.147
	c2.248-0.555,2.949-2.025,1.84-4.068c-0.771-1.426-2.035-1.879-3.584-1.691c-3.85,0.465-7.105-0.817-9.799-3.502
	c-1.585-1.58-2.909-3.424-4.525-4.969c-2.461-2.353-4.908-4.781-7.674-6.736c-2.189-1.547-4.848-2.428-7.297-3.605
	c-0.098,0.176-0.197,0.352-0.295,0.527c5.716,6.616,13.511,11.205,18.608,18.69c-0.743,0.255-1.282,0.454-1.833,0.625
	c-4.283,1.325-8.468,0.542-12.479-0.96c-11.902-4.458-19.15-13.342-23.146-25.102c-2.301-6.77-2.496-13.647-0.326-20.521
	c1.205-3.815,4.021-5.613,7.904-4.591c1.855,0.489,3.848,1.464,5.164,2.816c6.941,7.122,14.942,12.818,23.39,17.938
	c9.522,5.771,18.925,11.805,29.714,15.076c8.683,2.634,17.33,5.395,26.085,7.76c4.581,1.238,9.334,2.242,14.052,2.47
	c6.75,0.327,13.541-0.181,20.314-0.277c4.268-0.061,8.189-0.936,11.201-4.255c0-0.119,0-0.236,0-0.354
	c-17.236,0.688-33.979-1.665-50.011-8.247c-15.984-6.563-29.515-16.584-41.119-29.382c1.448,0.134,2.819,0.417,4.113,0.905
	c3.064,1.153,6.139,2.296,9.122,3.637c9.204,4.138,18.629,4.078,28.201,1.674c14.209-3.573,27.188-10.246,40.461-16.164
	c2.715-1.209,4.674-0.396,5.043,2.587c0.109,0.888-0.002,1.966-0.43,2.723c-0.971,1.726-2.135,3.354-3.342,4.931
	c-1.068,1.391-2.285,2.664-2.309,4.713c4.807-2.168,8.389-5.346,10.27-10.236c0-1.181,0-2.361,0-3.541
	c-0.223-0.541-0.439-1.084-0.674-1.621c-1.646-3.789-4.432-5.326-8.51-4.643c-1.512,0.254-3.004,0.624-4.508,0.918
	c-14.098,2.746-28.352,4.031-42.684,4.587c-2.206,0.086-4.309-0.065-6.293-1.279c-4.424-2.704-8.876-5.365-13.398-7.897
	c-7.406-4.148-14.988-8.01-21.615-13.397c-3.849-3.128-7.592-6.366-9.926-10.909c-3.137-6.111-0.951-17.452,7.537-19.797
	c2.699-0.747,2.834-0.843,4.463,1.544c0.43,0.631,0.807,1.452,1.422,1.769c0.783,0.404,2.068,0.828,2.639,0.463
	c1.895-1.208,3.563-2.765,5.471-4.311c-0.469-0.34-0.615-0.442-0.758-0.55c-7.135-5.45-20.565-5.701-27.674-0.3
	c-3.077,2.337-5.957,4.981-8.686,7.725c-4.022,4.047-8.205,4.673-12.535,1.034c-3.732-3.138-7.098-6.711-10.595-10.064
	c0.995-2.552,1.657-5.047,2.896-7.214c1.316-2.304,1.492-4.496-0.078-6.414c-1.57-1.919-3.541-3.569-5.54-5.066
	c-2.505-1.877-5.632-1.346-8.517-1.794c-1.664-0.258-3.949-0.722-4.688-1.892c-1.719-2.728-4.168-4.238-6.747-5.783
	c-1.214-0.727-2.32-1.626-3.733-2.63c0.617-0.206,0.77-0.295,0.926-0.303c0.412-0.018,0.827-0.013,1.239,0.006
	c4.589,0.203,8.729,1.781,12.654,4.075c1.624,0.948,3.288,1.854,5.007,2.612c4.579,2.021,9.438,2.959,14.4,3.322
	c6.673,0.488,13.354,0.874,20.473,1.333c-0.74-0.536-1.119-0.861-1.545-1.111c-3.006-1.776-6.276-2.768-9.75-2.809
	c-8.313-0.097-15.912-2.575-22.918-6.876c-4.418-2.711-8.617-5.771-12.973-8.588c-6.395-4.138-12.828-3.64-18.525,1.324
	c-0.259,0.226-0.541,0.425-0.848,0.663c-3.865-2.803-7.996-4.931-12.562-6.062C100.734,1.018,97.82,0.566,94.938,0z"/>
</svg>
