<?xml version="1.0" encoding="utf-8"?>
<!-- Generator: Adobe Illustrator 16.0.0, SVG Export Plug-In . SVG Version: 6.00 Build 0)  -->
<!DOCTYPE svg PUBLIC "-//W3C//DTD SVG 1.1//EN" "http://www.w3.org/Graphics/SVG/1.1/DTD/svg11.dtd">
<svg version="1.1" id="圖層_1" xmlns="http://www.w3.org/2000/svg" xmlns:xlink="http://www.w3.org/1999/xlink" x="0px" y="0px"
	 width="304.41px" height="196.362px" viewBox="0 0 304.41 196.362" enable-background="new 0 0 304.41 196.362"
	 xml:space="preserve">
<g>
	<path fill-rule="evenodd" clip-rule="evenodd" d="M111.117,107.07c1.615,2.662,3.153,5.375,4.865,7.974
		c2.16,3.28,0.935,6.049-1.926,7.495c-1.708,0.863-5.271,0.855-6.338-0.298c-4.521-4.894-8.357-10.415-12.578-15.597
		c-1.791-2.199-3.553-5.098-5.955-5.994c-6.942-2.59-11.379-7.482-15.147-13.473c-3.425-5.443-7.101-10.73-10.77-16.014
		c-2.958-4.262-2.504-7.039,2.278-8.254c11.036-2.804,18.298-10.574,22.763-19.844c6.811-14.139,18.558-22.018,31.339-29.102
		C129.9,8.283,140.48,3.21,152.066,0.73c1.936-0.416,3.951-0.651,5.93-0.651c21.993,0.001,43.997-0.31,65.975,0.296
		c8.683,0.24,17.4,2.143,25.931,4.056c7.326,1.644,9.449,5.923,6.871,10.759c-4.627-2.469-9.027-5.56-13.913-7.225
		c-5.407-1.843-11.241-3.219-16.92-3.338c-20.319-0.426-40.665-0.671-60.971-0.02c-6.346,0.203-13.077,2.531-18.783,5.514
		c-10.409,5.439-11.807,16.807-3.784,25.369c3.018,3.22,6.515,6.01,9.916,8.848c11.789,9.836,14.997,25.33,1.705,37.568
		c1.722,0.658,3.119,1.445,4.605,1.688c1.444,0.233,2.989-0.01,4.474-0.187c10.986-1.31,13.152,0.104,9.09,13.056
		c-1.211,3.861-3.533,7.435-5.706,10.916c-2.388,3.828-3.929,3.729-6.61,0.225c-2.484-3.248-4.9-6.568-7.654-9.575
		c-0.92-1.006-2.79-1.143-4.226-1.677c-0.395,1.54-1.338,3.178-1.085,4.604c0.924,5.215,2.491,10.32,3.306,15.548
		c0.359,2.308,0.091,6.514-0.936,6.872c-2.29,0.799-5.672,0.492-7.835-0.731c-7.303-4.133-14.221-8.94-21.387-13.323
		c-2.593-1.585-5.475-2.696-8.225-4.023C111.596,105.887,111.356,106.478,111.117,107.07z"/>
	<path fill-rule="evenodd" clip-rule="evenodd" d="M218.307,96.654c0.948,1.563,1.851,3.154,2.855,4.68
		c1.268,1.926,0.548,3.55-1.131,4.399c-1.002,0.507-3.094,0.502-3.72-0.175c-2.653-2.872-4.905-6.113-7.382-9.154
		c-1.052-1.291-2.085-2.992-3.495-3.519c-4.075-1.52-6.679-4.392-8.891-7.907c-2.01-3.194-4.168-6.298-6.32-9.398
		c-1.736-2.501-1.47-4.131,1.337-4.845c6.478-1.646,10.739-6.206,13.359-11.646c3.997-8.298,10.892-12.923,18.394-17.08
		c6.018-3.335,12.227-6.312,19.026-7.768c1.137-0.244,2.319-0.382,3.48-0.382c12.908,0,25.823-0.182,38.722,0.174
		c5.096,0.141,10.213,1.257,15.22,2.38c4.3,0.965,5.546,3.477,4.032,6.314c-2.716-1.449-5.298-3.263-8.166-4.24
		c-3.173-1.081-6.598-1.89-9.93-1.959c-11.926-0.25-23.867-0.394-35.785-0.012c-3.725,0.119-7.676,1.485-11.024,3.236
		c-6.109,3.192-6.93,9.864-2.221,14.89c1.771,1.89,3.823,3.527,5.819,5.192c6.92,5.773,8.803,14.867,1.001,22.05
		c1.011,0.387,1.831,0.849,2.703,0.99c0.848,0.138,1.755-0.006,2.626-0.109c6.447-0.769,7.719,0.062,5.335,7.663
		c-0.711,2.266-2.074,4.363-3.35,6.406c-1.401,2.247-2.306,2.189-3.88,0.132c-1.458-1.906-2.876-3.854-4.492-5.619
		c-0.54-0.591-1.638-0.671-2.48-0.984c-0.23,0.903-0.785,1.865-0.637,2.701c0.543,3.062,1.463,6.058,1.94,9.126
		c0.211,1.354,0.054,3.823-0.549,4.033c-1.345,0.469-3.329,0.289-4.599-0.43c-4.286-2.425-8.347-5.247-12.553-7.819
		c-1.521-0.93-3.213-1.582-4.826-2.361C218.587,95.959,218.446,96.306,218.307,96.654z"/>
	<path fill-rule="evenodd" clip-rule="evenodd" d="M150.337,182.965c1.292,2.13,2.521,4.3,3.892,6.378
		c1.728,2.625,0.747,4.839-1.541,5.996c-1.366,0.691-4.217,0.685-5.07-0.238c-3.616-3.914-6.686-8.332-10.062-12.477
		c-1.434-1.76-2.842-4.078-4.764-4.796c-5.554-2.071-9.103-5.985-12.117-10.777c-2.739-4.354-5.681-8.583-8.614-12.81
		c-2.367-3.408-2.004-5.63,1.822-6.604c8.828-2.242,14.637-8.458,18.208-15.873c5.448-11.311,14.845-17.613,25.07-23.28
		c8.201-4.545,16.664-8.603,25.932-10.587c1.55-0.332,3.161-0.521,4.744-0.521c17.594,0,35.196-0.247,52.776,0.237
		c6.945,0.191,13.92,1.713,20.744,3.244c5.86,1.314,7.559,4.738,5.496,8.605c-3.702-1.975-7.221-4.446-11.13-5.779
		c-4.325-1.473-8.993-2.575-13.534-2.67c-16.255-0.341-32.53-0.536-48.774-0.016c-5.076,0.162-10.462,2.024-15.025,4.411
		c-8.327,4.351-9.445,13.444-3.027,20.294c2.413,2.575,5.211,4.808,7.932,7.077c9.432,7.869,11.998,20.264,1.364,30.054
		c1.378,0.526,2.496,1.156,3.685,1.35c1.155,0.188,2.392-0.009,3.579-0.149c8.787-1.048,10.521,0.084,7.271,10.444
		c-0.969,3.088-2.827,5.947-4.565,8.731c-1.91,3.063-3.143,2.984-5.288,0.18c-1.987-2.598-3.92-5.253-6.123-7.659
		c-0.736-0.805-2.232-0.914-3.381-1.341c-0.314,1.231-1.07,2.542-0.868,3.682c0.74,4.173,1.994,8.256,2.646,12.438
		c0.287,1.846,0.073,5.211-0.748,5.497c-1.833,0.639-4.538,0.394-6.269-0.586c-5.842-3.305-11.376-7.151-17.108-10.657
		c-2.074-1.268-4.379-2.156-6.578-3.219C150.719,182.019,150.526,182.492,150.337,182.965z"/>
	<path fill-rule="evenodd" clip-rule="evenodd" d="M29.172,131.577c0.948,1.563,1.851,3.154,2.855,4.68
		c1.268,1.926,0.548,3.55-1.131,4.399c-1.002,0.507-3.094,0.502-3.72-0.175c-2.653-2.872-4.905-6.113-7.382-9.154
		c-1.052-1.291-2.085-2.992-3.495-3.519c-4.075-1.52-6.679-4.392-8.891-7.907c-2.01-3.194-4.168-6.298-6.32-9.398
		c-1.736-2.501-1.47-4.131,1.337-4.845c6.478-1.646,10.739-6.206,13.359-11.646c3.997-8.298,10.892-12.923,18.394-17.08
		c6.018-3.335,12.227-6.312,19.026-7.768c1.137-0.244,2.319-0.382,3.48-0.382c12.908,0,25.823-0.182,38.722,0.174
		c5.096,0.141,10.213,1.257,15.22,2.38c4.3,0.965,5.546,3.477,4.032,6.314c-2.716-1.449-5.298-3.263-8.166-4.24
		c-3.173-1.081-6.598-1.89-9.93-1.959c-11.926-0.25-23.867-0.394-35.785-0.012c-3.725,0.119-7.676,1.485-11.024,3.236
		c-6.109,3.192-6.93,9.864-2.221,14.89c1.771,1.89,3.823,3.527,5.819,5.192c6.92,5.773,8.803,14.867,1.001,22.05
		c1.011,0.387,1.831,0.849,2.703,0.99c0.848,0.138,1.755-0.006,2.626-0.109c6.447-0.769,7.719,0.062,5.335,7.663
		c-0.711,2.266-2.074,4.363-3.35,6.406c-1.401,2.247-2.306,2.189-3.88,0.132c-1.458-1.906-2.876-3.854-4.492-5.619
		c-0.54-0.591-1.638-0.671-2.48-0.984c-0.23,0.903-0.785,1.865-0.637,2.701c0.543,3.062,1.463,6.058,1.94,9.126
		c0.211,1.354,0.054,3.823-0.549,4.033c-1.345,0.469-3.329,0.289-4.599-0.43c-4.286-2.425-8.347-5.247-12.553-7.819
		c-1.521-0.93-3.213-1.582-4.826-2.361C29.452,130.882,29.312,131.229,29.172,131.577z"/>
</g>
</svg>
