<?xml version="1.0" encoding="utf-8"?>
<!-- Generator: Adobe Illustrator 16.0.0, SVG Export Plug-In . SVG Version: 6.00 Build 0)  -->
<!DOCTYPE svg PUBLIC "-//W3C//DTD SVG 1.1//EN" "http://www.w3.org/Graphics/SVG/1.1/DTD/svg11.dtd">
<svg version="1.1" id="圖層_1" xmlns="http://www.w3.org/2000/svg" xmlns:xlink="http://www.w3.org/1999/xlink" x="0px" y="0px"
	 width="552.862px" height="217.179px" viewBox="0 0 552.862 217.179" enable-background="new 0 0 552.862 217.179"
	 xml:space="preserve">
<g>
	<path fill-rule="evenodd" clip-rule="evenodd" d="M277.212,152.45c3.353,1.69,6.955,3.036,9.947,5.22
		c1.419,1.035,2.587,3.822,2.296,5.551c-1.325,7.879-6.133,13.389-12.971,17.359c-3.688,2.141-7.046,4.865-10.791,6.881
		c-1.109,0.598-3.033-0.502-4.582-0.496c-2.349,0.011-4.714,0.186-7.041,0.512c-3.879,0.546-7.726,1.317-11.604,1.867
		c-0.716,0.102-1.717-0.173-2.246-0.65c-3.521-3.18-4.112-2.961-6.03,1.662c-2.621,6.319-5.445,12.553-8.183,18.824
		c-0.664-0.209-1.328-0.418-1.992-0.627c0.544-5.332,0.782-10.721,1.74-15.979c0.628-3.443-0.107-5.578-2.986-7.543
		c-4.333-2.958-8.406-6.297-12.589-9.475c0.152-0.396,0.306-0.794,0.458-1.191c5.186,1.37,10.38,2.707,15.555,4.117
		c7.169,1.954,7.104,1.473,10.385-5.105c3.091-6.195,7.399-11.797,11.352-17.537c0.604-0.878,2.598-1.847,3.229-1.492
		c4.885,2.744,7.967-1.393,13.157-2.826c-5.271-3.225-9.571-5.854-13.87-8.482c0.047-0.375,0.093-0.75,0.14-1.125
		c4.079,0.514,8.165,0.981,12.235,1.559c2.299,0.325,4.558,0.998,6.862,1.215c3.429,0.321,5.137-0.523,6.494-4.675
		c2.442-7.475,6.719-14.354,10.326-21.435c0.295-0.578,1.596-1.282,1.979-1.079c4.719,2.495,7.729-1.376,11.387-2.864
		c9.572-3.896,18.298-0.645,26.787,3.539c0.947,0.467,1.775,2.654,1.527,3.797c-0.838,3.857-1.181,8.47-3.546,11.213
		c-5.018,5.817-11.063,10.791-16.999,15.736c-1.158,0.966-3.854,3.965-5.887-0.189c-0.203-0.416-4.411,1.113-6.754,1.765
		c-3.458,0.962-6.871,2.159-10.388,2.788c-1.057,0.188-2.332-1.37-3.618-1.781c-1.131-0.361-2.417-0.236-3.635-0.326
		C277.309,151.6,277.261,152.025,277.212,152.45z"/>
	<path fill-rule="evenodd" clip-rule="evenodd" d="M363.03,142.43c-3.936,0.22-5.438,3.037-6.943,6.173
		c-3.907,8.143-8.032,16.182-12.07,24.262c-0.702-0.23-1.403-0.462-2.104-0.693c1.112-7.854,2.226-15.707,3.402-24.009
		c-7.164-2.851-14.441-5.745-21.718-8.641c0.011-0.384,0.022-0.769,0.033-1.153c4.515-0.195,9.028-0.494,13.545-0.551
		c3.821-0.049,7.646,0.295,11.469,0.264c5.103-0.043,8.058-1.758,10.663-7.21c4.165-8.712,10.727-16.288,16.396-24.257
		c0.562-0.789,2.17-1.588,2.957-1.336c4.846,1.556,8.307-1.329,11.925-3.489c10.529-6.287,21.384-4.874,32.206-1.274
		c1.147,0.382,2.43,3.643,1.963,4.979c-1.406,4.025-2.843,8.559-5.72,11.446c-6.745,6.771-14.213,12.85-21.674,18.854
		c-1.737,1.397-3.941,3.675-7.314,0.923c-1.189-0.971-5.317,1.574-8.065,2.616c-4.918,1.864-9.758,3.958-14.747,5.601
		c-1.135,0.374-2.747-0.701-4.141-1.11C363.072,143.36,363.052,142.895,363.03,142.43z"/>
	<path fill-rule="evenodd" clip-rule="evenodd" d="M166.933,189.052c1.286-5.567,2.343-11.202,3.955-16.674
		c0.823-2.793,0.425-4.526-1.629-6.59c-3.85-3.866-7.316-8.113-10.926-12.182c2.768,0.949,6.055,1.977,9.262,3.211
		c2.321,0.895,4.509,2.129,6.805,3.098c4.181,1.763,6.544,1.402,9.212-3.535c3.478-6.436,9.226-11.655,14.104-17.305
		c0.523-0.607,2.255-1.111,2.603-0.785c3.495,3.277,6.839,0.803,10.213-0.062c7.759-1.985,22.005,2.857,26.59,9.292
		c0.708,0.994,0.981,3.07,0.421,4.057c-2.184,3.843-4.116,8.261-7.388,10.949c-4.786,3.935-10.512,6.828-16.104,9.637
		c-2.587,1.301-5.699,3.066-8.613-0.729c-0.764-0.994-4.358,0.238-6.657,0.359c-3.601,0.188-7.205,0.388-10.808,0.385
		c-0.874,0-2.001-0.553-2.58-1.223c-2.979-3.451-3.579-3.322-5.954,0.717c-3.194,5.432-6.634,10.721-9.933,16.092
		c-0.44,0.717-0.674,1.563-1.002,2.348C167.979,189.759,167.456,189.406,166.933,189.052z"/>
	<path fill-rule="evenodd" clip-rule="evenodd" d="M42.213,83.603c1.792-0.508,3.601-1.145,5.461-1.523
		c3.942-0.805,7.99-1.209,11.825-2.347c1.319-0.392,2.518-2.324,3.112-3.815c1.752-4.398,3.176-8.93,4.728-13.408
		c0.474,0.092,0.947,0.186,1.421,0.277c0,4.322,0,8.645,0,13.125c4.567,1.252,8.657,2.373,12.748,3.494
		c-0.005,0.349-0.011,0.697-0.016,1.047c-4.521,0.621-9.04,1.248-13.562,1.861c-3.193,0.434-4.977,1.648-6.052,5.291
		c-1.481,5.018-4.465,9.607-6.968,14.294c-0.487,0.912-1.618,1.71-2.629,2.078c-7.994,2.915-15.071,9.667-24.56,6.269
		c-1.075-0.385-2.418-3.084-2.017-3.998c1.705-3.881,3.931-7.547,6.158-11.174c0.888-1.445,2.271-2.586,4.021-4.518
		c-2.181,0-3.278-0.047-4.37,0.008c-3.604,0.184-8.657,2.005-10.534,0.305c-5.244-4.752-13.186-7.13-14.606-15.828
		c-0.917-5.62-0.495-8.428,5.27-8.781c5.931-0.363,12.407,0.236,17.853,2.406c4.442,1.77,7.839,6.354,11.424,9.963
		C41.837,79.55,41.712,81.507,42.213,83.603z"/>
	<path fill-rule="evenodd" clip-rule="evenodd" d="M127.869,105.888c5.49-5.245,10.98-10.489,16.472-15.734
		c0.484,0.334,0.969,0.668,1.453,1.001c-2.206,4.323-4.223,8.758-6.694,12.923c-1.376,2.32-1.496,4.037,0.043,6.284
		c2.605,3.806,4.903,7.821,6.709,12.63c-2.364-1.57-4.771-3.081-7.081-4.727c-2.298-1.637-4.372-3.619-6.776-5.063
		c-2.408-1.446-4.101-1.235-6.628,1.317c-4.726,4.771-10.642,8.373-16.127,12.372c-0.554,0.403-2.028,0.541-2.279,0.206
		c-2.81-3.753-6.622-1.694-10.06-1.998c-8.713-0.768-14.342-6.43-19.181-12.953c-0.7-0.944-0.519-3.555,0.294-4.426
		c2.778-2.979,5.645-6.268,9.178-8.047c4.344-2.188,9.321-3.425,14.164-4.183c2.406-0.376,6.163-2.724,7.837,2.222
		c0.324,0.957,3.93,0.811,6.022,1.162c2.573,0.432,5.289,0.484,7.674,1.402c1.717,0.66,2.991,2.469,4.463,3.765
		C127.524,104.657,127.697,105.272,127.869,105.888z"/>
	<path fill-rule="evenodd" clip-rule="evenodd" d="M284.063,71.29c5.219-5.808,9.952-11.075,14.685-16.343
		c0.409,0.23,0.817,0.461,1.227,0.691c-1.564,3.99-2.877,8.105-4.777,11.929c-1.391,2.796-1.179,4.818,0.778,7.179
		c2.629,3.17,4.927,6.615,6.788,10.832c-3.846-2.37-7.745-4.66-11.523-7.134c-3.67-2.402-5.991-2.969-9.174,1.658
		c-3.179,4.622-8.509,7.767-12.919,11.532c-0.354,0.303-0.968,0.656-1.327,0.548c-9.228-2.786-20.154,0.065-27.51-9.233
		c-2.837-3.587-3.661-6.025-0.518-9.249c1.948-1.998,3.822-4.372,6.231-5.552c4.422-2.165,9.155-3.77,13.881-5.208
		c2.26-0.688,4.841-1.997,6.852,1.526c0.62,1.086,4.295,0.422,6.569,0.574C277.456,65.317,282.111,64.492,284.063,71.29z"/>
</g>
<g>
	<path fill-rule="evenodd" clip-rule="evenodd" d="M367.363,45.955c-2.855-1.239-5.712-2.477-8.566-3.719
		c-2.387-1.037-3.99-1.087-5.585,1.793c-1.898,3.426-4.25,7.652-7.482,9.06c-5.764,2.511-12.427,3.944-18.632,0.776
		c-2.666-1.361-7.014-4.355-6.697-5.666c0.809-3.352,3.482-6.493,6.039-9.104c1.896-1.936,4.646-3.302,7.266-4.172
		c1.892-0.628,4.193,0.028,6.312,0.012c1.438-0.012,2.885-0.359,4.31-0.272c3.064,0.188,6.118,0.56,10.484,0.983
		c1.746-2.66,4.387-6.685,7.027-10.708c0.395,0.165,0.789,0.331,1.184,0.497c-0.803,3.758-2.882,7.836-2.043,11.184
		c0.812,3.24,4.625,5.729,7.119,8.548C367.853,45.43,367.607,45.692,367.363,45.955z"/>
	<path fill-rule="evenodd" clip-rule="evenodd" d="M374.129,52.973c1.063-3.225,2.432-7.381,3.8-11.535
		c0.423-0.037,0.845-0.072,1.267-0.109c-0.145,7.307-0.67,14.822,10.114,16.115c-0.554,0.512-1.106,1.023-1.66,1.536
		c-2.509-0.393-5.015-0.813-7.528-1.17c-2.836-0.401-4.733-0.309-5.621,3.529c-0.903,3.909-2.66,9.272-5.624,10.688
		c-5.119,2.443-10.765,5.438-17.292,3.516c-7.394-2.176-8.059-5.381-3.811-11.15c3.229-4.387,6.466-10.481,14.046-8.994
		c0.901,0.178,2.007-1.182,3.097-1.367C367.604,53.574,370.339,53.386,374.129,52.973z"/>
	<path fill-rule="evenodd" clip-rule="evenodd" d="M288.036,76.201c-3.22-0.586-6.85-2.34-9.533-1.396
		c-2.241,0.787-3.31,4.774-5.011,7.268c-4.329,6.35-15.331,8.418-21.638,3.668c-1.211-0.912-1.88-4.574-1.058-5.805
		c3.363-5.035,7.082-9.858,14.396-9.389c3.404,0.218,6.883-0.712,11.56-1.268c0.922-1.99,2.471-5.334,4.021-8.678
		c0.435-0.074,0.869-0.146,1.305-0.219C280.469,67.322,281.904,72.828,288.036,76.201z"/>
	<path fill-rule="evenodd" clip-rule="evenodd" d="M233.239,41.694c-1.199,6.235-0.281,11.413,6.056,14.464
		c-1.132-0.104-2.278-0.13-3.393-0.33c-1.138-0.205-2.255-0.547-3.362-0.889c-2.49-0.766-3.925-0.332-4.642,2.625
		c-2.595,10.689-14.305,12.514-21.443,9.915c-3.983-1.45-4.954-4.196-2.741-7.318c3.154-4.45,6.332-9.082,13.143-8.628
		c3.543,0.235,7.178-0.912,11.491-1.539c0.9-2.078,2.231-5.15,3.562-8.223C232.353,41.746,232.796,41.721,233.239,41.694z"/>
	<path fill-rule="evenodd" clip-rule="evenodd" d="M432.171,26.84c1.056-1.975,2.494-4.664,3.933-7.354
		c-0.941,5.879,0.097,10.567,6.315,13.358c-1.084,0.347-1.439,0.594-1.632,0.502c-4.983-2.391-8.633-2.709-11.763,3.502
		c-3.068,6.09-11.036,7.066-17.499,4.018c-3.839-1.812-4.093-4.369-1.71-6.934c3.334-3.587,6.521-7.713,12.716-6.486
		C425.418,28.017,428.597,27.115,432.171,26.84z"/>
	<path fill-rule="evenodd" clip-rule="evenodd" d="M541.134,58.169c-0.134-2.109-0.269-4.218-0.415-6.517
		c-3.328,0.143-4.221,1.835-4.376,5.04c-0.446,9.21-4.688,14.232-12.612,15.667c-1.963-3.852-0.437-10.716,3.049-13.812
		c0.974-0.864,1.995-1.704,2.819-2.701c4.522-5.468,4.504-5.483,5.562-12.328c1.756,2.503,2.151,7.032,6.366,4.921
		c2.974-1.491,5.116-4.033,3.312-8.369c1.93,0.775,3.302,1.326,3.76,1.51c-0.174,3.51,0.27,6.797-0.646,9.646
		c-0.912,2.835-3.189,5.229-4.869,7.817C542.433,58.752,541.783,58.46,541.134,58.169z"/>
	<path fill-rule="evenodd" clip-rule="evenodd" d="M496.492,22.83c3.531,6.361,3.531,6.361,9.367,7.654
		c-8.879,0.998-7.605,8.25-10.063,13.594c-1.958,4.256-6.74,7.71-11.024,10.238c-3.372,1.988-5.144-0.089-4.359-4.146
		c1.382-7.155,6.213-12.227,11.839-15.726c3.295-2.049,3.677-3.882,3.647-6.887C495.886,26.193,496.228,24.826,496.492,22.83z"/>
	<path fill-rule="evenodd" clip-rule="evenodd" d="M139.57,37.242c3.184-4.826,8.423-5.184,13.38-5.778
		c2.211-0.265,4.815-0.097,6.763,0.854c4.335,2.119,7.353,0.67,10.199-2.502c0.341-0.379,1.078-0.404,2.432-0.867
		c-1.144,2.289-1.915,3.835-2.818,5.645c1.164,1.502,2.386,3.078,3.608,4.653c-6.588-5.022-11.291-0.479-16.497,2.505
		C151.912,44.461,143.709,42.101,139.57,37.242z"/>
	<path fill-rule="evenodd" clip-rule="evenodd" d="M287.424,47.019c0.4,3.644,0.791,7.194,1.184,10.759
		c0.138,0.053-0.783-0.072-1.4-0.572c-2.688-2.176-4.396-1.47-6.491,1.176c-3.844,4.852-10.457,5.795-15.357,2.734
		c-4.436-2.771-4.314-5.658,0.229-8.494c5.214-3.254,11.296-2.811,17.531-0.378C284.569,50.481,286.084,48.643,287.424,47.019z"/>
	<path fill-rule="evenodd" clip-rule="evenodd" d="M497.053,77.779c0.456-1.791,0.917-3.604,1.311-5.15
		c1.939,2.654,3.798,5.198,5.648,7.731c-1.354,0-3.228,0-5.101,0c0.271,0.335,0.541,0.671,0.812,1.006
		c-2.489,3.153-4.635,6.685-7.565,9.355c-2.979,2.711-6.887,2.695-9.796-0.348c-1.625-1.701,2.169-8.524,5.353-9.749
		C490.597,79.515,493.633,78.803,497.053,77.779z"/>
	<path fill-rule="evenodd" clip-rule="evenodd" d="M388.931,16.648c0.959-1.677,1.679-2.934,2.322-4.06
		c0.952,2.573,1.861,5.032,2.788,7.536c-2.955-1.363-5.205-0.376-6.98,2.915c-0.773,1.435-2.868,2.435-4.573,3.028
		c-3.28,1.143-6.802,1.307-8.639-2.318c-1.175-2.319,3.635-6.742,7.551-7.064C383.844,16.484,386.318,16.648,388.931,16.648z"/>
	<path fill-rule="evenodd" clip-rule="evenodd" d="M459.671,80.715c0.179,0.915,0.53,2.727,0.731,3.757
		c-1.649,1-3.353,1.593-4.427,2.764c-3.778,4.115-7.702,4.197-11.856-0.136c2.034-4.229,5.749-4.803,9.93-4.848
		C455.809,82.232,457.559,81.322,459.671,80.715z"/>
	<path fill-rule="evenodd" clip-rule="evenodd" d="M438.218,11.065c-3.453,2.303-3.097,9.672-10.185,9.111
		c-1.143-6.866,7.015-6.798,8.548-12.424C437.27,9.147,437.766,10.15,438.218,11.065z"/>
</g>
</svg>
