<?xml version="1.0" encoding="utf-8"?>
<!-- Generator: Adobe Illustrator 16.0.0, SVG Export Plug-In . SVG Version: 6.00 Build 0)  -->
<!DOCTYPE svg PUBLIC "-//W3C//DTD SVG 1.1//EN" "http://www.w3.org/Graphics/SVG/1.1/DTD/svg11.dtd">
<svg version="1.1" id="圖層_1" xmlns="http://www.w3.org/2000/svg" xmlns:xlink="http://www.w3.org/1999/xlink" x="0px" y="0px"
	 width="184.938px" height="122.225px" viewBox="0 0 184.938 122.225" enable-background="new 0 0 184.938 122.225"
	 xml:space="preserve">
<path fill-rule="evenodd" clip-rule="evenodd" d="M117.981,89.351c8.588,3.98,17.444,5.255,26.327,3.345
	c11.723-2.52,23.233-6.015,34.862-8.982c1.41-0.359,2.99-0.049,5.768-0.049c-22.88,16.621-46.931,21.549-73.239,16.354
	c-1.846,5.965-5.835,8.792-11.688,10.215c-5.366,1.306-10.293,4.37-15.643,5.804c-8.272,2.217-16.667,4.589-25.144,5.293
	c-12.23,1.017-24.596,1.064-36.874,0.647c-9.994-0.338-14.584-5.041-17.508-14.542c-5.889-19.138-5.303-38.703-3.937-58.265
	C1.479,40.973,6.85,34.824,12.842,29.83C21.79,22.373,30.809,14.8,40.675,8.696C51.254,2.15,62.872-2.426,75.965,1.388
	c9.611,2.8,15.497,10.083,20.583,17.749c10.032,15.122,16.239,31.994,20.667,49.542c0.44,1.746,1.056,3.555,2.037,5.038
	c2.854,4.316,2.35,8.428-0.163,12.621C118.604,87.148,118.417,88.136,117.981,89.351z"/>
</svg>
