<?xml version="1.0" encoding="utf-8"?>
<!-- Generator: Adobe Illustrator 16.0.0, SVG Export Plug-In . SVG Version: 6.00 Build 0)  -->
<!DOCTYPE svg PUBLIC "-//W3C//DTD SVG 1.1//EN" "http://www.w3.org/Graphics/SVG/1.1/DTD/svg11.dtd">
<svg version="1.1" id="圖層_1" xmlns="http://www.w3.org/2000/svg" xmlns:xlink="http://www.w3.org/1999/xlink" x="0px" y="0px"
	 width="1069.26px" height="424.295px" viewBox="0 0 1069.26 424.295" enable-background="new 0 0 1069.26 424.295"
	 xml:space="preserve">
<g>
	<path fill-rule="evenodd" clip-rule="evenodd" d="M615.21,298.738c-1.497-0.982-2.954-2.033-4.497-2.936
		c-5.462-3.191-5.792-3.941-1.813-9.01c2.328-2.964,4.981-6.052,8.178-7.875c6.431-3.667,13.238-6.734,20.084-9.586
		c3.099-1.29,6.451-3.298,10.078,0.172c1.111,1.063,4.435-0.111,6.732-0.375c6.193-0.71,12.381-1.48,18.81-2.256
		c0,2.041,0,2.959,0,5.385c2.999-1.837,5.577-2.818,7.333-4.606c4.878-4.972,9.376-10.315,14.111-15.431
		c1.213-1.311,2.747-2.322,5.201-2.875c-2.938,6.813-5.876,13.627-9.037,20.957c5.639,4.263,11.427,8.639,17.215,13.015
		c-0.023,0.318-0.048,0.637-0.072,0.954c-3.842-0.733-7.725-1.299-11.514-2.243c-4.662-1.163-9.192-2.896-13.884-3.896
		c-3.33-0.711-5.722,0.223-8.194,3.643c-3.515,4.86-8.784,8.459-13.35,12.546c-1.728,1.547-3.584,2.949-5.381,4.418
		C641.877,298.738,628.543,298.738,615.21,298.738z"/>
	<path fill-rule="evenodd" clip-rule="evenodd" d="M509.373,404.629c-7.961-2.709-8.807-5.788-2.807-12.642
		c3.249-3.712,6.828-8.787,11.007-9.659c6.898-1.439,12.158-7.93,20.015-6.126c0.939,0.216,2.94-2.162,3.729-3.706
		c2.072-4.062,3.746-8.326,5.578-12.511c0.533,0.129,1.066,0.257,1.6,0.386c-0.323,4.129-0.646,8.257-0.993,12.696
		c3.817,1.415,7.619,2.824,11.42,4.233c-0.023,0.376-0.046,0.752-0.069,1.128c-3.825,0.181-7.656,0.298-11.476,0.562
		c-3.719,0.258-6.535,0.899-8.051,5.543c-1.548,4.741-4.446,9.674-8.164,12.894c-3.604,3.122-9.005,4.169-13.611,6.141
		c-0.741,0.317-1.452,0.706-2.177,1.062C513.373,404.629,511.373,404.629,509.373,404.629z"/>
	<path fill-rule="evenodd" clip-rule="evenodd" d="M368.169,168.61c-4.428,1.09-8.826,2.326-13.292,3.229
		c-4.612,0.932-7.404,2.635-8.293,8.105c-0.912,5.617-3.762,10.96-6.094,16.277c-0.529,1.208-2.45,1.78-3.681,2.711
		c-2.095,1.586-4.149,3.224-6.222,4.84c0.436,0.658,0.87,1.316,1.306,1.975c2.582-1.191,5.107-2.536,7.761-3.539
		c4.121-1.557,8.309-2.953,12.521-4.238c0.762-0.231,2.058,0.114,2.642,0.676c2.688,2.59,4.488,2.289,5.331-1.333
		c0.94-4.04,1.293-8.223,2.32-12.236c1.09-4.258,2.672-8.39,4.039-12.576c0.538,0.059,1.077,0.118,1.615,0.177
		c0.479,6.176,1.288,12.352,1.313,18.529c0.014,3.688,1.059,5.98,4.499,7.203c0.771,0.275,1.476,0.772,2.168,1.232
		c4.716,3.129,8.45,3.429,13.146-1.218c4.821-4.771,11.638-7.454,16.94-11.828c5.202-4.291,9.495-9.667,14.384-14.363
		c3.684-3.538,7.606-6.841,11.603-10.023c0.64-0.51,2.326,0.521,3.347,0.222c3.016-0.884,6.031-1.881,8.881-3.193
		c5.513-2.54,10.859-5.444,16.409-7.893c0.933-0.412,2.539,0.703,3.748,1.744c4.095,0.382,5.558-2.545,6.863-6.027
		c2.969-7.922,6.192-15.749,9.392-23.583c0.579-1.419,1.534-2.685,2.315-4.021c0.452,0.129,0.904,0.258,1.356,0.388
		c-0.442,8.509-0.885,17.019-1.352,26.002c7.957,1.77,15.367,6.908,24.824,4.127c-2.522-3.306-4.846-6.408-7.233-9.459
		c-1.943-2.484-1.816-4.695,0.227-7.165c5.415-6.548,12.299-9.843,20.744-10.405c4.414-0.293,8.773-1.474,13.188-1.72
		c1.771-0.099,4.588-0.745,4.842,3.193c0.064,0.988,4.837,1.684,7.452,2.491c3.737,1.153,7.576,2.059,11.165,3.562
		c1.147,0.48,1.641,2.521,2.434,3.847c-0.091,0.628-0.182,1.256-0.271,1.884c1.985-0.793,4.27-1.198,5.902-2.451
		c5.266-4.042,10.271-8.423,15.434-12.602c0.814-0.659,1.928-0.951,3.643-0.71c-3.324,5.279-6.523,10.643-10.026,15.801
		c-1.582,2.331-1.951,4.149-0.476,6.764c2.978,5.274,5.523,10.792,7.504,16.899c-3.572-2.788-7.146-5.577-10.848-8.467
		c-3.92,5.444-7.985,10.874-11.73,16.517c-0.577,0.869,0.041,2.833,0.577,4.09c2.386,5.594,4.943,11.114,6.7,17.425
		c-2.1-1.647-4.32-3.163-6.269-4.973c-2.802-2.605-5.31-5.527-8.116-8.127c-4.075-3.774-5.172-2.915-9.66,0.129
		c-6.971,4.726-14.686,8.358-22.135,12.361c-0.578,0.311-2.069,0.148-2.259-0.231c-2.398-4.811-7.04-3.425-10.907-4.062
		c-11.674-1.922-17.781-10.478-22.76-19.849c-0.815-1.535,1.995-4.996,3.295-7.942c-5.339-0.15-11.1-0.172-16.293,3.324
		c-0.526,0.354-1.203,0.955-1.247,1.488c-0.98,11.76-9.56,19.87-14.355,30.619c3.336,2.497,6.991,5.234,10.647,7.971
		c-0.112,0.422-0.225,0.845-0.336,1.267c-4.941-1.259-9.932-2.356-14.813-3.814c-7.545-2.254-11.073-0.492-14.82,6.368
		c-3.414,6.252-7.553,12.121-11.602,18.002c-0.766,1.113-3.154,2.445-3.855,2.042c-3.73-2.142-6.584-0.261-9.739,1.225
		c-8.796,4.141-24.877,1.453-31.898-5.436c-0.956-0.938-1.324-2.978-1.177-4.427c0.232-2.278,1.136-4.487,2.079-7.899
		c-5.387-0.245-10.419-0.761-15.424-0.566c-2.134,0.082-3.097,1.682-3.889,4.512c-2.523,9.017-6.385,17.663-9.869,26.396
		c-0.248,0.622-1.872,1.341-2.438,1.086c-4.253-1.914-6.765,1.074-9.756,3.054c-10.931,7.23-22.002,4.277-32.913-0.021
		c-1.147-0.451-2.12-2.963-2.098-4.504c0.131-8.976,3.851-16.329,10.668-22.19c1.805-1.551,3.292-3.471,5.902-6.267
		c-3.345,0-5.215-0.003-7.086,0c-5.596,0.008-6.5-0.838-5.498-6.461c0.483-2.716,1.552-5.479,2.983-7.842
		c2.313-3.815,4.86-7.576,7.864-10.851c1.714-1.867,4.568-2.659,6.834-4.059c1.664-1.029,3.22-2.238,4.799-3.4
		c3.583-2.638,6.378-6.868,12.023-5.275c0.554,0.156,2.565-3.003,3.064-4.85c1.459-5.389,2.494-10.893,3.695-16.351
		c0.588,0.024,1.176,0.05,1.764,0.074c0.393,3.946,0.943,7.886,1.123,11.842c0.122,2.682,1.137,3.834,3.852,4.032
		c3.802,0.277,7.576,0.922,11.363,1.41C368.009,167.719,368.089,168.165,368.169,168.61z M546.661,163.476
		c0.136,0.69,0.271,1.381,0.407,2.07c8.913-3.31,14.234-12.236,23.659-15.668c-1.94-1.61-2.929-2.493-3.98-3.292
		c-3.203-2.431-6.252-4.103-8.813,0.924c-0.631,1.237-2.082,2.151-3.318,2.97c-3.686,2.44-7.452,4.761-10.714,6.828
		C544.937,159.625,545.799,161.55,546.661,163.476z"/>
	<path fill-rule="evenodd" clip-rule="evenodd" d="M438.208,307.573c1.498-1.391,3.318-2.564,4.438-4.214
		c3.941-5.807,7.643-11.776,11.435-17.684c0.578,0.285,1.155,0.57,1.732,0.855c-1.733,6.927-3.468,13.854-5.201,20.781
		c0.325,0.23,0.651,0.462,0.977,0.692c2.091-1.983,4.312-3.85,6.246-5.977c3.744-4.116,6.421-9.548,13.653-8.411
		c1.657,0.261,3.668-1.993,5.573-2.979c3.94-2.04,7.88-4.093,11.922-5.916c0.659-0.297,2.048,1.063,2.735,0.778
		c1.891-0.782,4.382-1.621,5.191-3.185c1.492-2.883,1.721-6.39,2.898-9.475c1.741-4.56,3.853-8.978,5.807-13.455
		c0.402,0.116,0.805,0.233,1.207,0.351c0,6.359,0,12.719,0,19.84c1.27,0.398,3.047,0.957,4.869,1.529
		c2.813-13.004,20.611-14.714,29.349-9.383c2.242-3.088,4.507-6.207,6.771-9.326c0.423,0.077,0.846,0.155,1.269,0.232
		c-2.994,6.28-3.391,12.005,3.312,16.039c-0.866,0.455-1.2,0.772-1.375,0.7c-2.895-1.189-6.009-3.742-8.579-3.273
		c-2.431,0.442-4.338,4-6.379,6.273c-2.192,2.441-4.604,3.175-8.083,3.357c-8.259,0.434-16.482,1.86-24.666,3.212
		c-3.352,0.554-4.994,2.573-6.389,6.343c-2.911,7.863-7.53,15.102-11.564,22.533c-0.392,0.722-1.725,1.551-2.406,1.395
		c-4.297-0.983-6.836,2.058-9.624,4.159c-8.158,6.149-17.214,6.396-26.596,4.33c-1.031-0.227-2.404-2.263-2.349-3.398
		c0.141-2.934,0.993-5.833,1.613-9.018c-3.194-0.821-4.914-0.987-7.292,2.813c-4.252,6.795-10.259,12.501-15.644,18.563
		c-0.467,0.525-2.211,0.767-2.599,0.378c-3.071-3.08-6.128-1.116-9.26-0.299c-8.563,2.234-22.979-2.834-27.733-9.883
		c-0.688-1.022-0.99-3.13-0.4-4.046c2.65-4.12,4.978-8.962,8.753-11.724c5.512-4.031,12.088-6.673,18.386-9.519
		c1.493-0.675,4.479-2.772,5.422,1.579c0.112,0.521,4.516,0.181,6.928,0.123c3.916-0.094,7.844-0.507,11.739-0.294
		c1.146,0.063,2.202,1.782,3.3,2.742C437.798,306.334,438.003,306.954,438.208,307.573z"/>
	<path fill-rule="evenodd" clip-rule="evenodd" d="M148.498,61.462c-2.918,5.946-5.98,11.828-8.65,17.884
		c-0.657,1.491-0.675,3.914,0.109,5.277c3.214,5.589,6.853,10.934,9.767,17.283c-3.35-2.093-6.75-4.109-10.029-6.305
		c-2.202-1.475-4.157-3.316-6.357-4.793c-5.574-3.741-6.287-3.584-10.146,1.527c-0.6,0.794-1.176,1.78-2.006,2.2
		c-8.188,4.147-8.568,10.719-5.89,18.33c0.126,0.358-0.185,0.87-0.544,2.346c-2.604-3.656-4.763-6.688-7.102-9.971
		c-3.498,1.825-7.078,4.874-10.689-0.045c-0.52-0.707-2.842-0.257-4.299-0.082c-6.343,0.761-12.227-0.246-17.559-3.992
		c-1.031-0.725-2.502-1.468-3.63-1.294c-3.911,0.6-6.287-0.472-7.337-4.573c-0.246-0.964-2.271-1.746-3.613-2.112
		c-13.395-3.658-18.578-15.856-21.068-27.808c-0.25-1.194,0.854-3.449,1.943-4.005c3.963-2.019,8.238-5.052,12.3-4.912
		c8.995,0.31,17.964,2.14,26.868,3.766c1.765,0.323,5.191,1.313,3.025,4.879c2.164,1.166,4.221,2.882,6.527,3.34
		c2.156,0.429,4.6-0.828,6.875-0.684c1.822,0.115,4.815-1.451,5.189,2.719c0.067,0.76,4.387,1.196,6.766,1.68
		c4.635,0.942,9.439,1.354,13.889,2.839c4.729,1.577,8.299,0.991,11.885-2.735c3.984-4.14,8.289-7.972,12.454-11.938
		C147.616,60.676,148.057,61.069,148.498,61.462z"/>
	<path fill-rule="evenodd" clip-rule="evenodd" d="M56.791,287.181c0.712,1.08,1.205,2.807,2.172,3.135
		c5.932,2.012,12.069,3.44,17.938,5.605c3.654,1.35,6.957,3.654,10.718,5.692c-1.073,1.268-1.767,2.087-2.519,2.977
		c3.198,2.614,6.285,2.52,9.88,1.023c9.329-3.881,18.785-7.459,28.214-11.098c1.02-0.395,2.191-0.395,4.023,0.494
		c-7.075,6.049-14.151,12.099-21.711,18.562c4.115,8.038,8.379,16.366,12.643,24.693c-0.238,0.277-0.477,0.556-0.715,0.833
		c-3.957-3.065-8.029-5.995-11.842-9.231c-4.309-3.657-8.137-7.917-12.636-11.299c-3.638-2.734-7.737-5.438-12.243-0.493
		c-1.412,1.55-4.139,2.12-6.379,2.656c-8.738,2.09-17.486,4.178-26.316,5.797c-1.83,0.336-4.102-1.181-6.038-2.117
		c-2.519-1.218-4.789-3.601-7.367-3.937c-15.604-2.031-25.786-11.201-33.567-24.068c-1.877-3.104-1.145-4.708,1.541-6.503
		c6.412-4.286,13.443-6.57,21.109-6.676c6.787-0.094,13.596-0.145,20.36,0.298c4.431,0.289,8.802,1.491,13.2,2.284
		C57.101,286.266,56.946,286.723,56.791,287.181z"/>
	<path fill-rule="evenodd" clip-rule="evenodd" d="M133.069,190.002c0.68,0.809,1.257,2.179,2.057,2.324
		c2.917,0.531,5.91,0.628,8.871,0.934c7.154,0.741,14.307,1.508,22.094,2.331c-0.69,2.587-0.986,3.695-1.295,4.853
		c4.32,1.81,7.411,0.033,10.666-2.371c8.628-6.375,17.453-12.482,26.199-18.696c0.523,0.538,1.049,1.075,1.572,1.613
		c-5.529,7.654-11.058,15.309-16.949,23.465c5.825,6.771,11.856,13.784,17.888,20.796c-0.167,0.355-0.335,0.712-0.501,1.068
		c-4.943-2.271-9.962-4.393-14.806-6.858c-4.29-2.183-8.294-4.927-12.588-7.099c-5.6-2.832-7.941-1.241-13.089,1.898
		c-10.021,6.113-20.756,11.066-31.279,16.329c-0.93,0.465-2.986,0.139-3.662-0.602c-3.131-3.435-7.019-3.186-11.01-2.842
		c-14.707,1.27-25.904-5.441-35.82-15.427c-2.696-2.715-2.354-4.606,0.008-7.105c6.958-7.363,15.768-10.84,25.49-12.525
		c6.33-1.098,12.637-2.348,18.988-3.29c2.434-0.361,4.965-0.059,7.451-0.059C133.258,189.161,133.165,189.582,133.069,190.002z"/>
	<path fill-rule="evenodd" clip-rule="evenodd" d="M185.102,310.009c-0.637,7.419,4.176,6.021,7.338,6.968
		c4.375,1.309,8.799,2.523,13.022,4.227c1.156,0.466,1.669,2.53,2.043,4.4c2.397,2.813,4.497,1.438,6.891-0.59
		c6.282-5.318,12.767-10.396,19.171-15.569c0.553,0.491,1.105,0.982,1.658,1.474c-3.744,5.727-7.324,11.57-11.309,17.125
		c-1.67,2.327-2.121,4.122-0.797,6.75c2.982,5.916,5.66,11.985,7.845,18.879c-2.468-1.893-5.06-3.646-7.374-5.71
		c-3.474-3.099-6.56-6.656-10.176-9.563c-2.816-2.264-4.943-2.337-8.691,0.718c-7.225,5.889-15.99,9.901-24.21,14.528
		c-0.621,0.35-2.519-0.304-2.892-0.994c-1.833-3.384-4.705-3.511-8.051-3.52c-10.905-0.027-24.428-9.919-27.81-20.43
		c-0.495-1.541,0.119-4.036,1.151-5.368c4.309-5.563,9.872-9.435,17.036-10.364C168.221,311.896,176.518,311.011,185.102,310.009z"
		/>
	<path fill-rule="evenodd" clip-rule="evenodd" d="M349.167,258.243c1.46-1.639,3.32-3.066,4.309-4.951
		c3.814-7.278,7.35-14.703,10.989-22.073c0.68,0.215,1.358,0.43,2.038,0.645c-0.912,6.38-1.485,12.835-2.863,19.113
		c-0.833,3.8-0.148,6.122,2.981,8.444c4.903,3.639,9.445,7.766,13.848,12.757c-3.507-0.87-7.054-1.606-10.509-2.647
		c-3.974-1.197-7.797-2.94-11.813-3.935c-3.483-0.862-5.188,0.258-7.194,4.256c-4.111,8.196-10.163,15.43-15.565,22.952
		c-0.452,0.629-2.437,0.985-3.03,0.549c-3.519-2.596-6.509-0.668-9.723,0.615c-9.638,3.848-25.995,0.28-32.936-7.302
		c-0.943-1.03-1.598-3.332-1.1-4.495c1.937-4.521,3.456-9.836,6.862-12.979c5.863-5.412,12.867-9.674,19.728-13.871
		c2.16-1.321,5.24-3.921,8.28,0.314c0.782,1.091,5.213-0.409,7.962-0.765c4.049-0.524,8.085-1.382,12.142-1.486
		c1.521-0.039,3.086,1.634,4.632,2.525C348.526,256.686,348.846,257.464,349.167,258.243z"/>
	<path fill-rule="evenodd" clip-rule="evenodd" d="M455.148,263.453c1.588-1.568,3.49-2.927,4.702-4.744
		c3.495-5.241,6.651-10.708,10.077-15.996c0.939-1.451,2.362-2.589,4.479-3.352c-1.647,6.573-3.498,13.105-4.813,19.744
		c-0.368,1.86,0.204,4.627,1.442,5.956c4.378,4.697,9.231,8.952,13.905,13.374c-0.375,0.556-0.749,1.11-1.123,1.666
		c-4.01-1.603-8.036-3.164-12.023-4.822c-2.452-1.021-4.791-2.327-7.271-3.265c-5.623-2.124-5.765-1.15-9.111,3.603
		c-5.028,7.143-11.219,13.475-17.043,20.038c-0.567,0.64-2.586,1.029-2.987,0.616c-3.362-3.46-6.764-1.297-10.163-0.349
		c-9.298,2.595-25.676-2.806-31.037-10.547c-0.853-1.23-1.077-3.809-0.358-5.049c2.46-4.244,4.639-9.421,8.446-11.948
		c7.313-4.852,15.636-8.202,23.647-11.945c0.719-0.335,2.172,1.306,3.375,1.52c2.558,0.456,5.181,0.826,7.769,0.778
		c4.09-0.076,8.192-0.878,12.25-0.651c1.729,0.097,3.356,2.012,5.03,3.101C454.61,261.938,454.879,262.696,455.148,263.453z"/>
	<path fill-rule="evenodd" clip-rule="evenodd" d="M969.193,251.206c1.469,4.944,2.52,8.48,3.763,12.669
		c3.128-1.24,5.885-2.842,8.831-3.35c2.635-0.455,5.478,0.296,8.229,0.516c0.369,0.604,0.738,1.206,1.107,1.81
		c2.509-6.391,5.018-12.782,7.527-19.174c0.479,0.089,0.96,0.178,1.44,0.266c0,3.845,0.322,7.724-0.096,11.521
		c-0.378,3.43,0.456,5.659,3.551,7.34c3.2,1.738,6.169,3.902,9.188,6.838c-2.273-0.193-4.565-0.268-6.816-0.61
		c-2.792-0.425-5.531-1.203-8.326-1.584c-2.59-0.354-3.887,0.637-4.979,3.461c-2.195,5.676-5.322,10.998-8.185,16.402
		c-0.4,0.756-1.714,1.799-2.198,1.619c-4.893-1.824-8.005,2.481-12.048,3.492c-1.362,0.34-2.56,2.694-3.185,4.37
		c-1.713,4.591-1.159,10.553-8.018,11.728c-0.845,0.145-1.465,1.717-2.15,2.656c-5.192,7.121-12.528,10.063-20.997,10.967
		c-3.035,0.323-4.567-0.952-4.487-3.81c0.083-2.951-0.043-6.171,1.077-8.776c2.544-5.914,5.592-11.646,8.885-17.184
		c0.999-1.68,3.51-2.432,5.258-3.704c1.156-0.841,3.067-1.789,3.138-2.794c0.609-8.741,5.991-14.163,12.552-18.813
		c3.679-2.606,5.383-6.095,5.507-10.548C967.794,255.257,968.409,254.017,969.193,251.206z"/>
	<path fill-rule="evenodd" clip-rule="evenodd" d="M360.585,354.125c-3.796,4.367-7.412,8.91-11.458,13.032
		c-2.271,2.313-3.009,4.251-1.808,7.409c1.996,5.247,3.473,10.691,4.515,16.76c-2.374-2.452-4.837-4.826-7.094-7.383
		c-1.865-2.113-3.396-4.521-5.235-6.659c-3.932-4.57-4.809-3.903-10.064-1.004c-6.769,3.735-14.24,6.215-21.479,9.057
		c-0.814,0.32-2.791-0.241-3.021-0.851c-1.513-3.994-4.98-3.711-8.205-4.332c-9.087-1.75-19.615-12.23-21.078-21.254
		c-0.254-1.567,0.843-3.862,2.061-5.071c4.679-4.643,10.547-6.891,17.119-6.869c6.05,0.02,12.109,0.254,18.141,0.709
		c1.31,0.099,3.793,0.116,3.018,3.307c-0.154,0.632,3.743,2.376,5.869,3.408c3.655,1.775,7.419,3.33,11.063,5.126
		c0.809,0.399,1.694,1.325,1.893,2.163c1.088,4.597,1.545,4.793,5.593,2.348c5.533-3.343,11.115-6.604,16.708-9.844
		c0.813-0.471,1.805-0.635,2.714-0.94C360.085,353.533,360.335,353.83,360.585,354.125z"/>
	<path fill-rule="evenodd" clip-rule="evenodd" d="M786.648,174.914c-0.955,3.302-1.831,6.629-2.886,9.898
		c-1.067,3.306-2.31,6.555-3.649,10.316c5.953,3.646,11.863,7.265,17.773,10.883c-0.021,0.346-0.041,0.691-0.063,1.037
		c-4.389-0.521-8.789-0.956-13.16-1.595c-2.622-0.384-5.174-1.326-7.801-1.592c-4.971-0.504-8.683-0.372-12.163,5.374
		c-4.261,7.035-11.515,12.267-17.549,18.203c-0.622,0.611-2.107,1.268-2.585,0.96c-4.537-2.922-8.294,0.18-12.21,1.463
		c-9.971,3.268-19.036,0.566-27.745-4.118c-0.918-0.494-1.766-3.014-1.303-3.848c1.914-3.449,3.691-7.519,6.716-9.697
		c7.068-5.091,14.746-9.369,22.363-13.644c1.929-1.083,4.164-2.448,7.018-0.063c1.296,1.083,4.96-0.645,7.544-1.133
		c4.529-0.856,9.035-1.866,13.595-2.501c0.864-0.12,1.899,1.688,2.909,1.752c1.771,0.113,4.22,0.196,5.249-0.838
		c2.188-2.198,3.521-5.219,5.433-7.729c3.592-4.716,7.346-9.309,11.032-13.953C785.661,174.366,786.154,174.639,786.648,174.914z"/>
	<path fill-rule="evenodd" clip-rule="evenodd" d="M292.389,400.031c2.103-0.803,4.395-1.299,6.272-2.465
		c5.87-3.646,11.585-7.545,17.359-11.345c0.466,0.483,0.932,0.967,1.396,1.45c-3.722,4.671-7.235,9.53-11.256,13.928
		c-1.89,2.067-2.182,3.645-1.213,6.104c2.057,5.219,3.849,10.543,5.048,16.593c-1.94-1.731-4.021-3.331-5.785-5.227
		c-2.486-2.672-4.631-5.661-7.117-8.332c-2.715-2.919-4.734-3.717-9.012-0.661c-6.355,4.539-14.171,7.055-21.442,10.254
		c-0.749,0.33-2.687-0.273-2.954-0.912c-1.574-3.762-4.919-3.355-7.954-3.81c-8.896-1.331-20.35-11.966-21.826-20.512
		c-0.208-1.205,0.438-3.151,1.368-3.854c3.402-2.566,6.848-6.085,10.726-6.799c7.717-1.42,15.729-1.337,23.628-1.601
		c1.937-0.064,4.075,0.269,3.919,3.653c-0.04,0.881,4.063,2.023,6.313,2.922c3.187,1.272,6.628,2.071,9.548,3.78
		c1.586,0.928,2.316,3.318,3.434,5.049C292.69,398.842,292.54,399.436,292.389,400.031z"/>
	<path fill-rule="evenodd" clip-rule="evenodd" d="M693.413,72.75c2.796-3.646,6.078-7.925,9.36-12.203
		c0.756,0.621,1.513,1.242,2.269,1.864c-1.369,2.915-2.746,5.826-4.105,8.745c-1.925,4.133-1.14,5.322,3.189,5.447
		c6.063,0.176,12.119,0.558,18.177,0.882c0.82,0.044,2.036-0.023,2.384,0.457c3.523,4.864,5.546,1.154,7.961-1.201
		c3.709-3.618,7.536-7.116,11.313-10.665c0.42,0.334,0.84,0.669,1.26,1.003c-2.191,4.375-4.382,8.75-6.766,13.51
		c3.623,3.221,7.288,6.479,10.953,9.737c-0.131,0.343-0.262,0.686-0.393,1.029c-2.814-0.912-5.638-1.798-8.44-2.744
		c-2.674-0.904-5.284-2.027-8.001-2.767c-2.697-0.733-4.558,0.117-6.839,2.323c-4.492,4.346-9.928,7.716-14.982,11.479
		c-0.261,0.194-0.64,0.445-0.902,0.388c-9.114-1.986-19.333,2.768-27.556-4.422c-1.485-1.299-2.29-3.424-3.843-4.587
		c-1.925-1.441-4.367-3.316-6.473-3.185c-6.758,0.421-11.438-2.689-15.629-7.34c-1.967-2.182-2.265-4.263-0.404-6.681
		c4.978-6.469,12.453-7.479,19.603-8.123c3.881-0.349,8.059,1.64,11.966,2.972C689.288,69.274,690.732,70.845,693.413,72.75z"/>
	<path fill-rule="evenodd" clip-rule="evenodd" d="M853.647,271.759c2.275-0.637,4.69-0.977,6.8-1.968
		c6.073-2.853,12.023-5.969,18.021-8.981c0.59,0.779,1.181,1.558,1.771,2.336c-4.491,3.932-9.14,7.704-13.373,11.896
		c-1.211,1.199-1.936,3.733-1.646,5.446c0.934,5.524,2.444,10.952,2.919,16.965c-2.293-2.956-4.635-5.878-6.864-8.882
		c-1.584-2.135-2.888-4.486-4.55-6.553c-2.277-2.831-4.04-3.47-8.15-1.217c-6.712,3.678-14.566,5.288-21.985,7.625
		c-0.668,0.211-2.236-0.458-2.43-1.037c-1.312-3.945-4.824-4.07-7.953-4.968c-8.118-2.328-17.73-13.674-18.315-21.979
		c-0.092-1.307,1.056-3.361,2.212-3.976c3.904-2.077,7.962-4.762,12.163-5.181c6.522-0.65,13.239,0.112,19.813,0.832
		c2.093,0.229,5.612,0.158,5.111,4.649c-0.104,0.934,3.965,2.351,6.126,3.518c2.871,1.551,5.958,2.804,8.553,4.725
		c1.282,0.949,1.67,3.109,2.463,4.721C854.103,270.407,853.875,271.083,853.647,271.759z"/>
	<path fill-rule="evenodd" clip-rule="evenodd" d="M286.523,21.749c-4.682,3.335-9.494,6.506-13.966,10.103
		c-1.367,1.099-2.545,3.374-2.52,5.092c0.081,5.466,0.77,10.923,0.324,16.903c-1.774-3.183-3.619-6.33-5.3-9.562
		c-1.225-2.355-2.027-4.948-3.392-7.21c-1.729-2.868-3.412-3.911-7.615-2.504c-7.112,2.382-14.886,2.815-22.402,3.932
		c-0.786,0.116-2.427-0.638-2.459-1.078c-0.363-4.867-4.677-5.032-7.698-6.671c-9.444-5.121-11.75-14.336-13.536-23.77
		c-0.179-0.948,0.896-2.838,1.799-3.167c4.325-1.576,8.814-3.901,13.203-3.814c6.009,0.118,12.051,1.91,17.936,3.514
		c2.729,0.743,6.541,1.183,5.733,6.113c-0.158,0.965,2.813,2.467,4.374,3.681c3.086,2.4,6.242,4.714,9.255,7.202
		c0.652,0.538,1.212,1.695,1.145,2.513c-0.339,4.097,0.289,4.657,4.396,3.332c6.595-2.127,13.175-4.299,19.761-6.451
		C285.881,20.52,286.202,21.134,286.523,21.749z"/>
	<path fill-rule="evenodd" clip-rule="evenodd" d="M363.205,92.545c-2.304-4.507-4.614-9.01-6.907-13.521
		c-3.195-6.285-3.812-5.979-10.36-4.053c-6.628,1.949-13.651,2.578-20.527,3.613c-0.908,0.137-2.747-0.616-2.833-1.163
		c-0.659-4.226-4.262-4.602-7.182-5.916c-7.415-3.338-15.04-15.36-14.684-23.513c0.054-1.226,1.083-3.079,2.109-3.472
		c4.122-1.58,8.423-3.746,12.655-3.74c6.031,0.009,12.146,1.396,18.05,2.893c2.422,0.613,6.465,0.701,5.763,5.698
		c-0.155,1.106,3.32,2.759,5.165,4.104c2.645,1.927,5.575,3.546,7.89,5.804c1.193,1.163,1.318,3.422,1.927,5.186
		c-0.317,0.544-0.635,1.088-0.952,1.631c2.062-0.193,4.235-0.035,6.165-0.646c6.416-2.028,12.744-4.333,19.105-6.532
		c0.259,0.521,0.519,1.043,0.777,1.564c-4.436,3.392-8.746,6.968-13.359,10.098c-2.377,1.613-3.306,3.084-2.836,6.065
		c0.799,5.065,0.981,10.229,1.423,15.351C364.13,92.179,363.667,92.363,363.205,92.545z"/>
	<path fill-rule="evenodd" clip-rule="evenodd" d="M1036.189,322.211c-1.727,4.254-3.146,8.67-5.281,12.706
		c-1.52,2.869-1.016,4.832,0.805,7.12c2.745,3.453,5.301,7.057,7.19,11.569c-3.985-2.47-7.983-4.92-11.952-7.417
		c-3.681-2.315-6.213-3.426-9.62,1.571c-3.343,4.903-9.011,8.232-13.719,12.18c-0.568,0.477-1.925,0.946-2.224,0.67
		c-3.531-3.266-7.501-1.071-11.315-1.266c-8.012-0.407-13.859-5.187-18.771-11.053c-0.809-0.965-1.019-3.625-0.297-4.468
		c2.858-3.34,5.83-6.833,9.462-9.188c3.52-2.284,7.807-3.614,11.936-4.651c2.715-0.683,5.898-2.327,8.546,1.254
		c0.812,1.099,3.676,0.916,5.599,0.909c4.531-0.014,9.588-1.706,11.952,4.382c0.021,0.057,3.514-0.581,4.537-1.683
		c4.029-4.341,7.719-8.996,11.534-13.534C1035.11,321.613,1035.649,321.912,1036.189,322.211z"/>
	<path fill-rule="evenodd" clip-rule="evenodd" d="M882.919,170.669c2.827,1.711,5.653,3.422,9.293,5.625
		c-1.637,0.146-2.573,0.501-3.306,0.254c-8.258-2.795-13.24,0.715-17.915,7.548c-4.673,6.829-16.843,9.21-24.616,6.452
		c-3.201-1.136-4.045-3.234-1.984-5.633c4.687-5.457,9.469-10.806,17.712-10.899c2.854-0.033,5.645-2.125,8.544-2.38
		c8.015-0.706,7.598-0.636,9.776-8.746c0.726-2.7,3.932-5.362,6.66-6.738c3.48-1.754,7.586-2.409,11.497-3.126
		c4.078-0.748,16.036,4.437,18.348,8.038c3.96-3.464,7.868-6.883,11.777-10.301c0.526,0.094,1.054,0.188,1.581,0.283
		c-5.367,7.252-8.659,14.496-0.318,21.698c-0.52,0.297-1.04,0.595-1.56,0.893c-2.283-1.809-4.621-3.552-6.835-5.441
		c-2.66-2.271-4.531-3.356-7.733,0.122c-3.032,3.294-7.496,6.814-11.6,7.177c-4.805,0.425-9.926-2.382-14.854-3.961
		c-1.282-0.411-2.356-1.475-3.525-2.237C883.547,169.753,883.234,170.211,882.919,170.669z"/>
	<path fill-rule="evenodd" clip-rule="evenodd" d="M27.198,341.429c0.964,3.779,2.047,7.532,2.859,11.343
		c0.842,3.952,2.068,5.785,7.053,4.976c5.272-0.855,10.893,0.406,16.357,0.781c0.471,0.032,1.172,0.217,1.344,0.549
		c4.003,7.769,13.236,12.524,12.439,23.175c-0.445,5.969-0.783,7.295-6.938,7.868c-8.389,0.781-14.809-4.042-21.605-7.722
		c-0.721-0.392-1.004-1.586-1.498-2.403c-1.195-1.98-2.073-4.277-3.66-5.869c-3.106-3.117-5.992-6.104-4.164-11.715
		c-6.813,0.433-13.2,0.839-19.588,1.245c-0.076-0.509-0.154-1.018-0.23-1.525c3.146-1.406,6.188-3.165,9.465-4.128
		c3.779-1.109,5.41-3.167,5.508-7.088c0.076-3.096,0.856-6.174,1.324-9.26C26.309,341.581,26.753,341.504,27.198,341.429z"/>
	<path fill-rule="evenodd" clip-rule="evenodd" d="M966.989,186.137c1.358-1.532,2.525-2.848,3.567-4.022
		c0.521,3.153,1.009,6.104,1.503,9.093c-1.089-0.488-2.826-1.267-4.756-2.133c-2.94,3.427-5.688,6.79-10.999,6.31
		c-2.976-0.27-3.423,1.981-2.055,4.475c1.51,2.75,2.953,5.536,4.425,8.307c-0.286,0.331-0.573,0.661-0.859,0.992
		c-2.246-1.871-4.498-3.733-6.735-5.614c-2.76-2.319-4.817-3.624-8.17,0.141c-2.962,3.326-7.577,6.973-11.591,7.127
		c-5.299,0.204-10.731-2.839-16.084-4.558c-0.579-0.187-1.128-0.77-1.48-1.307c-1.755-2.669-5.481-6.533-4.739-7.853
		c1.762-3.131,5.4-5.538,8.765-7.329c2.676-1.425,6.247-2.493,9.105-1.976c5.923,1.073,11.661,3.229,17.4,5.162
		c0.737,0.248,1.027,1.822,1.929,3.562c1.312-1.511,2.986-2.543,3.107-3.732c0.552-5.428,3.422-8.417,8.744-8.348
		c1.487,0.02,2.99,0.179,4.451,0.455C963.944,185.159,965.327,185.662,966.989,186.137z"/>
	<path fill-rule="evenodd" clip-rule="evenodd" d="M1049.766,196.82c3.918,8.549,9.729,12.815,19.494,9.703
		c-1.615,1.389-3.101,2.979-4.871,4.129c-5.827,3.783-8.958,8.789-7.974,15.955c0.202,1.473,0.073,2.993,0.072,4.491
		c-0.005,10.98-7.979,22.331-18.214,26.669c-3.604,1.527-5.039,0.211-5.722-2.891c-1.85-8.405,0.665-16.395,4.297-23.524
		c2.826-5.549,8.271-9.71,12.04-14.861c1.273-1.739,1.411-4.645,1.306-6.982c-0.178-3.938-0.966-7.847-1.497-11.768
		C1049.054,197.434,1049.41,197.126,1049.766,196.82z"/>
	<path fill-rule="evenodd" clip-rule="evenodd" d="M278.924,132.872c-1.189,1.248-1.975,2.08-2.771,2.904
		c-6.302,6.524-16.038,6.989-23.232,1.294c-2.077-1.645-2.51-3.046-1.167-5.438c3.037-5.415,10.887-9.254,16.713-7.996
		c0.902,0.195,1.939-0.345,2.901-0.297c2.792,0.143,5.577,0.41,9.437,0.713c1.42-2.093,3.584-5.285,5.749-8.477
		c0.318,0.113,0.638,0.227,0.957,0.339c-0.216,1.666-0.433,3.332-0.593,4.572c5.703-0.367,11.618-0.748,18.658-1.201
		c0.835-1.591,2.488-4.741,4.143-7.893c-0.783,6.51,0.635,11.779,6.512,15.499c-3.283-0.948-6.565-1.896-9.678-2.796
		c-4.126,3.832-3.868,10.575-11.472,11.793C288.976,136.866,284.076,136.617,278.924,132.872z"/>
	<path fill-rule="evenodd" clip-rule="evenodd" d="M651.775,147.989c-3.931,4.389-6.059,8.941-1.249,13.951
		c-1.082,0.17-1.548,0.348-1.627,0.24c-3.688-5-7.266-5.954-12.767-1.671c-5.345,4.162-15.911,0.286-18.663-6.107
		c-0.457-1.061,0.192-3.171,1.064-4.125c3.229-3.534,10.996-4.051,15.763-1.593c1.413,0.729,3.3,0.524,4.741,1.22
		c1.383,0.668,2.472,1.947,4.067,3.271c2.269-1.758,4.893-3.791,7.517-5.823C651.005,147.564,651.39,147.777,651.775,147.989z"/>
	<path fill-rule="evenodd" clip-rule="evenodd" d="M587.083,348.336c-0.266,4.991,1.054,8.233,6.85,9.344
		c-8.866-1.53-10.731,4.989-14.021,10.188c-3.018,4.769-11.522,6.624-17.119,4.291c0.059-5.48,4.092-8.559,7.897-11.11
		c3.114-2.089,7.25-2.61,10.832-4.074c1.132-0.463,2.2-1.571,2.833-2.655C585.455,352.436,586.193,350.342,587.083,348.336z"/>
	<path fill-rule="evenodd" clip-rule="evenodd" d="M406.164,372.104c2.711-6.009,7.601-8.282,13.316-9.29
		c4.32-0.763,8.965-0.891,9.533-7.555c1.525,3.826,2.579,6.469,3.678,9.224c-4.746-1.74-7.594,1.485-10.538,5.593
		C418.964,374.524,411.788,375.223,406.164,372.104z"/>
	<path fill-rule="evenodd" clip-rule="evenodd" d="M849.114,132.892c1.059-0.863,2.319-1.893,3.382-2.76c0,2.823,0,5.603,0,8.466
		c-0.987-0.743-2.241-1.688-2.736-2.06c-4.14,1.087-7.748,2.995-11.087,2.605c-2.653-0.31-4.978-3.431-7.448-5.303
		c2.936-1.462,5.793-3.856,8.828-4.108C842.8,129.505,845.742,131.617,849.114,132.892z"/>
	<path fill-rule="evenodd" clip-rule="evenodd" d="M778.089,125.634c0.377,2.92,0.726,5.618,1.099,8.508
		c-1.089-0.525-2.485-1.197-2.886-1.39c-3.935,1.756-7.068,3.653-10.466,4.53c-3.484,0.9-7.65-0.729-7.541-4.159
		c0.063-1.964,4.646-4.601,7.608-5.405c2.537-0.689,5.665,0.797,9.018,1.41C775.746,128.219,776.915,126.93,778.089,125.634z"/>
	<path fill-rule="evenodd" clip-rule="evenodd" d="M240.636,150.763c0.44,2.832,0.769,4.947,0.937,6.026
		c-2.029,0.977-4.006,1.935-5.989,2.88c-1.29,0.614-2.778,1.944-3.847,1.67c-2.615-0.671-5.721-1.505-7.323-3.386
		c-1.297-1.521,3.679-4.832,7.384-4.726C234.898,153.317,238.603,156.083,240.636,150.763z"/>
	<path fill-rule="evenodd" clip-rule="evenodd" d="M635.143,106.749c-0.067,0.313-0.369,1.719-0.675,3.144
		c-5.253-0.327-11.816,5.329-15.807-3.241c2.912-2.681,5.873-3.345,9.514-1.748C630.253,105.814,632.605,106.101,635.143,106.749z"
		/>
	<path fill-rule="evenodd" clip-rule="evenodd" d="M345.964,116.016c-0.715,1.133-2.061,2.982-3.106,4.987
		c-2.075,3.979-4.917,6.491-9.865,6.035c-0.903-8.44,9.377-8.19,11.02-14.931C344.782,113.647,345.49,115.066,345.964,116.016z"/>
	<path fill-rule="evenodd" clip-rule="evenodd" d="M857.507,117.071c-2.108,0.943-4.147,2.265-6.354,2.666
		c-1.042,0.189-2.404-1.384-3.621-2.158c1.24-0.836,2.414-2.221,3.735-2.379c1.956-0.233,4.016,0.402,6.031,0.669
		C857.369,116.269,857.438,116.669,857.507,117.071z"/>
</g>
</svg>
