<?xml version="1.0" encoding="utf-8"?>
<!-- Generator: Adobe Illustrator 16.0.0, SVG Export Plug-In . SVG Version: 6.00 Build 0)  -->
<!DOCTYPE svg PUBLIC "-//W3C//DTD SVG 1.1//EN" "http://www.w3.org/Graphics/SVG/1.1/DTD/svg11.dtd">
<svg version="1.1" id="圖層_1" xmlns="http://www.w3.org/2000/svg" xmlns:xlink="http://www.w3.org/1999/xlink" x="0px" y="0px"
	 width="634.9px" height="281.751px" viewBox="0 0 634.9 281.751" enable-background="new 0 0 634.9 281.751" xml:space="preserve">
<g>
	<path fill-rule="evenodd" clip-rule="evenodd" d="M353.432,147.268c3.871-3.51,7.54-7.284,11.688-10.428
		c2.45-1.857,2.863-3.768,2.345-6.398c-0.988-5.023-1.931-10.057-1.8-15.696c2.214,3.319,4.436,6.634,6.639,9.96
		c1.377,2.08,2.532,4.344,4.141,6.222c1.723,2.011,3.39,2.139,6.382,0.899c6.993-2.896,14.5-4.576,21.849-6.563
		c0.823-0.223,2.655,0.553,2.853,1.213c1.054,3.534,3.89,4.027,6.831,4.844c7.419,2.057,11.447,7.751,14.194,14.387
		c1.187,2.865,2.459,3.695,5.548,2.993c12.347-2.81,22.495,2.146,31.656,9.749c0.855,0.711,1.19,3.576,0.518,4.338
		c-2.942,3.332-5.836,7.451-9.683,9.092c-9.229,3.936-18.96,6.721-28.568,9.713c-0.98,0.306-2.45-1.482-3.79-1.699
		c-2.844-0.458-5.749-0.661-8.634-0.713c-4.932-0.09-9.882,0.232-14.793-0.088c-1.509-0.098-2.918-1.727-4.372-2.654
		c-0.034-0.729-0.068-1.457-0.103-2.186c-2.399,1.405-5.081,2.486-7.146,4.277c-6.741,5.846-13.257,11.952-19.858,17.958
		c-0.479-0.39-0.958-0.779-1.438-1.169c3.781-6.855,7.563-13.711,11.572-20.98c-5.1-4.744-10.397-9.672-15.694-14.6
		c0.104-0.361,0.208-0.724,0.313-1.086c3.006,0.776,6.092,1.332,8.997,2.385c3.436,1.244,6.682,2.999,10.069,4.387
		c8.67,3.552,10.227,3.143,16.432-4.216c-2.622-1.751-6.402-2.143-6.859-6.528c-0.125-1.194-3.573-1.951-5.391-3.078
		c-2.914-1.811-5.756-3.74-8.589-5.673c-0.531-0.362-1.099-0.907-1.293-1.487c-1.714-5.117-1.629-4.994-6.803-2.563
		c-5.325,2.503-10.787,4.716-16.189,7.056C354.113,148.378,353.772,147.823,353.432,147.268z"/>
	<path fill-rule="evenodd" clip-rule="evenodd" d="M579.034,187.294c-1.727,1.456-3.706,2.702-5.134,4.409
		c-4.208,5.036-8.197,10.256-12.272,15.403c-0.501-0.284-1.003-0.567-1.505-0.851c0.982-3.195,1.964-6.393,3.204-10.429
		c-3.873,0.896-7.265,1.749-10.688,2.449c-3.056,0.625-6.139,1.139-9.229,1.568c-0.761,0.106-2.165-0.104-2.306-0.508
		c-1.834-5.256-6.09-2.945-9.619-3.55c-3.991-0.685-9.052,0.324-10.846-5.837c-0.745-2.558-3.705-1.169-5.544,0.757
		c-4.899,5.131-9.947,10.121-14.937,15.166c-0.505-0.367-1.011-0.734-1.516-1.102c2.628-5.197,5.443-10.313,7.771-15.641
		c0.707-1.618,0.725-4.169-0.077-5.698c-2.534-4.833-5.605-9.386-7.971-14.866c2.297,1.384,4.69,2.633,6.868,4.184
		c2.979,2.121,5.665,4.667,8.715,6.666c2.803,1.838,4.712,1.934,7.776-1.348c5.571-5.965,12.69-10.483,19.164-15.605
		c0.17,0.685,0.339,1.368,0.509,2.053c3.459,0.57,6.922,1.637,10.377,1.613c8.44-0.06,14.437,4.26,19.848,9.988
		c4.941,5.23,4.441,4.765,8.907-0.302c4.796-5.442,10.66-9.952,16.146-14.769c0.607-0.533,2.337-0.867,2.619-0.527
		c3.061,3.699,6.782,1.66,10.247,1.313c10.91-1.094,18.139,5.216,24.812,12.428c0.747,0.808,0.716,3.426-0.024,4.327
		c-3.104,3.784-6.129,7.959-10.104,10.614c-4.453,2.977-9.771,4.91-14.967,6.426c-2.795,0.816-6.443,2.665-9.129-1.712
		c-0.716-1.166-4.65-0.258-7.091-0.487c-3.728-0.35-7.481-0.67-11.133-1.438c-0.927-0.195-1.51-2.031-2.251-3.112
		C579.449,188.35,579.242,187.823,579.034,187.294z"/>
	<path fill-rule="evenodd" clip-rule="evenodd" d="M41.207,37.885c-5.18,4.953-10.281,9.834-15.384,14.715
		c-0.435-0.311-0.871-0.62-1.305-0.93c2.061-4.343,4.121-8.686,6.227-13.119c-2.566-2.209-7.775-0.166-8.128-5.317
		c-1.456,0.763-3.355,1.173-4.288,2.351c-3.395,4.287-6.439,8.848-9.684,13.257c-0.533,0.724-1.402,1.201-2.924,1.365
		c1.435-4.698,2.65-9.48,4.394-14.062c0.954-2.504,0.911-4.209-1.001-6.196C5.789,26.493,2.736,22.774,0,18.206
		c2.949,1.297,5.928,2.534,8.84,3.912c2.1,0.992,4.047,2.323,6.176,3.234c3.23,1.383,5.069,0.848,7.461-2.67
		c3.795-5.584,9.246-10.045,14.053-14.928c0.398-0.405,1.531-0.76,1.785-0.534c4.043,3.606,8.221,0.479,12.322,0.356
		c6.567-0.195,11.648,3.23,16.798,6.707c1.909,1.289,4.386,2.469,6.597,2.457c10.355-0.055,16.218,6.687,21.724,13.911
		c0.695,0.911,0.45,3.572-0.382,4.429c-2.962,3.049-5.981,6.482-9.7,8.248c-4.859,2.307-10.346,3.488-15.686,4.505
		c-2.456,0.468-5.883,1.665-7.374-2.565c-0.312-0.881-3.036-1.442-4.554-1.277C51.295,44.727,45.911,42,41.207,37.885z"/>
	<path fill-rule="evenodd" clip-rule="evenodd" d="M121.72,214.36c2.503-5.143,5.005-10.286,7.696-15.819
		c-4.394-3.795-8.836-7.632-13.278-11.469c0.171-0.349,0.341-0.697,0.511-1.045c4.658,1.559,9.355,3.01,13.963,4.705
		c5.506,2.025,10.514,3.771,14.605-2.926c1.799-2.945,5.433-4.771,8.168-7.05c-2.162-2.128-4.268-4.198-7.283-7.165
		c-4.547,3.469-9.974,7.607-15.4,11.746c-0.402-0.373-0.806-0.746-1.209-1.119c2.158-3.408,4.08-7,6.551-10.164
		c1.934-2.478,2.089-4.557,0.643-7.223c-1.797-3.315-3.299-6.791-4.929-10.198c0.301-0.32,0.601-0.642,0.901-0.962
		c2.135,1.793,4.289,3.563,6.398,5.385c1.879,1.623,3.494,3.734,5.638,4.799c1.271,0.631,3.603,0.112,5.005-0.686
		c5.453-3.102,10.707-6.551,16.086-9.786c0.637-0.384,2.07-0.614,2.319-0.29c2.923,3.807,7.341,2.262,11.022,3.285
		c7.081,1.97,11.51,7.225,14.729,13.323c0.832,1.576-0.785,4.444-1.412,7.344c-0.261-0.45-0.167-0.071,0.073,0.094
		c7.315,4.999,7.872,8.169,0.175,12.903c-7.219,4.439-15.623,6.964-23.546,10.234c-0.835,0.344-1.949,0.111-2.919,0.01
		c-2.94-0.31-5.898-1.109-8.805-0.943c-5.055,0.289-10.276,2.707-14.49-2.547c-0.312-0.389-3.844,1.1-5.23,2.405
		c-4.906,4.62-9.53,9.539-14.262,14.345C122.867,215.151,122.293,214.757,121.72,214.36z"/>
	<path fill-rule="evenodd" clip-rule="evenodd" d="M235.263,127.324c-2.519,1.555-5.216,2.885-7.523,4.707
		c-6.403,5.058-12.646,10.319-18.95,15.501c-0.499-0.479-0.998-0.956-1.496-1.435c3.893-6.241,7.784-12.483,11.982-19.216
		c-5.102-4.941-10.42-10.094-15.738-15.244c0.179-0.405,0.357-0.811,0.537-1.215c2.508,0.763,5.112,1.304,7.505,2.336
		c4.88,2.105,9.571,4.656,14.479,6.684c4.215,1.74,7.426,1.744,11.762-2.08c6.857-6.05,15.53-10.053,23.497-14.817
		c0.718-0.43,2.285-0.528,2.782-0.062c3.278,3.076,7,2.103,10.767,1.621c11.299-1.446,20.39,3.279,28.629,10.372
		c2.09,1.8,3.137,3.573,0.482,5.647c-4.009,3.133-7.68,7.087-12.204,9.078c-6.594,2.902-13.743,4.697-20.807,6.295
		c-2.967,0.67-6.684,2.688-9.443-1.885c-0.746-1.238-5.016-0.307-7.663-0.451c-4.892-0.27-9.802-0.428-14.657-1.021
		c-1.236-0.15-2.296-1.76-3.437-2.699C235.599,128.735,235.431,128.029,235.263,127.324z"/>
	<path fill-rule="evenodd" clip-rule="evenodd" d="M288.951,77.676c3.768-6.045,7.536-12.088,11.83-18.976
		c-5.02-4.542-10.383-9.396-15.746-14.249c0.409-0.626,0.818-1.252,1.229-1.877c3.672,1.418,7.374,2.762,11.007,4.271
		c4.444,1.849,8.749,4.063,13.27,5.684c2.878,1.031,4.899-0.223,7.656-2.352c7.692-5.941,16.4-10.571,24.743-15.659
		c0.474-0.288,1.575-0.321,1.879,0.003c3.646,3.88,7.998,1.951,12.174,1.635c10.731-0.811,19.263,4,27.103,10.629
		c2.187,1.851,2.19,3.869,0.209,5.475c-4.082,3.311-8.049,7.137-12.742,9.227c-6.134,2.73-12.869,4.221-19.456,5.773
		c-3.179,0.75-6.841,2.86-9.64-1.766c-0.667-1.104-4.397-0.422-6.72-0.439c-5.882-0.041-11.764-0.014-17.459-0.014
		c-0.744-5.352-3.259-6.279-6.715-3.424c-3.841,3.176-7.311,6.805-11.186,9.934c-3.293,2.658-6.932,4.887-10.418,7.305
		C289.63,78.462,289.291,78.069,288.951,77.676z"/>
	<path fill-rule="evenodd" clip-rule="evenodd" d="M212.852,58.372c-1.785-1.328-3.841-2.413-5.305-4.03
		c-4.614-5.098-9.006-10.393-13.482-15.613c-0.539,0.344-1.077,0.688-1.616,1.031c2.062,5.098,3.761,10.385,6.302,15.229
		c1.876,3.578,1.174,6.085-1.068,8.933c-3.048,3.873-5.865,7.925-8.096,12.838c2.398-1.264,4.863-2.417,7.183-3.814
		c3.269-1.972,6.331-4.303,9.666-6.145c2.973-1.644,4.747-1.414,7.567,2.002c5.082,6.154,11.936,10.857,18.148,16.05
		c0.53,0.446,2.287,0.398,2.626-0.056c2.631-3.508,5.969-1.867,9.133-1.488c8.634,1.036,22.388-6.044,26.108-13.689
		c0.537-1.104,0.435-3.091-0.234-4.097c-1.911-2.87-3.729-6.528-6.55-7.923c-7.477-3.694-15.405-6.524-23.302-9.278
		c-1.35-0.47-4.752-2.024-5.209,2.297c-0.063,0.595-4.49,0.802-6.911,1.053c-3.416,0.354-6.933,0.219-10.231,1.014
		c-1.729,0.417-3.088,2.371-4.613,3.632C212.928,57.001,212.889,57.686,212.852,58.372z"/>
	<path fill-rule="evenodd" clip-rule="evenodd" d="M530.184,255.153c-2.073,1.145-4.37,2.014-6.176,3.484
		c-5.068,4.127-9.934,8.504-14.879,12.783c-0.468-0.404-0.935-0.811-1.401-1.215c2.814-4.73,5.322-9.684,8.556-14.107
		c2.036-2.785,1.904-4.887,0.389-7.607c-2.499-4.488-4.783-9.096-7.881-15.041c2.981,1.893,5.038,2.928,6.77,4.357
		c2.688,2.221,5.09,4.785,7.732,7.064c4.363,3.764,5.479,3.041,9.952-0.402c5.88-4.529,12.538-8.055,18.935-11.889
		c0.672-0.402,2.458-0.311,2.677,0.105c2.242,4.252,6.158,3.02,9.672,3.227c10.806,0.639,16.534,8.283,21.816,16.268
		c0.693,1.047,0.155,3.922-0.842,4.887c-3.054,2.957-6.244,6.334-10.056,7.813c-5.606,2.178-11.748,3.199-17.756,4.023
		c-2.863,0.395-6.799,1.545-8.126-3.453c-0.25-0.941-3.574-1.09-5.49-1.557c-3.488-0.854-7.092-1.387-10.428-2.639
		c-1.447-0.543-2.351-2.533-3.502-3.867C530.158,256.644,530.171,255.899,530.184,255.153z"/>
	<path fill-rule="evenodd" clip-rule="evenodd" d="M82.041,83.362c-7.422,3.401-14.844,6.803-22.266,10.205
		c-0.313-0.416-0.625-0.832-0.938-1.248c3.75-3.734,7.694-7.301,11.149-11.289c1.224-1.414,1.961-3.957,1.7-5.813
		c-0.688-4.882-2.046-9.669-2.23-15.065c2.059,2.646,4.17,5.256,6.161,7.953c1.577,2.136,2.838,4.524,4.551,6.535
		c1.819,2.138,3.493,2.614,6.739,1.052c6.659-3.204,13.944-5.116,21.007-7.45c0.616-0.203,2.049,0.244,2.177,0.668
		c1.347,4.475,5.513,4.173,8.777,5.38c9.308,3.44,12.895,11.456,15.644,19.974c0.337,1.042-0.877,3.432-1.96,3.937
		c-4.266,1.991-8.648,4.165-13.215,4.958c-4.488,0.781-9.344,0.473-13.865-0.331c-2.768-0.492-7.326,0.597-7.608-4.919
		c-0.054-1.078-3.103-2.076-4.839-2.98c-2.62-1.363-5.586-2.248-7.857-4.034c-1.602-1.26-2.297-3.674-3.397-5.573
		C81.861,84.667,81.951,84.014,82.041,83.362z"/>
	<path fill-rule="evenodd" clip-rule="evenodd" d="M72.889,264.81c2.489-5.184,4.979-10.365,7.646-15.922
		c-4.31-3.607-8.705-7.287-13.102-10.967c0.136-0.318,0.271-0.637,0.406-0.957c2.646,0.65,5.328,1.18,7.928,1.98
		c3.658,1.125,7.18,2.932,10.904,3.516c2.215,0.346,5.165-0.484,6.996-1.846c6.234-4.633,12.104-9.754,18.156-14.633
		c0.604-0.486,1.819-1.074,2.235-0.809c4.74,3.035,9.369,0.068,14.014-0.164c7.233-0.361,13.396,2.398,19.02,6.418
		c1.035,0.738,1.613,3.875,0.92,4.934c-1.779,2.713-3.984,5.664-6.755,7.104c-6.304,3.277-12.987,5.873-19.661,8.354
		c-1.549,0.576-3.676-0.6-5.545-0.648c-2.762-0.072-5.54,0.041-8.297,0.26c-4.735,0.379-9.625,2.402-13.686-2.324
		c-0.392-0.455-4.175,1.127-5.562,2.559c-4.686,4.84-9.001,10.037-13.458,15.098C74.328,266.11,73.608,265.46,72.889,264.81z"/>
	<path fill-rule="evenodd" clip-rule="evenodd" d="M111.316,150.106c0.39-4.078,0.674-8.17,1.203-12.231
		c0.412-3.162,0.213-5.626-3.051-7.53c-3.533-2.061-6.613-4.9-9.684-8.408c2.557,0.536,5.134,0.99,7.664,1.631
		c2.889,0.733,5.697,1.852,8.616,2.394c2.395,0.444,3.787-0.289,5.098-3.149c2.734-5.973,6.646-11.413,10.187-17.001
		c0.442-0.698,1.905-1.575,2.313-1.343c3.793,2.15,6.619-0.658,9.809-1.642c8.303-2.562,15.357,0.844,22.072,5.063
		c0.932,0.586,1.464,3.186,0.988,4.373c-1.396,3.486-2.778,7.332-5.305,9.929c-3.647,3.748-8.121,6.808-12.612,9.558
		c-1.587,0.971-4.274,0.005-6.427,0.227c-2.268,0.234-4.506,0.787-6.738,1.279c-3.85,0.847-7.723,2.918-11.35-0.87
		c-0.261-0.272-3.385,1.198-4.002,2.441c-2.549,5.14-4.645,10.505-6.906,15.787C112.566,150.444,111.941,150.276,111.316,150.106z"
		/>
	<path fill-rule="evenodd" clip-rule="evenodd" d="M136.364,29.75c1.904-2.854,3.78-5.729,5.722-8.558
		c1.391-2.025,2.799-2.537,5.408-1.291c3.85,1.84,8.494,4.534,12.123,3.746c5.99-1.302,12.795-3.079,16.199-9.267
		c1.668-3.029,3.982-7.415,2.924-9.846c-1.752-4.022-6.813-4.768-11.344-4.479c-2.648,0.168-5.32,0.27-7.92,0.737
		c-1.549,0.278-3.097,1.027-4.439,1.886c-1.996,1.276-3.865,2.773-5.69,4.293c-2.352,1.957-4.606,4.03-7.679,6.737
		c-3.28-1.468-7.849-3.511-12.418-5.556c-0.506,0.37-1.014,0.74-1.521,1.109c7.902,5.033,12.077,11.256,6.58,20.561
		C134.994,29.798,135.679,29.774,136.364,29.75z"/>
	<path fill-rule="evenodd" clip-rule="evenodd" d="M206.629,231.925c-2.293,1.33-5.935,3.439-9.576,5.551
		c-0.432-0.244-0.862-0.488-1.293-0.732c5.839-4.971,9.096-10.537,4.066-18.016c0.496-0.025,0.992-0.053,1.487-0.08
		c1.757,2.127,3.27,4.555,5.368,6.26c1.111,0.904,3.418,1.109,4.878,0.652c3.298-1.031,6.316-2.953,9.61-3.998
		c5.694-1.811,18.705,7.553,18.849,13.514c0.024,1.029-1.052,2.336-1.968,3.092c-5.221,4.307-14.398,4.143-20.311-0.189
		c-0.519-0.379-1.223-0.492-1.795-0.811C213.15,235.614,210.371,234.036,206.629,231.925z"/>
	<path fill-rule="evenodd" clip-rule="evenodd" d="M34.991,261.952c1.667-10.279,1.667-10.279-3.95-19.424
		c3.311,1.945,5.617,3.363,7.982,4.67c2.214,1.225,3.982,1.576,5.839-1.143c1.737-2.543,4.305-4.613,6.78-6.539
		c4.497-3.498,19.721,0.395,21.441,5.773c0.553,1.727-0.887,5.309-2.484,6.277c-4.988,3.023-9.73,7.396-16.717,4.055
		c-3.176-1.518-7.262-1.135-11.984-1.75C40.264,255.786,37.627,258.868,34.991,261.952z"/>
	<path fill-rule="evenodd" clip-rule="evenodd" d="M323.187,258.261c3.537-6.635,3.845-12.582-3.712-16.854
		c0.373-0.287,0.745-0.574,1.117-0.861c2.129,0.939,4.288,1.816,6.379,2.834c2.726,1.324,4.674,1.574,6.398-1.838
		c1.297-2.568,3.732-4.648,5.925-6.658c4.316-3.953,19.758-1.176,21.696,4.15c0.584,1.605-0.629,4.963-2.095,6.012
		c-4.698,3.363-8.904,8.182-16.128,5.605c-3.201-1.143-7.609,2.445-10.527-2.844c-2.754,3.979-5.137,7.42-7.52,10.861
		C324.21,258.532,323.697,258.396,323.187,258.261z"/>
	<path fill-rule="evenodd" clip-rule="evenodd" d="M297.311,159.304c4.394-4.498,9.101-7.18,15.234-4.771
		c0.915,0.357,2.097,0.477,2.688,1.131c1.716,1.893,3.195,4.002,4.767,6.025c-2.149,1.598-4.081,3.791-6.492,4.676
		c-6.264,2.299-11.538-1.004-17.17-3.77c-1.636,1.375-3.57,3-5.218,4.385c0.315-4.068,0.615-7.938,0.903-11.648
		C293.19,156.208,294.974,157.548,297.311,159.304z"/>
	<path fill-rule="evenodd" clip-rule="evenodd" d="M355.525,256.462c-0.329,5.648-4.094,9.344-8.103,12.34
		c-2.9,2.166-6.851,2.893-10.229,4.48c-0.856,0.402-1.52,1.559-1.919,2.516c-0.813,1.941-1.386,3.984-3.136,5.953
		c-0.24-1.945-0.479-3.893-0.75-6.086c-1.872-0.615-3.845-1.264-5.949-1.955c0.34-0.289,0.466-0.488,0.594-0.49
		c6.748-0.1,9.706-4.113,11.917-10.07C340.108,257.331,348.904,254.392,355.525,256.462z"/>
	<path fill-rule="evenodd" clip-rule="evenodd" d="M258.354,253.528c-1.25,1.102-2.601,2.289-4.064,3.578
		c0.142-3.215,0.271-6.174,0.41-9.354c0.916,0.563,2.441,1.496,4.081,2.502c3.614-2.049,6.181-6.156,11.406-4.473
		c3.638,1.17,7.28,1.982,7.604,6.43c0.166,2.264-6.957,5.414-10.215,4.559C264.602,255.987,261.748,254.743,258.354,253.528z"/>
	<path fill-rule="evenodd" clip-rule="evenodd" d="M281.119,253.825c2.664-0.18,5.355-0.641,7.975-0.375
		c0.849,0.086,1.504,2.078,2.248,3.199c-1.151,0.439-2.42,1.426-3.43,1.207c-2.42-0.521-4.719-1.609-7.066-2.469
		C280.938,254.866,281.028,254.347,281.119,253.825z"/>
</g>
</svg>
