<?xml version="1.0" encoding="utf-8"?>
<!-- Generator: Adobe Illustrator 16.0.0, SVG Export Plug-In . SVG Version: 6.00 Build 0)  -->
<!DOCTYPE svg PUBLIC "-//W3C//DTD SVG 1.1//EN" "http://www.w3.org/Graphics/SVG/1.1/DTD/svg11.dtd">
<svg version="1.1" id="圖層_1" xmlns="http://www.w3.org/2000/svg" xmlns:xlink="http://www.w3.org/1999/xlink" x="0px" y="0px"
	 width="177.851px" height="122.077px" viewBox="0 0 177.851 122.077" enable-background="new 0 0 177.851 122.077"
	 xml:space="preserve">
<g>
	<path fill-rule="evenodd" clip-rule="evenodd" d="M172.96,24.758c-0.029-0.361,0.08-0.851-0.113-1.056
		c-0.427-0.453-1.06-0.588-1.625-0.225c-0.607,0.393-1.019,0.982-0.788,1.737c0.207,0.679,0.43,1.384,1.291,1.612
		c1.885,0.5,3.553-0.349,4.51-1.924c0.248-0.406,0.254-1.065,0.146-1.559c-0.161-0.737-0.392-1.429-0.869-2.126
		c-1.057-1.535-2.569-2.181-4.152-2.82c-0.956-0.389-1.944-0.716-2.884-1.143c-1.304-0.592-2.109-1.686-2.655-2.961
		c-0.9-2.104-1.993-4.14-3.601-5.724c-0.903-0.889-1.973-1.969-3.628-1.8c-0.581,0.058-1.159-0.206-1.7,0.278
		c-0.123,0.111-0.476-0.031-0.724-0.058c-0.613-0.065-0.967,0.191-1.041,0.82c-0.104,0.913,0.043,1.854-0.596,2.694
		c-0.2,0.262-0.078,0.941,0.12,1.307c0.547,1.007,0.343,1.94-0.008,2.924c-0.121,0.335-0.067,0.733-0.094,1.101
		c0.424-0.097,0.875-0.133,1.262-0.311c0.219-0.104,0.434-0.417,0.481-0.668c0.189-0.994,0.739-1.76,1.396-2.484
		c0.164-0.179,0.29-0.425,0.349-0.66c0.128-0.514,0.403-0.813,0.95-0.769c0.648,0.051,0.633,0.579,0.641,1.017
		c0.03,1.838,0.531,3.54,1.318,5.193c0.595,1.253,1.61,1.867,2.859,2.195c2.066,0.542,4.154,1.01,6.21,1.589
		c0.86,0.243,1.736,0.578,2.466,1.078c0.597,0.41,1.105,1.063,1.435,1.719c0.295,0.587-0.101,1.248-0.664,1.486
		c-0.429,0.182-1.007,0.031-1.513-0.031c-0.053-0.007-0.097-0.441-0.049-0.656c0.014-0.063,0.372-0.109,0.547-0.062
		c0.172,0.047,0.31,0.221,0.463,0.341C172.786,24.793,172.873,24.777,172.96,24.758z"/>
	<path fill-rule="evenodd" clip-rule="evenodd" d="M44.441,116.389c-0.543-0.567-1.491-1.1-1.543-1.711
		c-0.117-1.346,0.582-2.566,1.99-2.953c1.515-0.416,3.063-0.224,3.949,1.241c0.798,1.319,1.617,2.698,0.737,4.425
		c-1.921,3.769-5.708,5.238-9.644,4.504c-1.017-0.188-2.09-1.133-2.732-2.022c-0.959-1.329-1.742-2.7-2.176-4.483
		c-0.954-3.932,0.194-7.313,1.447-10.799c0.76-2.113,1.662-4.18,2.332-6.32c0.928-2.965,0.327-5.853-0.944-8.58
		c-2.097-4.504-3.812-9.221-4.043-14.113c-0.129-2.748-0.325-6.043,2.342-8.475c0.937-0.854,1.347-2.174,2.913-2.346
		c0.359-0.039,0.637-0.816,0.953-1.254c0.783-1.086,1.71-1.29,2.835-0.495c1.628,1.151,2.937,2.753,5.22,2.934
		c0.715,0.056,1.633,1.237,1.937,2.089c0.836,2.344,2.642,3.363,4.741,4.221c0.717,0.291,1.283,0.953,1.918,1.443
		c-0.77,0.547-1.482,1.223-2.33,1.588c-0.486,0.209-1.303,0.1-1.777-0.186c-1.883-1.135-3.918-1.352-6.039-1.34
		c-0.527,0.003-1.106-0.145-1.573-0.393c-1.017-0.539-1.899-0.527-2.62,0.422c-0.854,1.123,0.021,1.861,0.719,2.508
		c2.928,2.713,4.954,5.986,6.491,9.654c1.163,2.776,0.683,5.307-0.594,7.8c-2.114,4.13-4.382,8.185-6.423,12.349
		c-0.853,1.74-1.577,3.646-1.826,5.546c-0.204,1.561,0.117,3.328,0.7,4.81c0.524,1.328,2.166,1.645,3.364,1.078
		c0.914-0.432,1.512-1.584,2.139-2.49c0.065-0.096-0.572-0.798-0.988-1.031c-0.123-0.068-0.717,0.445-0.891,0.795
		c-0.174,0.348-0.091,0.822-0.121,1.242C44.75,116.16,44.596,116.273,44.441,116.389z"/>
	<path fill-rule="evenodd" clip-rule="evenodd" d="M7.761,64.875c-0.029-0.785-0.387-1.812-0.021-2.305
		c0.805-1.084,2.137-1.536,3.448-0.892c1.409,0.692,2.442,1.862,2.134,3.545c-0.275,1.518-0.575,3.093-2.378,3.803
		c-3.936,1.55-7.747,0.142-10.208-3.015c-0.636-0.815-0.814-2.233-0.706-3.326c0.163-1.63,0.484-3.175,1.342-4.8
		c1.89-3.576,4.99-5.348,8.238-7.128c1.969-1.08,4.015-2.03,5.935-3.188c2.659-1.606,4.123-4.167,4.978-7.053
		c1.414-4.763,3.256-9.431,6.323-13.248c1.724-2.145,3.76-4.743,7.369-4.796c1.267-0.02,2.448-0.737,3.736,0.173
		c0.294,0.208,1.019-0.19,1.546-0.309c1.305-0.294,2.134,0.167,2.45,1.508c0.456,1.941,0.375,4.007,1.966,5.655
		c0.498,0.516,0.403,2.008,0.067,2.848c-0.928,2.31-0.252,4.271,0.754,6.302c0.343,0.695,0.329,1.565,0.479,2.353
		c-0.938-0.102-1.92-0.068-2.798-0.355c-0.503-0.166-1.04-0.788-1.208-1.316c-0.658-2.097-2.038-3.608-3.635-5.005
		c-0.396-0.347-0.733-0.842-0.918-1.337c-0.405-1.078-1.073-1.653-2.242-1.419c-1.384,0.275-1.218,1.408-1.123,2.354
		c0.396,3.971-0.256,7.766-1.535,11.532c-0.969,2.851-3.006,4.428-5.613,5.448c-4.32,1.693-8.704,3.227-12.992,4.993
		c-1.791,0.739-3.598,1.686-5.042,2.944c-1.188,1.035-2.118,2.571-2.663,4.067c-0.487,1.341,0.533,2.666,1.807,3.036
		c0.969,0.283,2.181-0.184,3.251-0.448c0.112-0.028,0.101-0.977-0.058-1.427c-0.047-0.133-0.832-0.142-1.193,0.004
		c-0.359,0.146-0.613,0.557-0.914,0.851C8.144,64.907,7.953,64.891,7.761,64.875z"/>
	<path fill-rule="evenodd" clip-rule="evenodd" d="M108.729,29.758c-0.186-0.409-0.599-0.877-0.511-1.217
		c0.19-0.752,0.8-1.281,1.636-1.224c0.899,0.062,1.701,0.459,1.904,1.42c0.183,0.865,0.365,1.767-0.438,2.535
		c-1.754,1.677-4.081,1.757-6.073,0.615c-0.516-0.295-0.918-1.009-1.098-1.612c-0.268-0.901-0.433-1.791-0.33-2.839
		c0.228-2.309,1.489-3.923,2.826-5.574c0.812-1.001,1.691-1.95,2.459-2.982c1.063-1.43,1.284-3.107,1.111-4.826
		c-0.282-2.835-0.32-5.714,0.48-8.408c0.45-1.513,0.968-3.333,2.872-4.146c0.668-0.286,1.14-0.923,2.021-0.718
		c0.202,0.045,0.499-0.323,0.754-0.5c0.629-0.44,1.17-0.374,1.628,0.268c0.664,0.932,1.07,2.046,2.272,2.577
		c0.376,0.165,0.649,0.978,0.653,1.497c0.009,1.426,0.794,2.322,1.769,3.183c0.334,0.294,0.515,0.759,0.767,1.146
		c-0.521,0.15-1.035,0.38-1.563,0.417c-0.303,0.021-0.725-0.191-0.928-0.437c-0.804-0.97-1.864-1.473-3.017-1.867
		c-0.286-0.099-0.57-0.289-0.778-0.511c-0.447-0.484-0.928-0.645-1.498-0.267c-0.675,0.446-0.341,1.011-0.085,1.493
		c1.072,2.023,1.551,4.179,1.689,6.456c0.104,1.725-0.635,3.003-1.798,4.112c-1.926,1.836-3.921,3.604-5.814,5.473
		c-0.79,0.78-1.542,1.676-2.038,2.658c-0.406,0.806-0.565,1.825-0.53,2.737c0.032,0.818,0.862,1.3,1.618,1.22
		c0.576-0.06,1.117-0.571,1.63-0.944c0.053-0.04-0.159-0.54-0.341-0.744c-0.054-0.061-0.473,0.105-0.634,0.26
		c-0.158,0.156-0.203,0.428-0.3,0.651C108.938,29.692,108.835,29.727,108.729,29.758z"/>
	<path fill-rule="evenodd" clip-rule="evenodd" d="M169.55,92.251c0.242-0.747,0.868-1.637,0.649-2.211
		c-0.477-1.263-1.634-2.063-3.072-1.801c-1.544,0.279-2.856,1.122-3.021,2.827c-0.148,1.534-0.292,3.132,1.248,4.308
		c3.362,2.566,7.413,2.254,10.644-0.11c0.835-0.61,1.394-1.925,1.588-3.005c0.29-1.613,0.403-3.188,0.022-4.984
		c-0.839-3.955-3.339-6.51-5.977-9.109c-1.598-1.578-3.307-3.049-4.835-4.689c-2.119-2.271-2.828-5.135-2.86-8.146
		c-0.057-4.966-0.552-9.961-2.46-14.472c-1.071-2.535-2.32-5.588-5.777-6.628c-1.213-0.365-2.153-1.376-3.64-0.854
		c-0.343,0.119-0.929-0.462-1.404-0.719c-1.175-0.64-2.098-0.423-2.77,0.78c-0.969,1.743-1.455,3.753-3.438,4.904
		c-0.619,0.359-0.937,1.821-0.841,2.721c0.26,2.474-0.928,4.175-2.449,5.855c-0.52,0.573-0.745,1.414-1.104,2.132
		c0.929,0.16,1.864,0.459,2.786,0.423c0.529-0.021,1.217-0.472,1.521-0.935c1.207-1.838,2.947-2.915,4.867-3.821
		c0.476-0.226,0.934-0.61,1.247-1.035c0.685-0.926,1.485-1.297,2.546-0.753c1.255,0.644,0.784,1.687,0.437,2.572
		c-1.468,3.712-1.877,7.541-1.677,11.511c0.151,3.006,1.679,5.082,3.91,6.777c3.691,2.808,7.49,5.483,11.131,8.354
		c1.521,1.2,2.999,2.605,4.045,4.211c0.859,1.318,1.334,3.053,1.45,4.639c0.103,1.424-1.243,2.42-2.567,2.427
		c-1.01,0.009-2.048-0.772-3.006-1.319c-0.1-0.059,0.172-0.967,0.445-1.357c0.081-0.113,0.839,0.092,1.146,0.33
		c0.308,0.24,0.438,0.703,0.647,1.068C169.173,92.177,169.36,92.214,169.55,92.251z"/>
</g>
</svg>
