<?xml version="1.0" encoding="utf-8"?>
<!-- Generator: Adobe Illustrator 16.0.0, SVG Export Plug-In . SVG Version: 6.00 Build 0)  -->
<!DOCTYPE svg PUBLIC "-//W3C//DTD SVG 1.1//EN" "http://www.w3.org/Graphics/SVG/1.1/DTD/svg11.dtd">
<svg version="1.1" id="圖層_1" xmlns="http://www.w3.org/2000/svg" xmlns:xlink="http://www.w3.org/1999/xlink" x="0px" y="0px"
	 width="391.039px" height="229.844px" viewBox="0 0 391.039 229.844" enable-background="new 0 0 391.039 229.844"
	 xml:space="preserve">
<g>
	<path fill-rule="evenodd" clip-rule="evenodd" d="M168.915,0c-2.633,5.121-4.037,10.129,1.293,14.629
		c-2.962-1.064-6.231-3.432-8.8-2.826c-2.543,0.6-4.327,4.249-6.536,6.468c-3.382,3.395-16.011,2.12-19.219-3.228
		c-0.614-1.025-0.459-2.98,0.093-4.152c1.812-3.852,10.409-7.252,14.654-6.303c3.521,0.787,7.119,1.229,11.591,1.973
		c1.182-1.574,3.053-4.067,4.924-6.561C167.582,0,168.248,0,168.915,0z"/>
	<path fill-rule="evenodd" clip-rule="evenodd" d="M252.767,167.396c0.247-5.229,0.494-10.456,0.775-16.4
		c-1.728,0.166-3.411,0.289-5.083,0.498c-3.608,0.451-7.206,1.26-10.816,1.314c-2.328,0.035-5.01,0.658-6.45-3.115
		c-0.549-1.438-5.414-1.208-8.305-1.772c-5.489-1.071-11.01-2.021-16.429-3.38c-1.08-0.271-1.761-2.141-2.626-3.272
		c0.134-0.672,0.268-1.344,0.401-2.017c-2.794,0.865-5.897,1.221-8.321,2.695c-6.367,3.87-12.438,8.228-18.906,12.578
		c2.772,7.219-2.52,11.999-7.85,14.943c-6.968,3.848-14.967,5.892-22.64,8.347c-1.682,0.538-4.46,1.447-5.234-2.414
		c-0.172-0.856-4.771-0.856-7.34-1.192c-3.559-0.466-7.17-0.66-10.67-1.395c-2.022-0.426-4.835-1.074-1.271-5.427
		c-0.78-0.023-1.56-0.047-2.339-0.07c-1.792,1.263-3.88,2.257-5.32,3.839c-4.779,5.253-9.325,10.717-13.961,16.1
		c-0.548-0.332-1.097-0.664-1.645-0.996c2.285-5.48,4.379-11.055,6.938-16.405c1.232-2.578,1.347-4.425-0.476-6.755
		c-3.468-4.436-6.616-9.121-10.479-14.516c1.896,0.594,3.136,0.742,4.108,1.33c3.407,2.061,6.733,4.256,10.071,6.428
		c7.513,4.885,7.163,4.557,13.262-1.729c4.83-4.977,10.594-9.063,16.069-13.383c0.843-0.666,3.081-1.044,3.465-0.572
		c2.846,3.498,6.373,1.41,9.654,1.785c4.975,0.566,9.944,1.959,14.662,3.693c2.679,0.984,4.853,3.346,7.354,5.16
		c4.381-5.051,8.605-9.924,13.047-15.045c-4.873-6.396-9.692-12.723-14.512-19.047c0.14-0.305,0.279-0.608,0.418-0.912
		c3.365,1.658,6.838,3.132,10.07,5.018c4.449,2.597,8.575,5.771,13.107,8.196c3.737,2.001,6.765,2.443,11.488-0.645
		c8.622-5.636,18.812-8.88,28.383-13.042c0.622-0.271,1.959-0.143,2.262,0.291c3.041,4.352,7.685,2.839,11.782,3.526
		c5.987,1.005,11.902,2.442,17.566,3.636c4.75-7.41,9.778-15.217,14.76-23.053c1.486-2.338,3.182-3.32,6.21-2.785
		c1.779,0.314,4.223-0.596,5.747-1.765c11.009-8.444,23.106-9.224,36.034-5.896c2.819,0.725,3.909,2.141,2.884,4.527
		c-2.27,5.279-4.053,11.107-7.607,15.414c-5.226,6.334-11.663,11.723-17.936,17.105c-1.925,1.652-4.37,5.186-7.892,1.561
		c-0.369-0.381-2.248,0.35-3.192,0.939c-5.949,3.712-11.872,7.469-17.716,11.343c-2.211,1.466-3.953,4.142-6.313,4.786
		c-7.659,2.096-10.823,7.842-13.5,14.433c-1.112,2.738-2.976,5.171-4.497,7.743C253.563,167.55,253.164,167.473,252.767,167.396z"/>
	<path fill-rule="evenodd" clip-rule="evenodd" d="M358.373,133.749c10.045-5.16,19.354-2.518,28.718,1.048
		c3.244,1.236,4.597,3.356,3.655,6.521c-1.123,3.777-1.898,8.066-4.252,10.98c-4.218,5.226-9.33,9.791-14.438,14.203
		c-1.741,1.504-4.063,4.574-7.33,0.889c-0.662-0.748-4.412,1.273-6.753,1.971c-3.757,1.12-7.511,2.254-11.302,3.249
		c-0.688,0.181-1.72-0.046-2.295-0.48c-3.523-2.658-4.296-2.345-5.538,1.958c-1.701,5.891-3.56,11.736-5.427,17.576
		c-0.285,0.891-0.983,1.65-2.188,3.6c-0.379-5.458-0.677-9.754-1.063-15.327c-0.998,2.044-1.389,2.847-2.049,4.197
		c-1.465-4.245-2.824-7.942-4.014-11.692c-1.596-5.033-5.338-7.838-10.644-7.651c-3.643,0.128-7.28,0.4-11.44-0.134
		c2.434-1.428,4.794-3.006,7.319-4.25c4.173-2.055,8.512-3.773,12.666-5.861c3.181-1.6,4.027-3.945,4.184-7.936
		c0.329-8.381,2.308-16.701,3.738-25.024c0.133-0.769,1.167-1.944,1.822-1.972c4.32-0.175,5.554-3.816,7.413-6.539
		c5.771-8.445,14.462-11.389,23.881-12.722c1.086-0.153,3.749,2.543,3.656,3.763c-0.425,5.537-1.115,11.148-2.604,16.482
		C362.814,125.158,360.325,129.379,358.373,133.749z M340.089,152.4c-1.915,0.924-4.454,3.023-5.407,2.456
		c-4.086-2.433-3.943,1.237-4.499,2.944c-0.563,1.731-0.124,3.79-0.124,5.586C337.195,164.691,337.195,164.691,340.089,152.4z"/>
	<path fill-rule="evenodd" clip-rule="evenodd" d="M42.868,212.746c-3.65-1.553-6.522-0.18-9.604,1.991
		c-7.416,5.224-15.081,10.094-22.646,15.106c-0.526-0.551-1.054-1.102-1.58-1.652c4.962-6.334,9.925-12.67,15.204-19.41
		c-4.867-6.143-9.784-12.346-14.701-18.551c0.151-0.322,0.302-0.646,0.453-0.969c3.961,1.973,7.988,3.823,11.863,5.951
		c4.074,2.238,7.894,4.958,12.028,7.066c3.738,1.905,6.566,1.785,10.938-1.164c8.548-5.77,18.612-9.303,28.104-13.641
		c0.708-0.324,2.291-0.016,2.731,0.563c3.099,4.055,7.438,2.93,11.466,2.934c12.509,0.012,21.72,6.438,29.465,15.392
		c0.789,0.911,0.276,4.077-0.734,5.231c-5.659,6.457-13.388,9.037-21.581,10.268c-6.688,1.004-13.421,1.799-20.163,2.259
		c-1.258,0.085-5.277,1.884-4.086-2.719c-2.905-0.506-5.81-1.014-8.715-1.518c-5.678-0.983-11.376-1.868-17.011-3.055
		c-0.842-0.177-1.385-1.772-2.066-2.712C42.445,213.66,42.657,213.203,42.868,212.746z"/>
	<path fill-rule="evenodd" clip-rule="evenodd" d="M22.48,122.007c-5.542-0.304-7.097,5.127-10.547,7.811
		c-3.641,2.831-7.108,5.884-10.651,8.841c-0.428-0.296-0.854-0.591-1.282-0.887c2.741-5.045,5.214-10.266,8.328-15.069
		c1.726-2.663,1.72-4.63,0.181-7.173c-2.898-4.787-5.595-9.697-7.714-15.373c2.977,2.148,5.996,4.241,8.917,6.464
		c2.247,1.71,4.267,3.729,6.572,5.349c3.105,2.182,5.133,2.417,8.612-1.094c5.391-5.441,12.51-9.193,19.025-13.465
		c0.797-0.521,2.435,0.008,3.604,0.332c2.361,0.655,4.69,2.219,6.997,2.154c12.292-0.346,19.479,7.245,25.778,16.172
		c0.7,0.991,0.462,3.493-0.336,4.527c-2.104,2.729-4.331,6.26-7.268,7.273c-8.202,2.832-16.761,4.672-25.25,6.585
		c-1.333,0.3-3.964,0.884-4.242-2.583c-0.066-0.83-4.203-1.426-6.508-1.963c-3.499-0.814-7.146-1.164-10.501-2.354
		c-1.594-0.566-2.661-2.615-3.968-3.993C22.313,123.043,22.397,122.525,22.48,122.007z"/>
	<path fill-rule="evenodd" clip-rule="evenodd" d="M235.764,35.457c0.409,3.598,0.544,7.259,1.361,10.761
		c0.332,1.423,1.962,3.253,3.324,3.589c3.622,0.891,7.419,1.07,11.37,2.555c-4.211,1.174-8.384,2.522-12.645,3.476
		c-4.441,0.993-7.01,2.666-7.67,7.983c-0.658,5.309-3.404,10.377-5.408,15.481c-0.373,0.95-1.44,1.823-2.4,2.315
		c-8.137,4.168-14.646,12.498-25.313,10.165c-1.027-0.225-2.576-1.939-2.471-2.785c0.428-3.398,0.852-7.001,2.326-10.015
		c1.949-3.98,4.612-7.709,7.501-11.091c1.533-1.795,4.23-2.566,6.327-3.917c1.651-1.064,3.264-2.219,4.759-3.49
		c3.17-2.698,5.813-6.223,10.966-5.006c0.587,0.139,2.446-3.053,2.924-4.904c1.302-5.044,2.179-10.197,3.224-15.308
		C234.548,35.33,235.155,35.394,235.764,35.457z"/>
	<path fill-rule="evenodd" clip-rule="evenodd" d="M115.08,30.201c-0.108,0.572-0.419,2.215-0.678,3.58
		c-1.351,0.117-2.915,0.098-4.398,0.432c-1.227,0.277-2.547,1.626-3.495,1.353c-2.246-0.647-4.36-1.876-6.365-3.13
		c-0.346-0.217-0.076-2.43,0.228-2.51c2.308-0.607,4.706-1.288,7.052-1.211C109.985,28.799,112.522,29.67,115.08,30.201z"/>
</g>
</svg>
