<?xml version="1.0" encoding="utf-8"?>
<!-- Generator: Adobe Illustrator 16.0.0, SVG Export Plug-In . SVG Version: 6.00 Build 0)  -->
<!DOCTYPE svg PUBLIC "-//W3C//DTD SVG 1.1//EN" "http://www.w3.org/Graphics/SVG/1.1/DTD/svg11.dtd">
<svg version="1.1" id="圖層_1" xmlns="http://www.w3.org/2000/svg" xmlns:xlink="http://www.w3.org/1999/xlink" x="0px" y="0px"
	 width="405.643px" height="173.55px" viewBox="0 0 405.643 173.55" enable-background="new 0 0 405.643 173.55"
	 xml:space="preserve">
<path fill-rule="evenodd" clip-rule="evenodd" d="M214.254,61.299c10.499,3.708,20.918,6.913,31.378,9.992
	c9.733,2.864,19.489,5.629,29.447,7.654c2.524,0.514,4.335,0.172,6.23-1.697c4.018-3.964,6.502-3.401,9.049,1.737
	c0.537,1.084,1.046,2.206,1.374,3.365c0.493,1.745,1.698,2.45,3.343,2.736c16.894,2.937,32.418,0.322,44.196-13.063
	c16.063-18.255,37.377-26.751,59.636-33.813c0.525-0.167,1.065-0.3,1.609-0.387c1.908-0.303,4.015-0.54,4.903,1.585
	c0.878,2.099-1.022,3.139-2.422,4.175c-1.949,1.445-3.975,2.787-5.929,4.228c-1.544,1.137-2.729,2.594-3.29,4.453
	c-0.703,2.321-1.128,4.031-4.561,4.387c-1.98,0.206-5.178,3.168-5.604,6.06c-0.335,2.266-1.178,3.547-2.771,4.847
	c-11.937,9.737-18.631,22.581-22.029,37.365c-0.647,2.813-0.194,5.231,2.153,7.143c1.334,1.087,2.074,2.508,2.246,4.27
	c0.461,4.705,2.691,8.494,5.933,11.88c3.277,3.424,6.328,7.067,9.413,10.671c1.179,1.377,3.038,2.807,1.78,4.858
	c-1.356,2.213-3.692,1.572-5.713,1.049c-8.342-2.16-15.798-6.162-22.73-11.191c-7.767-5.633-15.209-11.722-23.445-16.693
	c-8.263-4.987-17.165-5.05-26.286-3.368c-1.517,0.279-2.573,0.961-2.966,2.646c-0.553,2.38-2.349,2.941-4.349,2.032
	c-4.43-2.013-8.785-1.218-13.254-0.229c-6.566,1.452-13.162,2.8-19.785,3.962c-2.465,0.432-3.273,1.516-3.334,3.934
	c-0.115,4.606-0.037,9.063,3.224,12.806c0.687,0.787,1.741,1.693,1.081,2.891c-0.803,1.459-2.338,1.026-3.594,0.853
	c-8.59-1.191-15.618-5.412-21.203-11.83c-2.115-2.432-4.054-3.054-7.09-2.546c-12.745,2.127-25.638,2.69-38.523,3.272
	c-7.27,0.327-14.54,0.62-21.804,1.047c-4.599,0.271-4.975,0.842-4.671,5.417c0.686,10.3,3.58,19.906,8.714,28.882
	c1.127,1.972,3.926,4.299,2.217,6.281c-1.415,1.643-4.231-0.573-6.358-1.243c-15.974-5.034-27.795-15.388-36.985-29.077
	c-2.152-3.206-4.458-6.313-6.524-9.572c-1.244-1.961-2.891-2.798-5.125-3.108c-24.563-3.413-49.137-6.764-73.53-11.277
	c-2.811-0.521-5.565-1.359-8.332-2.104c-4.203-1.133-7.633-3.391-9.98-7.121c-1.141-1.813-2.713-2.629-4.857-2.948
	c-9.584-1.431-16.959-7.06-24.172-12.979c-1.765-1.448-0.779-2.352,0.396-3.386c5.362-4.723,11.52-8.188,18.016-10.996
	c26.426-11.422,53.655-20.379,82.183-24.62c13.387-1.99,26.982-2.612,40.497-3.677c4.438-0.349,8.727-1.196,12.955-2.468
	c4.117-1.236,6.991-3.717,8.881-7.759c5.166-11.044,11.566-21.339,19.878-30.341c5.047-5.467,11.463-8.468,18.604-10.131
	c1.765-0.412,2.387-0.027,2.104,1.957c-2.12,14.874,1.361,29.158,4.868,43.401c1.006,4.088,3.055,7.815,5.971,10.948
	C218.333,59.698,218.361,59.671,214.254,61.299z"/>
</svg>
