<?xml version="1.0" encoding="utf-8"?>
<!-- Generator: Adobe Illustrator 16.0.0, SVG Export Plug-In . SVG Version: 6.00 Build 0)  -->
<!DOCTYPE svg PUBLIC "-//W3C//DTD SVG 1.1//EN" "http://www.w3.org/Graphics/SVG/1.1/DTD/svg11.dtd">
<svg version="1.1" id="圖層_1" xmlns="http://www.w3.org/2000/svg" xmlns:xlink="http://www.w3.org/1999/xlink" x="0px" y="0px"
	 width="280.094px" height="251.124px" viewBox="0 0 280.094 251.124" enable-background="new 0 0 280.094 251.124"
	 xml:space="preserve">
<path fill-rule="evenodd" clip-rule="evenodd" d="M114.879,189.677c-1.557,2.57-3.504,4.985-4.597,7.739
	c-3.352,8.439-8.989,15.132-15.632,21.021c-4.106,3.64-9.419,3.435-12.615,0.064c-3.993-4.211-4.324-10.365-0.654-14.433
	c1.238-1.372,2.67-2.618,4.18-3.686c4.483-3.173,8.422-1.356,9.152,4.131c0.581,4.363-2.438,8.47-7.009,8.76
	c0.678-0.881,1.233-1.401,1.541-2.041c0.908-1.885,2.125-3.748,2.462-5.747c0.415-2.453-1.75-3.81-3.76-2.408
	c-3.521,2.455-5.624,5.601-3.985,10.273c0.783,2.229,2.718,2.554,4.29,1.508c2.422-1.609,5.205-3.361,6.555-5.769
	c3.75-6.686,6.75-13.786,10.216-20.637c3.309-6.537,6.673-13.056,10.31-19.413c3.171-5.544,6.768-10.843,10.143-16.271
	c0.479-0.771,0.77-1.661,1.147-2.495c-0.169-0.178-0.338-0.355-0.508-0.533c-2.112,1.821-4.197,3.676-6.344,5.456
	c-5.441,4.514-10.932,8.969-16.365,13.493c-13.295,11.069-25.209,23.396-34.81,37.881c-3.32,5.009-6.178,10.15-7.51,16.068
	c-0.219,0.973-1.01,1.817-1.536,2.722c-0.324-0.068-0.648-0.136-0.973-0.204c0.021-1.86-0.399-3.863,0.147-5.553
	c1.534-4.744,3.005-9.606,5.34-13.973c4.287-8.016,9.077-15.771,13.839-23.523c5.69-9.262,13.722-16.595,20.727-24.777
	c2.458-2.871,4.363-6.208,6.688-9.204c2.55-3.289,5.127-6.586,7.992-9.595c3.953-4.152,7.35-8.62,9.599-13.913
	c0.216-0.507,0.341-1.063,0.431-1.61c0.039-0.237-0.116-0.507-0.316-1.27c-1.527,0.851-2.91,1.608-4.28,2.387
	c-7.739,4.403-15.955,8-22.333,14.579c-9.717,10.022-19.98,19.533-29.389,29.83c-6.998,7.659-13.368,15.999-17.775,25.533
	c-1.303,2.819-1.798,6.018-2.606,9.058c-0.393,1.478-0.654,2.99-0.975,4.487c-0.38,0.043-0.759,0.085-1.139,0.127
	c-0.25-1.132-0.82-2.299-0.699-3.391c0.855-7.748,3.128-15.11,6.511-22.119c4.51-9.342,10.651-17.612,16.778-25.933
	c3.541-4.809,6.17-10.288,9.674-16.255c-5.595,1.084-10.266,2.164-14.992,2.852c-4.106,0.598-8.273,0.95-12.42,1.02
	c-2.033,0.033-3.084,0.301-3.834,2.437c-2.963,8.44-7.856,15.68-15.117,20.945c-2.421,1.756-5.709,2.638-8.726,3.098
	c-1.337,0.204-3.525-1.313-4.319-2.647c-0.633-1.063,0.13-3.073,0.558-4.583c0.143-0.506,1.162-0.763,2.396-1.502
	c-0.296,1.581-0.555,2.367-0.557,3.154c-0.002,0.658,0.103,1.662,0.51,1.893c0.597,0.338,1.777,0.46,2.244,0.089
	c7.017-5.576,14.061-11.166,16.681-20.352c0.099-0.348,0.083-0.73,0.116-1.064c-0.188-0.157-0.329-0.375-0.465-0.373
	c-9.854,0.171-19.738,0.12-29.109,3.896c-4.345,1.751-7.72,4.444-8.919,9.294c-1.235-1.455-1.125-2.488,0.467-4.77
	c3.292-4.718,7.709-8.112,13.015-10.135c8.158-3.109,16.718-4.417,25.417-4.67c1.897-0.055,2.754-0.648,3.342-2.456
	c2.507-7.713,5.62-15.145,10.247-21.898c5.489-8.011,12.156-14.99,20.114-20.345c11.01-7.409,22.306-14.508,34.024-20.711
	c8.725-4.619,18.281-7.687,27.526-11.294c7.779-3.035,15.57-6.077,23.493-8.7c7.703-2.551,15.651-4.091,23.857-3.814
	c1.383,0.047,2.855,0.014,4.139-0.419c1.1-0.371,2.414-1.156,2.892-2.125c1.685-3.406,4.383-5.608,7.407-7.75
	c2.368-1.676,4.625-3.835,6.196-6.256c8.343-12.85,19.016-22.772,33.802-27.636c7.954-2.617,15.965-5.088,24.472-5.221
	c13.139-0.205,22.877,15.043,17.186,26.854c-6.292,13.053-14.4,24.617-27.16,32.086c-4.28,2.507-8.993,4.505-13.75,5.914
	c-7.065,2.091-12.742,5.495-16.893,11.828c-3.27,4.987-7.96,8.222-14.554,7.679c-1.334-0.11-3.028,1.085-4.125,2.131
	c-0.851,0.812-1.38,2.308-1.451,3.534c-0.521,8.974-4.377,16.735-8.144,24.677c-4.614,9.731-8.388,19.858-12.58,29.791
	c-3.145,7.45-6.528,14.802-9.522,22.31c-2.692,6.753-3.687,13.825-2.81,21.11c0.493,4.093,2.494,6.939,6.506,8.186
	c3.996,1.241,7.71,0.711,10.375-2.667c2.922-3.704,5.837-7.503,8.068-11.632c1.393-2.579,1.574-5.833,2.178-8.809
	c0.267-1.316-0.167-3.25,1.848-3.048c1.18,0.118,3.006,1.227,3.215,2.181c0.563,2.575,0.751,5.34,0.482,7.967
	c-0.579,5.658-3.627,10.266-7.065,14.601c-3.374,4.252-7.19,8.019-12.32,10.123c-7.718,3.165-16.658,2.649-21.146-5.517
	c-2.079-3.782-3.809-7.294-3.583-11.725c0.106-2.084-0.693-4.216-1.083-6.326c-0.325-0.008-0.651-0.015-0.978-0.023
	c-0.427,1.349-0.926,2.68-1.271,4.05c-2.252,8.948-4.847,17.766-9.203,25.975c-2.424,4.569-5.72,8.177-10.447,10.44
	c-3.522,1.687-5.888,1.352-8.518-1.443c-2.693-2.861-3.396-6.292-1.073-9.086c1.961-2.36,4.537-4.367,7.189-5.941
	c1.937-1.149,4.121-1.655,4.556-4.318c0.056-0.345,0.742-0.588,1.41-1.08c0.448,2.533-0.504,4.104-2.159,5.27
	c-1.821,1.284-4.023,2.147-5.548,3.697c-1.397,1.42-2.669,3.413-3.008,5.329c-0.596,3.37,1.783,5.169,4.748,3.514
	c2.225-1.243,3.9-3.523,5.691-5.462c0.598-0.647,0.967-1.632,1.143-2.522c1.621-8.193,3.017-16.435,4.798-24.593
	c1.52-6.956,3.262-13.879,5.284-20.706c1.475-4.979,3.667-9.742,5.34-14.668c0.947-2.787-0.119-4.429-2.933-4.714
	c-0.938-0.096-2.118,0.44-2.919,1.044c-5.607,4.231-9.256,10.128-11.683,16.418c-4.345,11.261-8.03,22.791-11.631,34.32
	c-3.479,11.139-7.342,22.036-13.912,31.82c-1.199,1.786-1.741,4.065-2.347,6.185c-1.472,5.157-2.784,10.36-4.229,15.526
	c-0.106,0.379-0.864,0.923-1.134,0.834c-0.493-0.164-1.215-0.764-1.195-1.148c0.086-1.656,0.397-3.302,0.644-4.948
	c0.504-3.372,0.791-6.798,1.597-10.097c0.761-3.116,1.799-6.231,3.195-9.115c4.907-10.136,8.077-20.784,9.871-31.863
	c0.207-1.281-0.089-2.644-0.152-3.969C115.659,189.875,115.269,189.776,114.879,189.677z M50.833,135.046
	c0.189,0.333,0.379,0.665,0.568,0.998c4.749-0.9,9.541-1.621,14.235-2.753c4.675-1.127,9.356-2.394,13.838-4.112
	c3.884-1.488,8.426-1.689,11.292-5.497c1.87-2.483,4.034-4.764,6.218-6.986c5.257-5.348,10.635-10.577,15.896-15.921
	c1.924-1.956,3.654-4.103,5.435-6.122c-3.704,0.743-7.148,1.375-10.562,2.144c-1.52,0.343-2.947,1.098-4.469,1.417
	c-1.751,0.367-3.705,0.098-5.317,0.74c-4.757,1.895-8.958,4.921-14.06,6.262c-4.757,1.25-8.352,5.481-13.569,5.967
	c-0.474,0.044-0.951,0.572-1.337,0.965c-2.591,2.633-5.433,5.079-7.672,7.987C57.624,124.946,54.311,130.06,50.833,135.046z"/>
</svg>
