<?xml version="1.0" encoding="utf-8"?>
<!-- Generator: Adobe Illustrator 16.0.0, SVG Export Plug-In . SVG Version: 6.00 Build 0)  -->
<!DOCTYPE svg PUBLIC "-//W3C//DTD SVG 1.1//EN" "http://www.w3.org/Graphics/SVG/1.1/DTD/svg11.dtd">
<svg version="1.1" id="圖層_1" xmlns="http://www.w3.org/2000/svg" xmlns:xlink="http://www.w3.org/1999/xlink" x="0px" y="0px"
	 width="400.208px" height="130.566px" viewBox="0 0 400.208 130.566" enable-background="new 0 0 400.208 130.566"
	 xml:space="preserve">
<g>
	<path fill-rule="evenodd" clip-rule="evenodd" d="M231.061,72.334c-0.847,3.658-2.118,7.287-2.355,10.983
		c-0.113,1.753,1.281,4.434,2.796,5.317c6.901,4.024,14.212,3.857,21.64,1.144c4.005-1.463,8.247-2.3,12.193-3.888
		c1.169-0.47,1.556-2.651,2.551-3.838c1.512-1.798,3.16-3.503,4.9-5.083c2.901-2.631,5.956-5.093,8.861-7.721
		c0.536-0.485,0.966-1.43,0.938-2.143c-0.189-4.74,0.357-5.055,5.137-3.569c6.533,2.03,13.13,3.85,19.701,5.761
		c0.264-0.645,0.528-1.288,0.793-1.932c-4.445-2.995-8.738-6.26-13.391-8.889c-3.048-1.722-4.218-3.653-3.885-7.123
		c0.5-5.222,0.542-10.489,0.777-15.737c-0.402-0.137-0.806-0.273-1.209-0.41c-2.266,4.861-4.563,9.708-6.791,14.586
		c-3.087,6.759-3.415,6.401-10.57,4.711c-6.738-1.59-13.8-1.864-20.739-2.502c-1.062-0.097-3.081,0.814-3.213,1.526
		c-1.018,5.509-6.169,5.23-10.593,8.301c0.896-6.114,1.629-11.101,2.359-16.086c-0.317-0.204-0.635-0.408-0.953-0.612
		c-2.217,3.463-4.472,6.901-6.634,10.398c-1.222,1.975-2.149,4.141-3.458,6.05c-1.948,2.84-3.69,3.612-7.748,1.998
		c-7.307-2.907-15.33-4.024-23.079-5.784c-0.633-0.144-2.007,0.405-2.096,0.831c-1.103,5.222-6.005,5.058-9.488,6.916
		c-9.12,4.861-12.206,13.647-14.425,22.848c-0.248,1.026,0.902,3.063,1.939,3.604c3.5,1.825,7.264,4.514,10.885,4.452
		c7.682-0.132,15.372-1.595,22.971-2.99c1.483-0.271,5.514-0.424,3.622-4.645c-0.189-0.422,3.679-2.677,5.679-4.06
		c2.952-2.042,6.057-3.897,8.791-6.197c0.82-0.691,0.439-2.669,0.946-3.92c0.446-1.101,1.366-2.009,2.076-3.002
		C230.346,71.864,230.703,72.1,231.061,72.334z"/>
	<path fill-rule="evenodd" clip-rule="evenodd" d="M363.731,75.333c2.468-3.074,5.634-2.658,9.06-2.059
		c8.896,1.558,17.836,2.878,26.757,4.292c0.221-0.705,0.44-1.41,0.66-2.115c-7.036-3.663-14.071-7.324-21.51-11.195
		c1.848-7.486,3.726-15.089,5.603-22.692c-0.318-0.215-0.639-0.429-0.958-0.644c-2.784,3.559-5.652,7.057-8.325,10.698
		c-2.263,3.08-4.207,6.392-6.456,9.483c-3.003,4.126-6.116,5.532-12.066,4.481c-9.51-1.679-19.489-0.748-29.269-0.77
		c-0.969-0.002-2.554,0.842-2.807,1.629c-1.553,4.847-5.912,5.984-9.774,7.671c-11.238,4.909-16.401,14.561-19.768,25.458
		c-0.356,1.155,1.55,4.095,2.909,4.493c4.093,1.197,8.615,2.665,12.638,2.004c9.431-1.55,18.72-4.089,27.943-6.666
		c2.147-0.601,5.282-1.069,5.005-5.414c-0.098-1.532,4.373-3.41,6.819-5.039c4.377-2.917,8.895-5.636,13.133-8.739
		c0.964-0.706,1.027-2.643,1.505-4.014C364.464,75.908,364.098,75.621,363.731,75.333z"/>
	<path fill-rule="evenodd" clip-rule="evenodd" d="M178.582,104.177c-4.729-3.208-9.334-6.622-14.237-9.538
		c-2.502-1.488-3.389-3.03-3.286-5.939c0.194-5.452-0.151-10.924-0.271-16.361c-1.383,2.578-3.096,5.566-4.607,8.652
		c-1.094,2.234-1.859,4.626-2.884,6.898c-1.867,4.135-3.845,5.478-9.158,3.671c-6.926-2.354-14.689-2.274-22.108-3.099
		c-0.797-0.089-2.409,0.718-2.442,1.194c-0.335,4.78-4.469,5.239-7.53,6.899c-7.04,3.82-14.193,17.057-13.18,24.893
		c0.156,1.21,1.367,2.919,2.449,3.261c4.214,1.333,8.635,3.259,12.862,3.006c6.185-0.369,12.351-2.141,18.36-3.883
		c2.781-0.805,6.264-1.626,5.82-6.391c-0.116-1.249,3.358-2.789,5.126-4.263c2.769-2.31,5.547-4.614,8.187-7.066
		c0.641-0.594,1.092-1.766,1.061-2.65c-0.162-4.557,0.365-4.87,4.854-3.523c6.035,1.811,12.154,3.351,18.225,5.046
		c0.811,0.226,1.557,0.688,2.331,1.04C178.295,105.407,178.439,104.792,178.582,104.177z"/>
	<path fill-rule="evenodd" clip-rule="evenodd" d="M36.213,102.989c1.792-0.508,3.601-1.145,5.461-1.523
		c3.942-0.805,7.99-1.209,11.825-2.347c1.319-0.392,2.518-2.324,3.112-3.815c1.752-4.398,3.176-8.93,4.728-13.408
		c0.474,0.092,0.947,0.186,1.421,0.277c0,4.322,0,8.645,0,13.125c4.567,1.252,8.657,2.373,12.748,3.494
		c-0.005,0.349-0.011,0.697-0.016,1.047c-4.521,0.621-9.04,1.248-13.562,1.861c-3.193,0.434-4.977,1.648-6.052,5.291
		c-1.481,5.018-4.465,9.607-6.968,14.294c-0.487,0.912-1.618,1.71-2.629,2.078c-7.994,2.915-15.071,9.667-24.56,6.269
		c-1.075-0.385-2.418-3.084-2.017-3.998c1.705-3.881,3.931-7.547,6.158-11.174c0.888-1.445,2.271-2.586,4.021-4.518
		c-2.181,0-3.278-0.047-4.37,0.008c-3.604,0.184-8.657,2.005-10.534,0.305c-5.244-4.752-13.186-7.13-14.606-15.828
		c-0.917-5.62-0.495-8.428,5.27-8.781c5.931-0.363,12.407,0.236,17.853,2.406c4.442,1.77,7.839,6.354,11.424,9.963
		C35.837,98.937,35.712,100.894,36.213,102.989z"/>
	<path fill-rule="evenodd" clip-rule="evenodd" d="M104.947,50.941c5.49-5.245,10.98-10.489,16.472-15.734
		c0.484,0.334,0.969,0.668,1.453,1.001c-2.206,4.323-4.223,8.758-6.694,12.923c-1.376,2.32-1.496,4.037,0.043,6.284
		c2.605,3.806,4.903,7.821,6.709,12.63c-2.364-1.57-4.771-3.081-7.081-4.727c-2.298-1.637-4.372-3.619-6.776-5.063
		c-2.408-1.446-4.101-1.235-6.628,1.317c-4.726,4.771-10.642,8.373-16.127,12.372c-0.554,0.403-2.028,0.541-2.279,0.206
		c-2.81-3.753-6.622-1.694-10.06-1.998c-8.713-0.768-14.342-6.43-19.181-12.953c-0.7-0.944-0.519-3.555,0.294-4.426
		c2.778-2.979,5.645-6.268,9.178-8.047c4.344-2.188,9.321-3.425,14.164-4.183c2.406-0.376,6.163-2.724,7.837,2.222
		c0.324,0.957,3.93,0.811,6.022,1.162c2.573,0.432,5.289,0.484,7.674,1.402c1.717,0.66,2.991,2.469,4.463,3.765
		C104.603,49.71,104.775,50.325,104.947,50.941z"/>
	<path fill-rule="evenodd" clip-rule="evenodd" d="M261.142,16.343C266.36,10.535,271.094,5.268,275.826,0
		c0.409,0.23,0.817,0.461,1.227,0.691c-1.564,3.99-2.877,8.105-4.777,11.929c-1.391,2.796-1.179,4.818,0.778,7.179
		c2.629,3.17,4.927,6.615,6.788,10.832c-3.846-2.37-7.745-4.66-11.523-7.134c-3.67-2.402-5.991-2.969-9.174,1.658
		c-3.179,4.622-8.509,7.767-12.919,11.532c-0.354,0.303-0.968,0.656-1.327,0.548c-9.228-2.786-20.154,0.065-27.51-9.233
		c-2.837-3.587-3.661-6.025-0.518-9.249c1.948-1.998,3.822-4.372,6.231-5.552c4.422-2.165,9.155-3.77,13.881-5.208
		c2.26-0.688,4.841-1.997,6.852,1.526c0.62,1.086,4.295,0.422,6.569,0.574C254.534,10.37,259.189,9.545,261.142,16.343z"/>
</g>
</svg>
