<?xml version="1.0" encoding="utf-8"?>
<!-- Generator: Adobe Illustrator 16.0.0, SVG Export Plug-In . SVG Version: 6.00 Build 0)  -->
<!DOCTYPE svg PUBLIC "-//W3C//DTD SVG 1.1//EN" "http://www.w3.org/Graphics/SVG/1.1/DTD/svg11.dtd">
<svg version="1.1" id="圖層_1" xmlns="http://www.w3.org/2000/svg" xmlns:xlink="http://www.w3.org/1999/xlink" x="0px" y="0px"
	 width="471px" height="293px" viewBox="0 0 471 293" enable-background="new 0 0 471 293" xml:space="preserve">
<path fill-rule="evenodd" clip-rule="evenodd" d="M370.646,223.91c-3.287,2.375-5.734,5.18-8.773,6.164
	c-14.084,4.559-28.289,8.758-42.537,12.78c-6.043,1.705-12.342,2.498-18.418,4.105c-1.174,0.311-2.23,2.365-2.699,3.822
	c-2.762,8.602-5.209,17.307-8.066,25.873c-0.637,1.91-2.195,3.875-3.881,4.957c-1.344,0.865-4.611,1.209-5.16,0.445
	c-4.014-5.588-8.277-11.193-11.047-17.422c-2.896-6.514-0.855-9.461,5.936-11.844c1.006-0.352,2.037-0.633,2.951-1.543
	c-5.021,0-10.043-0.002-15.064,0c-10.395,0.006-20.795,0.234-31.18-0.076c-4.961-0.148-8.867-0.639-12.709,4.395
	c-4.68,6.135-11.063,11.184-17.408,15.725c-2.561,1.83-7.033,1.619-10.514,1.24c-1.535-0.168-3.926-3.059-3.943-4.736
	c-0.082-7.086,0.689-14.178,0.871-21.275c0.029-1.17-1.111-3.195-2.066-3.439c-10.9-2.779-21.764-6.211-32.866-7.498
	c-5.811-0.674-12.267,2.014-18.084,4.135c-8.035,2.932-15.701,6.863-23.625,10.121c-1.628,0.67-3.698,0.266-5.564,0.357
	c0.112-1.734-0.163-3.609,0.403-5.18c2.519-6.982,5.309-13.868,7.925-20.815c0.456-1.211,0.895-2.597,0.753-3.835
	c-0.731-6.417-1.706-12.806-2.464-19.221c-0.149-1.263,0.282-2.593,0.445-3.892c1.133,0.405,2.508,0.529,3.357,1.263
	c6.527,5.644,13.827,9.897,21.861,13.04c10.422,4.076,34.002,6.584,42.715,4.284c0-0.453,0.211-1.142-0.031-1.39
	c-5.047-5.182-2.201-8.791,2.115-12.521c2.967-2.563,5.607-5.572,8.063-8.646c3.131-3.922,6.629-3.948,10.516-1.586
	c3.951,2.4,7.781,5,11.727,7.412c2.227,1.362,4.484,2.746,6.887,3.734c6.096,2.506,8.68,0.721,8.986-6.035
	c0.1-2.156-0.021-4.322,0.047-6.482c0.209-6.712,2.541-9.784,8.84-11.879c1.021-0.34,2.02-0.854,2.914-1.457
	c2.023-1.367,3.785-3.547,5.992-4.143c6.99-1.888,12.066-7.561,19.117-9.193c4.344-1.008,8.658-2.148,12.996-3.182
	c0.627-0.148,1.596,0.258,1.938-0.074c4.494-4.383,9.652-1.572,13.021,0.498c3.334,2.048,5.432,6.881,6.941,10.914
	c1.598,4.271,2.271,9.012,2.582,13.6c0.264,3.866,1.896,5.587,5.438,6.555c12.543,3.426,25.201,6.558,37.477,10.787
	c6.758,2.327,12.92,6.48,19.145,10.162c1.15,0.682,2.264,3.959,1.766,4.482C365.406,220.395,367.719,221.866,370.646,223.91z"/>
<path fill-rule="evenodd" clip-rule="evenodd" d="M16.496,134.472c1.051-1.722,1.958-3.553,3.176-5.147
	c5.866-7.688,11.854-15.284,17.722-22.972c3.049-3.994,3.438-8.576,0.627-12.563c-5.678-8.055-11.858-15.755-17.861-23.578
	c-1.257-1.637-2.644-3.174-3.97-4.756c0.244-0.454,0.488-0.908,0.732-1.361c1.614,0.596,3.49,0.848,4.803,1.842
	C32.86,74.38,43.981,82.849,54.891,91.58c2.477,1.982,4.537,2.625,7.619,1.926c8.709-1.975,17.497-3.6,26.256-5.354
	c0.323-0.064,0.749,0.084,0.985-0.075c7.687-5.188,15.516-10.196,22.813-15.886c0.858-0.669-1.066-5.162-1.998-7.777
	c-0.596-1.671-1.738-3.146-2.635-4.711c2.094-0.006,4.56-0.742,6.218,0.104c8.087,4.124,16.025,8.557,23.882,13.111
	c4.9,2.84,9.237,2.619,13.841-0.721c3.178-2.305,6.729-4.167,10.289-5.859c9.978-4.742,17.466,0.449,24.613,6.549
	c1.373,1.172,2.861,2.441,3.678,3.991c3.006,5.717,8.461,6.006,13.855,7.019c9.879,1.854,19.715,3.99,29.473,6.393
	c1.678,0.412,3.486,2.489,4.182,4.22c1.346,3.356,1.273,6.546-3.254,7.99c-10.049,3.206-20.004,6.708-30.039,9.962
	c-4.541,1.473-9.236,2.482-13.744,4.039c-1.389,0.48-2.416,2.053-3.564,3.168c-2.016,1.953-3.793,4.223-6.041,5.844
	c-3.072,2.217-5.803,1.086-6.436-2.668c-0.514-3.061-1.654-3.414-4.684-3.195c-8.96,0.648-17.969,0.777-26.96,0.816
	c-3.603,0.016-5.872,1.268-8.423,3.951c-4.518,4.755-9.787,8.867-15.115,12.734c-1.452,1.055-4.566,0.936-6.272,0.076
	c-0.918-0.463-1.099-3.859-0.512-5.549c1.469-4.222,1.499-7.355-3.637-8.611c-0.617-0.15-1.375-0.502-1.69-1
	c-4.482-7.071-12.264-6.063-18.915-7.734c-7.202-1.811-14.482-3.309-21.682-5.133c-4.989-1.266-9.362-2.143-12.925,3.33
	C49.008,120.302,28.813,132.017,16.496,134.472z"/>
<path fill-rule="evenodd" clip-rule="evenodd" d="M282.107,83.958c3.521-4.709,6.844-9.582,10.602-14.096
	c8.754-10.516,8.766-12.112-0.984-21.445c-3.697-3.538-7.469-7.002-11.045-10.657c-0.916-0.937-1.221-2.472-1.807-3.731
	c1.432-0.324,3.006-1.205,4.273-0.885c8.301,2.1,14.75,7.325,20.297,13.465c7.822,8.658,11.688,9.145,21.701,3.029
	c9.707-5.929,19.799-11.234,29.791-16.686c4.326-2.36,4.699-3.447,1.447-7.446c-2.066-2.541-4.596-4.745-6.398-7.447
	c-0.908-1.363-0.666-3.497-0.943-5.282c1.498,0.107,3.238-0.238,4.445,0.408c3.771,2.018,7.543,4.145,10.934,6.729
	c3.674,2.802,7.141,5.364,12.104,3.663c0.912-0.313,2.027-0.369,2.975-0.18c5.732,1.148,8.738-1.027,10.807-6.668
	c2.512-6.848,6.492-7.047,11.27-1.449c0.316,0.373,0.816,0.685,0.945,1.111c2.615,8.756,9.221,9.641,17.074,9.477
	c13.424-0.281,23.666,6.096,31.51,16.735c2.631,3.569,5.377,7.067,8.271,10.425c1.76,2.041,3.918,3.727,2.311,6.85
	c-0.162,0.314,0.027,0.926,0.234,1.297c3.176,5.684,3.066,5.492-2.428,8.941c-10.65,6.688-22.652,7.016-34.553,7.395
	c-5.477,0.175-9.473,0.896-11.381,6.957c-0.994,3.162-3.539,5.993-5.885,8.504c-1.119,1.197-3.859,2.226-5.053,1.649
	c-1.316-0.636-2.152-3.14-2.391-4.938c-0.383-2.882-0.102-5.853-0.102-9.331c-10.229,1.034-19.803,1.854-29.318,3.115
	c-1.545,0.205-2.896,2.303-4.227,3.637c-3.715,3.73-7.266,7.633-11.121,11.209c-1.084,1.004-2.98,1.488-4.535,1.559
	c-3.994,0.184-5.088-1.626-3.156-5.206c1.643-3.047,3.695-5.87,5.418-8.877c1.76-3.068,1.572-5.161-2.322-6.874
	c-9.484-4.17-18.863-8.63-28.018-13.478c-6.361-3.368-11.531-1.753-16.432,2.42c-5.404,4.603-10.545,9.518-15.979,14.086
	c-2.018,1.695-4.537,2.792-6.828,4.162C283.111,85.389,282.609,84.673,282.107,83.958z"/>
</svg>
