<?xml version="1.0" encoding="utf-8"?>
<!-- Generator: Adobe Illustrator 16.0.0, SVG Export Plug-In . SVG Version: 6.00 Build 0)  -->
<!DOCTYPE svg PUBLIC "-//W3C//DTD SVG 1.1//EN" "http://www.w3.org/Graphics/SVG/1.1/DTD/svg11.dtd">
<svg version="1.1" id="圖層_1" xmlns="http://www.w3.org/2000/svg" xmlns:xlink="http://www.w3.org/1999/xlink" x="0px" y="0px"
	 width="1401.223px" height="506.1px" viewBox="0 0 1401.223 506.1" enable-background="new 0 0 1401.223 506.1"
	 xml:space="preserve">
<g>
	<path fill-rule="evenodd" clip-rule="evenodd" fill="#040000" d="M1387.119,427.678c-0.273,1.881-0.828,5.488-1.303,9.107
		c-0.366,2.775,0.182,6.105-1.201,8.167c-1.042,1.556-4.94,2.595-6.756,1.858c-1.99-0.807-4.186-3.844-4.316-6.027
		c-0.499-8.33-0.201-16.708-0.201-26.123c-8.743,11.51-17.768,20.781-31.567,23.063c-2.821,0.468-6.647,0.288-8.6-1.312
		c-1.313-1.077-1.231-6.137,0.157-7.705c2.148-2.429,6.01-4.867,9.034-4.736c14.666,0.636,28.491-12.369,28.058-27.457
		c-0.822,0.324-2.111,0.471-2.236,0.932c-4.832,17.817-19.695,22.288-34.896,26.053c-4.704,1.168-9.16,0.551-7.953-6.387
		c-12.17,2.75-15.279-0.933-12.664-12.537c1.328-5.885,0.232-12.314,0.232-18.021c-8.143,6.965-15.529,13.381-23.057,19.627
		c-1.256,1.045-3.166,1.988-4.701,1.885c-5.455-0.371-11.104-2.205-14.176,4.819c-0.338,0.769-3.247,0.413-6.814,0.759
		c0.575-4.078,1.058-7.494,1.688-11.972c-0.685-0.362-2.488-1.317-3.832-2.031c1.013-3.196,3.008-6.177,2.594-8.774
		c-1.52-9.575,4.199-11.004,11.345-10.881c8.804,0.15,16.44-1.662,22.52-12.409c-11.87,4.168-21.917,6.768-31.064,11.221
		c-6.522,3.176-10.364,1.088-12.746-3.899c-2.936-6.15,1.886-7.24,6.774-9.096c3.469-1.314,5.746-5.766,8.586-8.85
		c-4.219-4.493-7.136-3.703-8.834,4.174c-0.541-0.982-1.082-1.967-1.622-2.951c0-4.291,1.665-9.875-0.414-12.549
		c-2.686-3.457-8.363-4.59-10.964-5.854c-2.463,7.637-4.496,14.927-7.332,21.889c-0.555,1.361-4.225,1.453-7.683,2.502
		c1.312-5.621,2.222-9.516,3.132-13.408c-0.813-0.223-1.625-0.445-2.436-0.666c-0.494,1.686-0.988,3.37-1.607,5.482
		c-1.422-0.963-2.725-1.845-5.947-4.027c-0.291,7.334-2.521,14.274-0.387,19.391c5.582,13.363,4.668,16.719-9.643,17.561
		c-2.982,0.175-7.439-3.213-9.109-6.156c-6.658-11.715-12.512-23.886-18.594-35.925c-1.76-3.483-3.277-7.089-5.596-12.146
		c-3.076,11.134-2.904,19.709,4.092,27.938c4.781,5.625,9.043,12.053,11.958,18.802c2.903,6.719-0.823,11.655-7.708,13.917
		c-6.973,2.291-10.189-1.678-12.522-7.387c-3.042-7.439-6.738-14.645-9.272-22.244c-3.972-11.928-5.859-23.943,1.285-35.732
		c1.596-2.633,1.43-6.33,2.075-9.537c-0.687-0.449-1.372-0.898-2.058-1.348c-2.715,4.738-5.772,9.32-8.035,14.267
		c-1.676,3.655-2.094,7.864-3.457,11.688c-6.004,16.847-3.107,25.365,12.012,35.391c4.945,3.279,6.234,8.143,3.691,13.319
		c-2.115,4.309-5.205,8.139-8.1,12.538c-14.736-5.975-17.69-18.628-21.428-31.037c-2.619-8.688-1.355-15.713,3.67-18.826
		c-0.555-7.84-0.941-13.287-1.45-20.451c-9.107,8.939-18.385,17.143-26.526,26.352c-5.424,6.134-11.393,8.135-17.453,3.361
		c-5.941-4.682-5.604-8.258,1.316-15.758c2.696-2.921,5.201-6.019,7.711-8.941c-5.615-2.1-11.887-4.446-18.133-6.783
		c-6.861,17.469-20.151,24.635-33.892,17.284c-5.083-2.72-10.737-9.305-11.229-14.583c-0.85-9.139,1.314-18.852,3.74-27.914
		c2.029-7.572,6.238-14.561,10.457-23.984c-6.428,2.996-11.196,5.221-15.996,7.457c-2.558-4.744-0.09-7.576,8.49-8.295
		c9.313-0.783,15.372-5.918,15.054-12.84c-0.208-4.488-0.534-8.973-0.869-14.484c-6.78-4.201-14.423-1.896-19.291,3.814
		c-4.208,4.939-5.435,12.418-8.056,18.965c-5.177-4.396-5.177-4.396,0.694-9.018c-0.466-0.648-0.927-1.297-1.393-1.947
		c-2.22,1.592-4.735,2.9-6.581,4.846c-2.157,2.271-3.406,5.449-5.685,7.543c-1.2,1.104-3.765,0.988-5.688,0.895
		c-0.684-0.033-2.006-2.182-1.821-2.42c1.118-1.445,2.509-2.727,3.98-3.834c0.76-0.572,1.874-0.676,2.482-2.541
		c-2.886,0.508-5.773,1.018-8.458,1.492c-1.389,4.646-2.658,8.885-3.928,13.127c-0.883-0.072-1.762-0.143-2.645-0.213
		c-0.23-2.881-0.462-5.764-0.838-10.471c-2.344,3.283-3.702,5.613-5.496,7.541c-1.068,1.146-2.767,2.074-4.285,2.262
		c-0.637,0.076-2.313-2.17-2.137-3.105c0.265-1.436,1.462-3.398,2.715-3.832c7.708-2.674,11.715-8.65,16.178-16.201
		c-3.543,0.242-5.664,0.387-7.289,0.498c-0.785,3.256-1.458,6.037-1.992,8.246c-3.375-1.619-7.078-4.486-8.152-3.711
		c-3.415,2.467-5.852,6.289-9.467,10.529c-0.896-1.293-2.348-3.387-4.236-6.117c-2.02-0.639-5.328-1.684-10.965-3.465
		c2.156,9.287,4.08,17.572,5.994,25.814c-4.915,0.908-5.516,0.359-6.765-5.367c-0.513-2.357-1.646-4.578-2.497-6.861
		c-2.327,1.305-4.929,2.291-6.913,3.994c-2.601,2.236-4.511,5.275-7.104,7.521c-2.048,1.775-4.681,2.881-7.055,4.281
		c-0.384-0.617-0.766-1.234-1.148-1.854c9.599-11.564,19.201-23.131,28.912-34.834c-4.393-4.135-7.865-7.402-11.306-10.643
		c5.582,0,10.774,0,15.964,0c0.036-0.725,0.07-1.451,0.106-2.176c-1.147-0.131-2.292-0.299-3.442-0.387
		c-2.873-0.221-5.749-0.406-8.627-0.605c1.598-2.277,3.192-4.555,5.677-8.1c-1.667-0.684-4.153-2.688-5.905-2.174
		c-2.075,0.607-4.135,3.105-5.115,5.275c-3.465,7.666-6.463,15.543-10.291,24.941c-7.399-9.26,0.788-12.17,2.486-17.432
		c-3.558-5.043-7.236-3.08-7.779,1.752c-0.712,6.33,0.936,12.896,1.238,19.377c0.15,3.254,0.09,6.727-0.963,9.715
		c-0.359,1.02-4.049,0.865-6.352,1.271c0.913-6.105,1.607-10.77,2.408-16.119c-5.436,2.365-9.696,4.219-15.482,6.736
		c1.232-11.66,20.254-10.938,11.953-24.262c-3.361,1.133-6.968,2.348-11.24,3.787c-0.969-3.074-1.697-5.398-2.527-8.035
		c-2.172,0.326-4.237,0.637-7.764,1.166c3.058-5.16,5.418-9.146,7.781-13.135c-1.275-0.719-2.551-1.439-3.826-2.158
		c-1.654,3.385-4.418,6.674-4.713,10.172c-0.492,5.863-2.418,9.703-9.908,12.605c1.793-3.74,2.765-5.768,4.189-8.74
		c-4.043,2.691-7.06,4.701-10.074,6.709c-0.828-0.74-1.656-1.482-2.482-2.223c6.896-7.416,13.794-14.832,20.689-22.248
		c-1.059-0.951-2.117-1.902-3.177-2.852c-2.825,3.67-5.648,7.338-8.93,11.6c-1.993-2.486-3.659-4.566-4.005-4.998
		c-5.874-0.438-10.066-0.75-15.086-1.125c2.535-4.563,4.413-7.939,6.673-12.008c-3.013-0.67-5.384-1.197-7.815-1.74
		c-1.346,4.492-2.688,8.98-4.033,13.469c-6.971-8.383-8.366-16.805-5.719-25.715c1.131-3.805,0.82-6.484-3.363-7.74
		c2.49-6.313-2.734-9.129-6.418-13.256c-0.469,6.746-0.92,13.223-1.37,19.699c-0.857-0.055-1.712-0.111-2.569-0.166
		c-0.823-3.428-1.647-6.852-2.801-11.645c-6.609,9.096-3.262,20.365-11.612,26.289c-2.549-5.207-4.629-9.451-6.188-12.635
		c-5.885,0-11.068,0.887-15.517-0.529c-1.365-0.436-0.724-7.176-1.026-11.373c-12.459,9.943-24.538-3.137-36.223-1.072
		c-4.452,3.174-8.53,6.078-14.33,10.213c-1.7,5.902,15.357,19.057-5.173,22.979c-10.145,1.938-16.298-1.6-18.368-10.262
		c-1.7,1.059-4.55,2.377-4.42,2.82c2.613,8.914-4.207,10.484-9.813,12.139c-7.135,2.104-10.728-2.445-12.95-8.549
		c-0.257-0.705-1.177-1.168-1.83-1.785c-5.647,11.863-7.048,12.322-19.759,7.607c-2.275-0.844-4.889-0.773-7.701-1.174
		c0.246,4.068,0.438,7.275,0.715,11.951c-10.782-8.064-1.547-15.402-1.786-22.572c-5.765-2.881-9.657-2.854-10.416,4.465
		c-0.059,0.578-0.073,1.217-0.33,1.713c-6.826,13.164-2.005,23.904,7.624,33.828c-2.984,3.576-5.068,6.186-8.127,0.244
		c-1.44-2.793-4.251-4.877-6.439-7.283c-1.659,2.891-3.324,5.777-4.977,8.674c-2.068,3.629-3.81,7.512-6.355,10.766
		c-0.963,1.232-3.773,1.021-4.955,1.289c7.348-13.814,11.485-27.738,13.941-42.15c-3.271-1.545-5.961-2.818-9.012-4.258
		c10.697-10.344,10.697-10.344,4.392-21.295c-1.3,3.598-2.524,6.979-4.335,11.982c-1.582-3.578-2.523-5.705-3.303-7.473
		c-3.742,2.705-7.396,5.346-10.863,7.852c9.901,7.93,11.01,19.977,1.456,26.23c0.697,6.268,9.481,11.961,0.979,20.498
		c-2.054-6.516-3.766-11.949-6.263-19.875c-3.206,5.092-5.429,8.625-7.652,12.154c-1.25-0.988-2.503-1.979-3.754-2.967
		c2.426-4.105,6.326-8.02,6.896-12.367c0.678-5.176-1.508-10.723-2.623-17.104c-2.693,4.111-4.309,8.674-7.533,10.82
		c-2.512,1.672-7.024,0.334-11.064-0.994c8.889-0.693,10.607-7.002,12.441-13.285c0.207-0.707,1.065-1.322,1.757-1.775
		c12.979-8.508,13.249-11.104,1.854-21.492c0,4.984,0,9.686,0,14.385c-0.962,0.74-1.925,1.48-2.886,2.221
		c-1.612-2.553-2.81-5.566-4.972-7.506c-1.654-1.488-4.528-1.621-7.455-2.547c0.369-2.422,1.582-5.428,0.958-7.984
		c-0.441-1.807-3.375-3.004-5.195-4.473c-1.069,1.451-3.312,3.254-3.001,4.293c1.165,3.885,3.145,7.527,4.858,11.242
		c1.647,3.572,3.343,7.121,5.017,10.68c-0.757,0.488-1.515,0.977-2.271,1.465c-1.884-1.336-3.767-2.672-7.088-5.027
		c-0.347,6.191-1.718,11.738-0.663,16.775c1.25,5.988,2.651,10.99-4.835,14.943c0-2.537,0-4.195,0-6.428
		c-2.862,2.717-5.134,4.871-7.403,7.025c-0.862-0.533-1.721-1.064-2.584-1.596c1.891-4.469,3.783-8.939,6.342-14.988
		c-12.811,0-24.996,0-38.256,0c-0.189,3.555-0.83,7.516-0.517,11.4c0.594,7.4-1.425,14.691-8.126,16.797
		c-5.303,1.666-12.432-0.199-18.023-2.365c-5.5-2.129-10.025-6.707-15.119-9.988c-1.064-0.686-2.753-0.398-4.49-0.6
		c-0.122,1.125-0.572,2.209-0.233,2.584c6.303,7.018,4.828,13.602-0.383,20.551c-1.358,1.813-0.858,5.018-1.213,7.584
		c3.416-0.563,6.932-0.801,10.213-1.799c2.292-0.695,4.267-2.432,6.382-3.703c1.019,1.053,2.035,2.104,3.053,3.158
		c-2.465,3.707-4.699,10.295-7.443,10.516c-5.537,0.445-11.354-2.572-18.161-4.469c0.38,2.449,0.939,6.064,1.769,11.428
		c-5.642,2.049-13.568,4.928-23.089,8.385c0.144-11.863-5.111-12.102-12.116-9.709c-1.27,0.432-3.102-0.781-4.674-1.234
		c1.738-1.334,3.475-2.668,7.239-5.559c-5.679-2.338-10.067-4.146-15.415-6.348c1.937,4.848,3.293,8.244,4.65,11.641
		c-6.412-3.609-12.824-7.221-19.237-10.83c-0.796,0.65-1.593,1.301-2.39,1.949c2.684,4.25,5.37,8.5,8.004,12.672
		c-0.776-0.396-2.158-1.102-4.08-2.082c0,2.008,0,3.584,0,6.947c-3.462-2.658-6.016-4.623-8.573-6.588
		c-2.503-5.66-5.009-11.32-7.653-17.299c-1.576,2.617-3.082,5.119-4.328,7.193c1.516,2.393,3.294,5.197,5.072,8.004
		c-5.697,0.281-12.557-1.311-16.8,1.32c-5.243,3.252-1.792,17.469,5.808,29.016c-2.233-0.822-3.944-1.451-6.341-2.332
		c0,4.947,0,9.193,0,11.98c-9.141-4.879-18.556-9.906-30.147-16.092c1.589,3.246,2.26,5.979,3.948,7.727
		c2.232,2.311,5.26,3.854,8.644,6.209c-9.313,2.033-17.257-8.592-26.093,0.48c0.47-3.891,0.86-7.104,1.247-10.316
		c1.813-0.9,5.193-1.865,5.159-2.693c-0.134-3.299-1.079-6.646-2.21-9.803c-0.865-2.418-2.46-4.578-4.613-8.432
		c0.572-0.199-2.732,0.295-2.808,1.09c-0.353,3.793-0.321,7.783,0.54,11.477c0.711,3.051,2.771,5.787,4.232,8.662
		c-4.61,3.158-9.221,6.318-13.398,9.184c-0.711-3.076-1.765-7.633-2.511-10.865c-7.041-0.807-12.539-1.434-19.613-2.242
		c2.989,4.295,5.233,7.525,8.128,11.688c-4.137,2.883-8.194,5.117-11.398,8.23c-1.306,1.268-0.758,4.441-1.056,6.747
		c1.365-0.523,2.729-1.048,2.934-1.126c3.984,5.054,8.288,10.164,12.149,15.586c1.504,2.113,3.242,5.203,2.762,7.385
		c-1.836,8.354-17.373,17.172-25.184,14.408c-2.057-0.727-3.709-3.349-4.951-5.452c-2.344-3.97-4.252-8.193-7.801-12.021
		c-1.004,7.293,6.735,15.874-5.201,19.739c9.941,7.72,10.573,10.075,5.366,17.406c-4.761,6.703-15.321,6.172-29.487-2.452
		c2.308,9.346,4.292,18.455-3.541,24.17c-3.259,2.379-9.202,2.867-13.332,1.838c-5.742-1.434-13.581-3.84-15.632-8.154
		c-2.214-4.658,1.202-11.996,2.289-18.963c-4.478,2.227-8.405,4.183-12.516,6.229c0,4.428,0,9.023,0,16.898
		c-6.085-4.602-10.555-7.981-15.755-11.912c9.752-3.42,9.684-5.352,4.41-12.906c-4.58-6.56-7.603-14.203-11.719-22.15
		c-5.678,0.599-5.743,0.877-1.882,6.896c0.972,1.515,1.526,4.872,0.644,5.76c-10.076,10.127-19.235,22.014-36.683,17.473
		c-5.407-1.406-8.836-2.016-6.901-8.727c0.632-2.186-0.799-4.967-1.352-7.805c-3.799,0.541-7.351,1.047-11.064,1.576
		c0,1.567-0.291,2.787,0.045,3.8c4.867,14.737-1.789,24.389-17.6,25.122c-3.752,0.174-7.553-0.694-11.305-0.521
		c-3.268,0.15-6.488,1.156-9.747,1.672c-4.635,0.733-9.286,1.363-14.43,2.111c0.897,1.93,2.733,5.88,4.571,9.83
		c-0.466,0.553-0.932,1.105-1.396,1.656c-2.843-1.078-5.687-2.154-8.786-3.328c-3.199,7.049,3.327,9.02,6.503,12.848
		c2.056,2.479,4.427,5.639,4.565,8.594c0.493,10.443-6.66,16.88-13.574,23.334c-0.946,0.884-1.203,2.807-1.276,4.274
		c-0.253,5.004,1.704,12.328-0.838,14.514c-4.32,3.713-11.371,5.218-17.376,5.506c-2.275,0.108-4.834-5.727-8.225-10.091
		c-0.302,6.122-0.548,11.092-0.812,16.439c-8.639,2.78-17.368,5.506-26.002,8.506c-0.78,0.271-0.942,2.314-1.393,3.533
		c-5.839,0-11.678,0-17.516,0c-2.438-4.584-4.283-9.631-7.43-13.662c-8.533-10.924-10.704-23.271-9.751-36.595
		c0.103-1.434-0.147-2.896-0.284-4.339c-0.019-0.207-0.313-0.389-1.883-2.197c-4.354,6.392-8.254,12.531-12.604,18.336
		c-2.387,3.186-5.531,5.807-8.333,8.682C0,317.58,0,158.836,0,0c467.073,0,934.146,0,1401.223,0c0,146.563,0,293.053,0,439.543
		C1396.82,435.839,1392.418,432.136,1387.119,427.678z M351.957,271.18c1.77-6.039,3.217-10.973,4.664-15.908
		c-0.548-0.273-1.096-0.547-1.643-0.822c-1.588,2.113-3.176,4.227-5.436,7.234c-1.344-3.426-2.246-5.719-3.405-8.676
		c-1.997,4.824-3.808,9.205-5.622,13.586c-1.301-1.473-2.48-3.088-3.939-4.385c-1.639-1.457-3.53-2.631-5.655-4.176
		c-3.028,2.713-5.91,5.297-9.444,8.465c6.914,0,12.869,0,18.824,0C343.941,267.973,347.542,269.414,351.957,271.18z M1309.11,367.48
		c-6.722,12.514-14.773,23.298-30.757,24.332C1292.939,399.73,1306.133,389.373,1309.11,367.48z M49.369,466.602
		c-6.571-4.44-5.086-10.563-5.283-16.49c-0.144-4.317-0.027-8.643-0.027-15.431c-7.464,27.009-7.408,30.904,8.521,43.31
		c0.91-0.377,1.818-0.753,2.729-1.129C53.387,473.355,52.313,468.594,49.369,466.602z M405.718,280.801
		c-2.267-7.678-4.212-14.266-6.157-20.854c-1.072,0.271-2.145,0.545-3.216,0.818C392.267,276.307,392.267,276.307,405.718,280.801z
		 M387.085,212.277c2.326-4.174,4.687-8.408,7.046-12.641c-0.826-0.549-1.65-1.096-2.476-1.643
		c-2.214,3.615-5.053,7.021-6.356,10.939c-0.589,1.764,1.889,4.549,2.975,6.871c3.358-2.854,9.473,6.957,11.664-2.666
		c0.453-1.986,3.56-3.369,5.794-5.342C396.738,200.406,395.494,216.533,387.085,212.277z M1218.904,358.935
		c1.277-2.78,3.117-5.212,3.463-7.841c0.896-6.783,1.125-13.653,1.58-19.917C1215.161,339.574,1212.116,352.094,1218.904,358.935z
		 M231.645,303.301c-13.913-0.609-17.925,4.465-15.887,20.777C221.386,316.717,226.514,310.01,231.645,303.301z M413.06,310.457
		c2.467,2.098,4.435,3.768,7.308,6.211c3.809-9.633,5.374-17.449,0.891-24.98c-0.862-1.451-4.746-1.107-7.236-1.592
		C420.625,297.313,421.425,305.486,413.06,310.457z M943.074,235.055c-0.596-1.721-1.277-3.695-1.961-5.67
		c-0.92,0.047-1.84,0.094-2.759,0.139c-0.247,4.645-0.493,9.289-0.769,14.492c7.377-3.527,12.828-6.135,18.283-8.74
		c-0.363-0.936-0.727-1.873-1.089-2.809C951.01,233.299,947.243,234.133,943.074,235.055z M510.763,249.922
		c-1.699-2.434-3.126-6.281-4.614-6.305c-7.672-0.125-15.361,0.73-23.045,1.246c0.04,1.117,0.081,2.238,0.118,3.357
		C491.926,248.758,500.63,249.297,510.763,249.922z M1211.535,321.475c-8.656-0.529-14.881-0.908-22.582-1.379
		c1.758,4.926,3.084,8.648,3.789,10.622C1198.902,327.688,1203.982,325.189,1211.535,321.475z M428.7,255.385
		c-1.11-0.236-2.219-0.473-3.329-0.709c-2.017,7.785-4.035,15.57-6.054,23.355c1.224,0.371,2.446,0.742,3.671,1.113
		C432.698,272.693,424.595,262.891,428.7,255.385z M404.441,287.93c-0.328-0.783-2.885-1.533-3.534-1.068
		c-1.067,0.76-2.31,2.932-1.916,3.803c2.269,5.023,4.997,9.84,7.569,14.729c1.208-0.682,2.418-1.363,3.625-2.047
		C408.314,298.189,406.567,292.98,404.441,287.93z M413.692,271.447c2.823-5.58,5.202-11.383,7.716-17.117
		c-1.559-0.678-4.314-2.162-4.486-1.908c-1.505,2.24-3.96,5.143-3.448,7.174c1.274,5.063,2.974,9.365-4.511,11.941
		C410.598,271.537,413.359,272.105,413.692,271.447z M437.179,221.943c-1.265,9.043,5.55,15.705,18.002,17.242
		C449.474,233.719,443.767,228.254,437.179,221.943z M457.967,267.301c1.658-0.283,3.69,1.617,5.753,2.609
		c-1.405-7.357-6.422-10.396-14.739-9.26C450.682,268.779,450.642,268.553,457.967,267.301z M956.844,203.689
		c-3.207,5.779-6.066,10.934-8.93,16.09c2.624,0.355,2.213,0.004,8.17-6.938c2.301-2.68,6.936-3.354,11.566-5.412
		C963.211,205.893,959.508,204.609,956.844,203.689z M61.458,447.916c2.659,4.444,5.505,8.805,8.745,12.83
		c0.353,0.438,3.514-1.387,5.373-2.163c-3.325-4.903-6.65-9.808-10.596-15.622C62.902,445.818,61.187,447.461,61.458,447.916z
		 M469.899,262.605c-0.749,3.623-1.417,6.84-2.515,12.148c5.307-5.502,14.396-2.338,14.929-12.148
		C478.039,262.605,474.125,262.605,469.899,262.605z M1002.648,256.701c-0.461-0.832-0.92-1.662-1.379-2.494
		c-5.379,2.932-10.76,5.861-18.085,9.852C995.951,269.588,996.971,259.215,1002.648,256.701z M492.083,258.125
		c2.963,1.602,5.875,3.314,8.927,4.717c0.148,0.066,2.217-3.467,2.117-3.537c-3.066-2.186-6.213-4.303-9.543-6.063
		c-1.063-0.561-2.674-0.086-4.036-0.086c-0.644,0.914-1.284,1.83-1.928,2.746C489.108,256.639,490.622,257.336,492.083,258.125z
		 M447.849,222.25c2.915,2.697,5.829,5.393,8.745,8.092c0.467-4.498,12.057-1.377,6.408-10.637
		C458.376,225.844,458.376,225.844,447.849,222.25z M1210.129,328.686c-10.998,1.883-12.237,3.957-6.922,12.529
		C1205.619,336.85,1207.781,332.934,1210.129,328.686z"/>
	<path fill-rule="evenodd" clip-rule="evenodd" fill="#031022" d="M442.559,293.904c4.007,4.781,7.479,8.928,10.658,12.721
		c-0.227-1.58-0.577-4.051-1.041-7.309c2.744,0.377,5.268,0.725,7.791,1.07c0.125-0.543,0.248-1.086,0.373-1.627
		C454.541,297.176,448.741,295.592,442.559,293.904z"/>
</g>
</svg>
