<?xml version="1.0" encoding="utf-8"?>
<!-- Generator: Adobe Illustrator 16.0.0, SVG Export Plug-In . SVG Version: 6.00 Build 0)  -->
<!DOCTYPE svg PUBLIC "-//W3C//DTD SVG 1.1//EN" "http://www.w3.org/Graphics/SVG/1.1/DTD/svg11.dtd">
<svg version="1.1" id="圖層_1" xmlns="http://www.w3.org/2000/svg" xmlns:xlink="http://www.w3.org/1999/xlink" x="0px" y="0px"
	 width="854.382px" height="521.202px" viewBox="0 0 854.382 521.202" enable-background="new 0 0 854.382 521.202"
	 xml:space="preserve">
<g>
	<g>
		<path fill-rule="evenodd" clip-rule="evenodd" fill="#022036" d="M0,521.012c2.517-4.074,7.005-2.906,10.573-3.591
			c13.333-2.553,24.576-9.378,34.529-17.831c10.205-8.666,21.621-13.468,34.509-15.283c28.772-4.051,57.694-5.509,86.754-5.521
			c10.092-0.003,20.365-2.228,28.923-7.946c8.793-5.877,18.256-9.667,28.175-12.928c9.516-3.128,18.169,0.443,26.981,2.548
			c9.867,2.357,19.612,2.299,29.465,0.338c1.453-0.29,3.097-0.404,3.686-1.875c0.686-1.716-0.967-2.563-2.024-3.452
			c-8.153-6.851-12.03-16.252-15.462-25.899c-2.03-5.7-3.994-11.335-7.622-16.366c-3.835-5.32-3.715-11.237-1.132-17.266
			c4.265-9.946,3.116-15.881-5.042-22.95c-4.105-3.553-6.639-7.259-6.968-12.865c-0.391-6.621-5.521-10.507-10.03-14.56
			c-7.661-6.881-8.267-13.593-2.021-23.283c3.471-5.392,11.269-6.413,19.138-3.078c7.491,3.175,8.207,9.329,6.763,15.714
			c-1.191,5.277-0.091,8.35,4.836,10.307c4.247,1.687,6.063,5.088,6.891,9.491c1.526,8.102,3.653,16.028,7.528,23.445
			c2.606,4.993-0.315,9.94-1.221,14.822c-0.823,4.462-0.61,8.153,4.95,10.696c-2.715-9.656-1.609-18.328,2.129-26.959
			c2.363-5.455,2.007-11.203-0.918-16.831c-3.758-7.234-3.659-14.871-1.029-22.568c2.021-5.916,1.916-11.857-0.304-17.777
			c-1.612-4.309-3.134-8.662-4.435-13.074c-2.35-7.954,0.36-14.679,6.891-17.657c6.882-3.137,17.943-0.465,21.588,5.578
			c3.195,5.299,3.857,11.101,3.42,17.391c-0.807,11.636-5.077,23.187-0.887,35.033c2.158,6.094,4.435,12.134,6.078,18.464
			c2.004,7.738,1.964,14.849-1.712,21.824c-2.413,4.58-2.956,8.966-0.946,13.89c3.359,8.234,3.604,16.101-1.723,24.134
			c-4.308,6.491-3.795,14.693-5.268,22.253c2.266-2.537,3.914-5.175,4.6-8.546c1.123-5.535,3.771-10.414,7.36-14.825
			c4.604-5.663,5.696-11.57,0.997-17.898c-5.949-8.019-4.568-14.783,0.48-23.742c6.536-11.587,9.62-25.227,5.225-39.064
			c-1.469-4.621-2.239-9.724,2.571-12.371c4.207-2.314,9.017-1.538,12.396,2.763c2.772,3.524,5.046,29.926,2.77,33.739
			c-0.983,1.645-2.585,2.917-3.6,4.547c-2.697,4.325-5.822,8.677-1.421,13.797c0.443,0.513,0.887,1.437,0.725,1.997
			c-2.063,7.194-2.084,14.341-1.498,21.838c0.348,4.405-1.757,9.084-1.677,14.089c0.099,6.412-6.453,9.668-10.497,14.565
			c5.215,2.017,10.693-0.19,15.645,2.418c11.258,5.929,19.411,15.243,26.727,25.036c11.223,15.026,27.148,21.648,44.168,25.468
			c21.992,4.937,44.374,0.494,66.585,0.107c4.528-0.078,8.155-2.882,11.931-5.043c6.002-3.435,11.357-8.252,18.939-7.809
			c-0.391-4.31-7.588-4.611-4.662-8.514c2.547-3.4,3.189-10.431,10.614-8.385c0.845,0.233,6.121,0.399,2.51-3.941
			c-1.608-1.932-0.625-3.76,1.633-4.52c9.251-3.125,17.665-10.13,28.727-4.239c2.618,1.393,7.724-1.344,11.868-0.91
			c3.616,0.379,7.972-1.76,9.973,3.434c0.385,0.998,1.496,1.084,2.447,0.449c7.943-5.306,9.937,1.311,11.611,6.415
			c2.453,7.477,6.419,13.764,11.243,19.875c2.257,2.857,3.939,2.421,6.626,1.862c11.86-2.465,22.24-9.601,34.467-10.858
			c4.09-0.422,8.198-0.731,12.261-1.349c2.789-0.425,5.472-1.406,4.042-5.201c-1.153-3.063-2.398-6.18-6.751-3.985
			c-8.521,4.3-14.908-0.914-21.006-5.37c-3.383-2.474-5.288-6.581-1.157-10.616c0.513-0.5,1.416-1.333,1.282-1.648
			c-3.533-8.31,1.132-16.841-0.751-25.16c-0.369-1.64-1.091-3.221-1.299-4.874c-0.219-1.736,0.165-3.467,2.212-4.06
			c2.303-0.667,3.775,0.414,4.497,2.515c0.686,1.993,1.178,4.052,1.902,6.612c2.974-3.498,2.666-6.55,0.836-9.644
			c-1.538-2.602-2.096-5.396-1.938-8.374c0.116-2.188,0.025-4.615,2.282-5.772c2.479-1.272,3.878,1.077,5.578,2.612
			c3.132-9.778,1.827-21.3,15.194-26.899c-10.368-1.802-17.97-1.033-25.219,3.015c-1.774,0.992-4.375,2.75-5.888,0.408
			c-1.762-2.725,1.027-4.495,2.957-5.699c10.35-6.45,21.719-7.549,33.531-5.899c12.972,1.812,25.136,6.591,39.347,11.467
			c-7.96-9.981-13.167-20.706-21.733-26.127c-9.458-5.987-16.609-13.544-24.385-20.97c-3.747-3.581-9.678-2.388-14.498-3.788
			c-3.401-0.989-9.328,0.245-9.157-4.745c0.153-4.591,5.938-4.603,9.515-4.748c9.143-0.364,16.778,3.99,23.715,9.476
			c3.334,2.638,6.283,5.769,9.6,8.858c0.51-1.188,0.956-1.898,0.836-2.01c-8.893-8.446-9.244-21.347-17.329-30.935
			c-10.639-12.614-17.808-28.337-17.272-45.997c0.064-2.115-1.244-5.627,2.449-5.731c2.945-0.083,3.418,2.907,3.725,5.394
			c1.706,13.729,8.265,25.333,16.343,38.033c2.831-22.48-0.952-41.667-14.183-58.551c-0.893-1.14-2.129-2.035-2.902-3.238
			c-1.822-2.833-1.797-5.558,1.297-7.542c3.109-1.996,5.654-1.188,7.053,2.167c3.579,8.575,9.353,15.844,13.921,23.825
			c5.206,9.099,6.3,19.179,6.692,29.431c0.409,10.68,2.428,21.071,5.993,31.179c0.897,2.547,1.671,4.79,4.906,3.631
			c2.714-0.972,2.114-3.072,1.794-5.428c-2.519-18.423-5.942-36.66-11-54.557c-3.431-12.154-7.734-22.978-19.416-31.001
			c-10.08-6.923-18.369-17.183-23.749-28.881c-0.886-1.921-1.242-4.158-1.469-6.288c-0.19-1.744,0.508-3.406,2.34-4.131
			c2.089-0.827,4.145-0.229,5.073,1.626c3.762,7.51,14.462,9.116,15.56,19.02c-1.703-11.401-1.708-22.757-6.438-33.304
			c-2.152-4.797-4.069-10.153-4.214-15.309c-0.409-14.71-9.538-24.391-18.266-34.437c-3.019-3.475-6.302-6.646-10.538-8.793
			c-3.05-1.545-5.691-3.832-6.371-7.499c-0.494-2.688-0.563-5.467,1.895-7.33c2.93-2.223,5.014-0.037,6.885,1.833
			c4.301,4.301,10.276,6.405,14.609,11.879c1.074-3.644-1.354-5.412-2.192-7.606c-1.441-3.767-2.813-7.708,1.697-10.22
			c4.143-2.307,6.194,1.379,8.239,3.895c4.386,5.404,6.419,11.82,7.606,18.895c-0.773-10.572,3.497-19.353,8.185-28.23
			c2.175-4.119,6.283-5.744,8.646-9.504c5.378-8.569,0.759-15.983-2.403-23.191c-5.671-12.935-9.15-26.232-9.855-40.309
			c-0.173-3.431-0.216-6.792,1.424-9.938c1.939,0,3.881,0,5.823,0c2.937,5.09,1.675,10.862,2.638,16.274
			c2.053,11.5,7.474,21.801,11.275,32.636c8.56,24.374,10.925,49.897,5.992,75.677c-0.64,3.337-1.01,6.761,0.648,9.961
			c1.055,2.033,3.059,3.305,4.517,1.097c3.435-5.192,8.756-10.673,8.927-16.173c0.366-11.936,3.807-23.507,3.56-35.283
			c-0.297-14.336,5.637-28.07,3.308-42.518c-0.4-2.483,1.039-5.079,3.936-5.233c3.479-0.187,3.431,2.829,3.479,5.214
			c0.48,23.002-0.86,45.922-2.327,68.878c-0.894,13.92-2.755,27.888-1.431,41.943c0.262-5.74,0.617-11.451,1.516-17.122
			c0.623-3.969-0.162-9.607,5.483-9.337c5.276,0.251,4.543,5.939,5.197,9.857c0.156,0.947,0.147,1.943,0.068,2.905
			c-1.077,13.227-1.937,26.312-7.804,38.792c-6.175,13.132-7.301,27.605-7.579,42.05c1.077-1.67,1.643-3.457,2.112-5.267
			c0.952-3.656,2.664-6.619,7.035-5.305c4.773,1.434,2.408,5.075,1.749,7.876c-1.296,5.504-3.79,10.864-1.269,17.713
			c3.074-8.686,6.912-16.069,4.422-24.897c-0.979-3.465,0.207-7.181,1.342-10.697c4.514-14.014,5.762-28.389,3.551-42.897
			c-0.606-3.96-0.566-7.083,3.319-8.264c4.41-1.341,5.114,2.715,5.913,5.628c1.825,6.664,0.157,13.576,1.169,20.375
			c-0.521-7.5,2.704-13.529,6.769-19.502c10.163-14.938,22.703-27.703,35.652-40.134c1.944-1.871,3.923-3.914,6.961-2.668
			c2.133,0.873,3.699,2.522,3.543,5c-0.199,3.118-1.686,5.505-4.745,6.698c-9.483,3.698-13.272,12.97-19.354,19.97
			c-1.541,1.776-0.964,4.535-1.269,6.883c-1.472,11.355-0.961,22.117,6.224,31.703c0.396,0.528,0.412,1.389,0.475,2.106
			c2.106,23.205,3.221,46.398-1.583,69.429c-0.495,2.381-0.321,6.055-3.787,6.224c-3.158,0.156-3.9-3.184-5.029-5.526
			c-0.73-1.521-1.186-3.176-1.748-4.775c-2.462-7.017-6.584-13.067-11.027-20.479c-4.483,20.068-1.598,40.108-12.133,57.495
			c13.58-7.918,26.83-10.958,41.005-3.117c2.569,1.421,6.016,2.455,5.302,5.909c-0.597,2.884-3.991,2.041-6.303,2.19
			c-3.482,0.224-5.413,1.762-3.334,5.046c3.655,5.782,3.004,12.059,3.05,18.339c0.068,9.198-0.128,18.369-2.649,27.433
			c4.525-5.515,7.67-11.432,9.287-18.045c0.854-3.492,2.3-6.612,5.783-7.829c4.172-1.458,4.323-4.544,4.438-8.109
			c0.261-7.979,1.111-15.914,3.175-23.648c0.673-2.524,0.647-4.438-1.174-6.657c-3.232-3.937-2.834-7.606,2.194-9.927
			c1.999-0.923,2.817-2.412,3.045-4.536c0.242-2.259-0.134-5.862,3.442-4.96c3.377,0.851,2.181,4.011,1.646,6.739
			c-1.589,8.14-0.665,16.541-2.323,24.747c11.332-22.414,21.384-45.039,15.064-72.435c-5.203,7.863-9.922,14.454-10.249,23.147
			c-0.099,2.645-0.881,6.213-4.022,5.916c-3.57-0.335-3.795-4.138-3.231-6.975c1.271-6.389,1.768-13.37,4.821-18.862
			c4.482-8.061,8.474-15.39,7.676-25.293c-0.461-5.73-0.171-10.975-4.364-15.359c-4.985-5.217-6.852-11.651-6.865-18.629
			c-0.012-4.412-0.119-8.89-1.757-12.884c-5.39-13.148-4.631-26.512-2.246-40.022c0.723-4.085,1.211-9.119,6.777-8.506
			c5.668,0.625,4.799,5.73,4.654,9.828c-0.034,0.954-0.391,1.896-0.592,2.843c-4.193,19.506,3.838,37.842,5.143,56.894
			c4.861-16.771,11.469-32.918,11.274-50.729c-0.077-6.962-2.276-13.07-3.866-19.565c-4.725-19.329,0.819-37.837,5.689-56.317
			c0.445-1.703,1.247-3.464,3.285-3.288c2.169,0.188,4.475,0.951,5.172,3.333c0.531,1.815,0.571,3.825,0.549,5.746
			c-0.114,10.304-4.22,19.814-6.485,29.649c-3.09,13.414,3.713,24.044,7.972,35.238c1.336,3.514,4.036,6.988,2.84,10.443
			c-3.21,9.283-2.437,18.525-1.245,27.862c0.381,2.992-2.257,5.979-0.162,8.968c1.128-14.119,6.254-27.379,8.02-41.272
			c0.253-1.992,0.485-4.08,2.987-4.273c2.352-0.182,3.4,1.663,4.009,3.551c1.069,3.319,0.653,6.683,0.065,10.065
			c-3.689,21.2-7.249,42.422-13.824,62.994c-1.322,4.128-3.034,9.177,0.483,12.338c4.77,4.284,3.442,8.27,1.87,13.034
			c-2.189,6.622-6.8,12.956-6.092,19.914c1.08,10.588,0.969,21.456,4.818,31.757c1.14-2.813,0.998-5.637,0.623-8.548
			c-0.684-5.332,1.418-9.995,4.076-14.374c1.135-1.872,3.047-3.614,5.436-2.156c2.061,1.26,1.384,3.407,0.464,5.202
			c-1.652,3.229-2.207,6.487-0.876,11.77c1.443-3.923,2.121-6.21,3.115-8.35c1.08-2.321,0.074-7.151,4.284-6.055
			c3.96,1.033,3.563,5.427,2.734,8.743c-0.995,3.979-2.638,7.792-3.919,11.704c-1.2,3.667-3.307,7.23-2.141,11.553
			c2.839-1.136,1.464-5.676,5.048-4.969c2.843,0.562,3.116,3.476,3.85,5.704c0.522,1.582,0.912,3.354,0.768,4.989
			c-1.194,13.283-3.542,26.044-9.916,38.254c-7.437,14.241-17.457,27.598-19.248,44.993c5.887-1.915,9.848-5.459,9.597-11.008
			c-0.545-11.985,10.095-17.701,14.12-27.042c0.513-1.188,2.146-2.194,3.716-1.372c1.845,0.968,1.779,2.814,1.26,4.474
			c-1.373,4.39-2.672,8.827-5.996,12.293c-2.374,2.476-4.65,5.186-4.915,8.717c-0.751,10.017-3.972,18.827-11.542,25.763
			c-0.383,0.353-0.275,1.241-0.449,2.169c3.818-0.779,6.135-3.272,8.488-5.578c5.516-5.403,10.914-10.928,16.358-16.403
			c0,4.366,0,8.733,0,13.098c-7.045,6.918-13.391,14.804-21.296,20.537c-13.264,9.62-27.385,18.104-42.546,24.63
			c-1.563,0.673-3.892,0.954-3.655,4.188c6.3,0,12.622,0.608,18.779-0.145c9.103-1.113,15.712,2.607,20.136,9.758
			c7.185,11.611,16.969,20.149,28.582,26.897c0,19.646-0.091,39.295,0.094,58.94c0.028,3.129-0.6,4.289-3.738,3.667
			c-0.936-0.185-1.933-0.028-2.905-0.028C565.157,521.012,282.579,521.012,0,521.012z M664.259,409.209
			c4.717-3.421,11.789-2.891,10.285-11.03c-0.381-2.062,2.906-3.055,3.48-1.794c2.29,5.063,10.617,6.519,8.198,14.49
			c-1.16,3.818-1.569,9.005,0.869,11.86c4.475,5.242,2.013,9.174-0.176,13.85c-3.943,8.42-11.687,14.199-15.456,22.697
			c-0.73,1.652-2.922,3.19-1.268,5.157c1.369,1.631,3.641,1.191,5.506,0.898c7.718-1.21,13.728-4.673,15.752-12.871
			c1.947-7.891,6.743-13.683,12.867-18.792c4.189-3.498,9.213-5.282,13.821-7.89c4.747-2.685,5.731-6.153,3.645-10.888
			c-2.24-5.079-4.765-10.054-6.655-15.26c-2.999-8.261-4.815-14.776-16.823-16.708c-11.54-1.859-23.064-7.856-34.981-10.887
			c-2.888-0.734-5.996-3.708-8.732-0.832c-2.67,2.803-2.996,6.602-1.416,11.508c0.915-1.969,1.334-2.805,1.693-3.663
			c1.007-2.395,1.539-5.764,5.177-4.671c3.492,1.05,1.706,3.942,1.169,6.133c-0.48,1.95-0.594,3.778,0.251,5.656
			C664.577,393.101,665.08,400.391,664.259,409.209z M795.318,315.658c2.334-2.06,4.522-4.319,7.042-6.119
			c2.248-1.609,4.844-4.145,7.715-1.339c3.088,3.018,1.706,6.284-0.56,9.11c-2.269,2.83-4.811,5.438-7.195,8.176
			c-2.663,3.054-1.376,4.152,2.05,5.237c3.959,1.253,6.37,0.148,8.674-3.019c2.848-3.921,5.714-7.642,6.651-12.668
			c0.617-3.311,1.987-7.329,6.691-3.354c2.451,2.074,3.48,0.042,4.486-1.531c3.116-4.879,0.003-14.157-5.601-15.697
			c-5.572-1.529-11.359-2.266-17.042-3.39c-2.161-0.428-3.969-0.122-4.563,2.294C801.757,301.107,797.431,307.86,795.318,315.658z
			 M741.937,419.208c2.45-0.472,2.507-1.973,2.785-3.375c3.033-15.21,2.962-30.732,4.498-46.092c0.4-3.996-0.638-8.15-1.166-12.214
			c-0.174-1.353-0.133-3.266-1.916-3.543c-2.3-0.355-2.49,1.895-3.124,3.326c-3.604,8.116-6.089,16.825-13.103,23.045
			c-1.905,1.689-1.288,4.266-0.353,6.138C734.792,396.977,739.437,407.674,741.937,419.208z M736.063,336.659
			c0.012-13.069,0.012-13.068-12.128-13.242c-0.482-0.007-0.966-0.025-1.446-0.061c-8.088-0.591-11.36,4.075-7.491,11.654
			c4.415,8.644,8.546,17.3,10.388,26.902c0.315,1.651,0.773,3.654,2.832,3.69c2.035,0.034,2.749-2.027,3.017-3.575
			C732.693,353.541,736.72,345.542,736.063,336.659z M754.62,289.879c-1.66-0.961-2.044-1.348-2.467-1.403
			c-13.39-1.729-27.84,6.104-32.798,17.701c-0.632,1.476-0.708,2.754,0.466,3.973c2.024,2.095,13.345,2.454,14.968-0.109
			C739.829,302.075,747.294,296.492,754.62,289.879z M812.534,200.778c-1.854-4.04,3.182-7.633,6.266-12.038
			c8.65-12.364-0.605-24.14-1.025-36.23C813.837,169.247,811.145,186.061,812.534,200.778z M753.313,301.593
			c-0.423,5.13-6.794,5.253-4.778,10.182c1.992,4.878,0.372,8.839-2.224,12.897c-3.03,4.732-3.087,9.607,0.561,14.126
			c1.89,2.347,4.522,3.093,5.308-0.498C754.694,326.819,761.15,315.497,753.313,301.593z M751.667,235.63
			c0.525-0.274,1.051-0.549,1.577-0.823c0-11.115,0-22.229,0-33.852c-5.186,2.549-6.575,7.407-9.955,10.409
			c-2.004,1.78-3.149,4.175-1.927,6.48C744.565,223.896,748.202,229.717,751.667,235.63z M818.882,379.536
			c-7.266,3.948-12.386,9.798-16.951,16.4C814.764,402.231,818.776,398.29,818.882,379.536z M817.401,252.573
			c-2.056,8.539-3.621,15.532-5.461,22.454c-0.668,2.513-0.776,4.812,0.884,6.797c1.51,1.802,3.051,0.132,4.522-0.416
			c3.11-1.16,4.822-3.459,4.088-6.706C819.906,267.96,820.753,260.844,817.401,252.573z M666.356,88.573
			c-0.758,1.723-1.469,3.469-2.288,5.165c-4.657,9.671-3.903,20.059-3.943,30.32c-0.008,1.639,0.739,3.525,2.704,3.817
			c1.683,0.25,1.836-1.4,1.717-2.511C663.218,113.021,667.73,101.118,666.356,88.573z"/>
	</g>
</g>
</svg>
