<?xml version="1.0" encoding="utf-8"?>
<!-- Generator: Adobe Illustrator 16.0.0, SVG Export Plug-In . SVG Version: 6.00 Build 0)  -->
<!DOCTYPE svg PUBLIC "-//W3C//DTD SVG 1.1//EN" "http://www.w3.org/Graphics/SVG/1.1/DTD/svg11.dtd">
<svg version="1.1" id="圖層_1" xmlns="http://www.w3.org/2000/svg" xmlns:xlink="http://www.w3.org/1999/xlink" x="0px" y="0px"
	 width="1397.369px" height="349.4px" viewBox="0 0 1397.369 349.4" enable-background="new 0 0 1397.369 349.4"
	 xml:space="preserve">
<g>
	<g>
		<path fill-rule="evenodd" clip-rule="evenodd" fill="#040000" d="M967.922,349.4c11.643,0,23.285,0,34.928,0
			c9.706-4.984,14.559-15.292,13.154-26.615c-1.518-12.235-2.836-24.512-3.695-36.811c-0.808-11.584,10.699-24.039,20.82-21.967
			c6.492,1.327,10.894-0.523,15.866-3.98c8.965-6.232,9.72-13.334,1.512-20.152c-1.674-1.391-3.401-2.735-4.954-4.254
			c-2.882-2.82-3.57-6.511-0.352-8.893c9.712-7.189,14.139-17.438,17.821-28.293c1.47-4.332,5.508-8.634-0.378-12.787
			c-1.171-0.826-0.851-2.336-0.062-3.273c6.369-7.578,9.406-16.604,11.839-25.991c0.406-1.57,2.57-2.772,4.066-3.958
			c5.993-4.74,11.991-9.329,17.111-15.198c4.914-5.633,11.477-10.797,19.022-11.03c10.225-0.313,19.655-1.955,28.419-7.202
			c6.659-3.987,13.027-3.228,20.019-0.072c12.828,5.79,19.172,18.148,28.979,26.929c10.255,9.183,20.81,18.072,36.058,17.66
			c13.888-0.375,27.829-1.555,40.7-6.346c12.292-4.574,24.368-3.625,36.435-2.146c30.639,3.752,61.255,5.071,92.015,2.275
			c0-50.693-0.067-101.389,0.123-152.082c0.017-4.342-0.878-5.213-5.215-5.213C929.841,0.125,467.528,0.125,5.215,0
			C0.875,0-0.012,0.871,0,5.211C0.176,70.46,0.121,135.709,0.121,200.955c13.164,2.043,26.352,3.961,39.481,6.193
			c4.405,0.748,8.595,0.999,12.835-0.609c12.04-4.567,24.512-7.572,37.107-10.103c26.275-5.282,52.189-8.397,78.818,0.276
			c16.897,5.503,34.859,5.247,51.919-2.479c4.852-2.198,8.421-7.105,14.045-7.268c10.501-0.303,20.804-5.482,31.568-0.647
			c6.858,3.079,15.026-0.691,21.991,3.82c7.771,5.031,17.959,7.768,21.599,16.851c2.277,5.68,5.78,10.269,8.446,15.491
			c7.557,14.812,18.469,27.197,28.563,40.178c14.769,18.99,33.26,15.709,49.238,1.947c12.046-10.371,19.032-24.945,27.78-37.984
			c6.004-8.947,13.772-14.791,24.557-16.318c6.236-0.886,12.618,0.297,18.819-1.321c1.522-0.397,3.343,0.171,3.462,1.786
			c0.329,4.394-2.805,7.598-4.577,11.246c-1.4,2.883-3.902,1.199-5.781,0.666c-10.395-2.943-18.951,1.576-27.351,6.591
			c-3.633,2.169-6.215,5.734-4.047,9.716c2.543,4.665,5.014-2.182,8.07-0.912c1.052,2.44-0.516,4.596-1.053,6.828
			c-1.301,5.402-4.353,10.304-4.739,15.967c-0.114,1.643-0.171,3.808,1.966,4.139c2.156,0.333,3.07-1.779,3.041-3.357
			c-0.176-9.549,9.348-13.773,11.513-22.021c1.879,6.092-0.503,11.205-3.798,15.596c-6.118,8.156-8.797,17.756-12.284,27.014
			c-0.901,2.391-2.929,6.346,1.126,7.423c3.583,0.953,4.88-3.082,5.193-5.741c0.701-5.916,2.902-9.024,9.287-7.154
			c0.623,0.184,1.229,0.433,2.099,0.742c-0.398,1.111-0.575,2.078-1.051,2.865c-5.673,9.414-8.223,19.567-7.366,30.549
			c0.147,1.881-0.416,4.411,1.855,5.018c2.563,0.684,2.814-1.883,3.528-3.652c2.478-6.143,5.043-12.25,7.573-18.37
			c-4.045,10.941-0.14,21.484,1.641,32.081c0.512,3.057-0.063,8.34,4.303,7.818c3.643-0.434,1.252-5.426,2.025-8.288
			c0.158-0.583-0.056-1.471,1.055-1.351c1.896,2.782,1.344,6.051,1.816,9.122c0.222,1.444,0.685,3.039,2.479,3.069
			c1.873,0.035,2.151-1.672,2.488-3.065c0.816-3.39,0.653-6.718-0.704-9.979c-2.204-5.3,0.254-9.156,3.68-14.807
			c1.098,7.683,1.714,13.179,2.741,18.597c0.4,2.107,1.73,4.434,4.465,3.739c2.512-0.638,1.96-2.928,1.597-4.874
			c-0.771-4.135,0.713-8.211,0.69-12.148c-0.048-7.934,3.667-15.422,2.006-23.484c-0.814-3.95,1.556-4.893,4.694-2.842
			c2.358,1.541,4.838,2.646,7.498,2.096c4.809-0.998,4.629,1.729,4.187,4.929c-0.297,2.155-0.879,4.33-0.769,6.467
			c0.134,2.577,2.811,4.911,4.05,2.444c3.066-6.1,10.883-9.258,9.845-18.139c-0.689-5.887-2.464-12.91,1.667-18.059
			c2.516-3.135,2.795-5.58,2.449-9.1c-0.681-6.918-4.515-12.127-8.391-17.416c-6.445-8.793-12.896-17.586-19.229-26.457
			c-3.095-4.333-2.95-7.45,3.353-8.317c4.555-0.625,8.997-2.019,13.547-2.699c7.73-1.157,11.874-5.772,13.81-13.048
			c3.056-11.475,4.746-23.015,13.646-32.719c5.727-6.246,10.533-10.725,19.063-10.392c4.867,0.188,9.887,0.309,13.839-3.175
			c17.592-15.506,38.202-15.971,60.08-13.548c21.964,2.433,44.144,3.68,66.192,0.161c18.411-2.938,36.921-4.621,55.546-5.153
			c11.127-0.32,22.23-0.284,33.383-1.104c15.302-1.129,31.201-3.07,44.656,7.828c2.046,1.657,4.934,1.764,7.561,2.322
			c9.932,2.115,20.564,0.01,30.023,4.556c12.649,6.076,26.439,7.8,39.861,10.853c4.92,1.119,7.271,2.787,8.265,8.146
			c1.067,5.762-1.972,6.957-5.811,9.018c-4.458,2.393-8.664,5.379-12.601,8.57c-5.616,4.551-9.496,10.382-10.518,17.721
			c-0.497,3.558-0.1,7.744,4.072,8.053c4.853,0.357,3.967,2.883,3.775,5.8c-0.211,3.192-0.618,6.861,4.186,6.728
			c5.998-0.166,9.655,2.242,11.454,8.111c0.724,2.355,1.946,5.845,4.955,5.608c4.202-0.329,8.541-1.282,12.501-2.444
			c3.277-0.961,2.275-5.916,2.797-9.188c0.449-2.827-0.251-5.474,4.861-4.146c4.591,1.191,7.578-3.79,10.042-7.094
			c2.111-2.831,0.259-6.381-2.29-8.37c-3.817-2.981-3.607-6.476-2.516-10.394c0.841-3.02,1.731-6.027,2.569-9.047
			c0.427-1.54-0.277-3.887,1.937-4.217c2.176-0.322,3.401,1.608,4.374,3.291c4.632,8.008,10.241,15.041,10.495,25.539
			c0.275,11.429,4.628,22.696,6.046,34.179c2.267,18.343-0.448,36.611-2.343,54.869C958.561,310.699,959.079,330.584,967.922,349.4z
			"/>
	</g>
</g>
</svg>
