<?xml version="1.0" encoding="utf-8"?>
<!-- Generator: Adobe Illustrator 16.0.0, SVG Export Plug-In . SVG Version: 6.00 Build 0)  -->
<!DOCTYPE svg PUBLIC "-//W3C//DTD SVG 1.1//EN" "http://www.w3.org/Graphics/SVG/1.1/DTD/svg11.dtd">
<svg version="1.1" id="圖層_1" xmlns="http://www.w3.org/2000/svg" xmlns:xlink="http://www.w3.org/1999/xlink" x="0px" y="0px"
	 width="1401.223px" height="506.1px" viewBox="0 0 1401.223 506.1" enable-background="new 0 0 1401.223 506.1"
	 xml:space="preserve">
<g>
	<path fill-rule="evenodd" clip-rule="evenodd" fill="#040000" d="M1401.223,66.558c0,146.49,0,292.979,0,439.542
		c-467.076,0-934.149,0-1401.223,0C0,347.265,0,188.521,0,29.775c2.802,2.875,5.946,5.496,8.333,8.682
		c4.351,5.805,8.251,11.945,12.604,18.336c1.57-1.809,1.864-1.989,1.883-2.196c0.137-1.444,0.387-2.905,0.284-4.339
		c-0.953-13.324,1.218-25.672,9.751-36.595C36.002,9.632,37.848,4.584,40.285,0c5.838,0,11.677,0,17.516,0
		c0.45,1.22,0.612,3.262,1.393,3.533c8.634,3.001,17.363,5.727,26.002,8.506c0.264,5.348,0.51,10.318,0.812,16.439
		c3.391-4.363,5.949-10.199,8.225-10.09c6.005,0.287,13.056,1.793,17.376,5.506c2.542,2.186,0.585,9.51,0.838,14.514
		c0.073,1.467,0.33,3.391,1.276,4.273c6.914,6.455,14.067,12.891,13.574,23.335c-0.139,2.954-2.51,6.114-4.565,8.593
		c-3.176,3.828-9.702,5.799-6.503,12.849c3.1-1.175,5.943-2.251,8.786-3.329c0.465,0.552,0.931,1.104,1.396,1.656
		c-1.838,3.951-3.674,7.9-4.571,9.83c5.144,0.748,9.795,1.379,14.43,2.111c3.259,0.516,6.479,1.521,9.747,1.672
		c3.752,0.174,7.553-0.694,11.305-0.521c15.811,0.733,22.467,10.384,17.6,25.122c-0.336,1.012-0.045,2.232-0.045,3.799
		c3.714,0.529,7.266,1.035,11.064,1.577c0.553-2.839,1.983-5.62,1.352-7.806c-1.935-6.711,1.494-7.319,6.901-8.727
		c17.447-4.54,26.606,7.347,36.683,17.473c0.883,0.889,0.328,4.246-0.644,5.76c-3.861,6.021-3.796,6.299,1.882,6.896
		c4.116-7.946,7.139-15.59,11.719-22.149c5.273-7.556,5.342-9.486-4.41-12.906c5.2-3.931,9.67-7.312,15.755-11.913
		c0,7.875,0,12.471,0,16.898c4.11,2.047,8.038,4.002,12.516,6.229c-1.087-6.967-4.503-14.305-2.289-18.963
		c2.051-4.314,9.89-6.721,15.632-8.153c4.13-1.03,10.073-0.542,13.332,1.837c7.833,5.715,5.849,14.824,3.541,24.17
		c14.166-8.623,24.727-9.154,29.487-2.451c5.207,7.33,4.575,9.687-5.366,17.406c11.937,3.865,4.197,12.445,5.201,19.739
		c3.549-3.827,5.457-8.052,7.801-12.021c1.242-2.104,2.895-4.727,4.951-5.453c7.811-2.764,23.348,6.055,25.184,14.408
		c0.48,2.182-1.258,5.271-2.762,7.385c-3.861,5.423-8.165,10.533-12.149,15.587c-0.205-0.079-1.568-0.603-2.934-1.126
		c0.298,2.305-0.25,5.479,1.056,6.746c3.204,3.113,7.262,5.349,11.398,8.231c-2.895,4.161-5.139,7.392-8.128,11.687
		c7.074-0.809,12.572-1.436,19.613-2.241c0.746-3.232,1.8-7.79,2.511-10.865c4.178,2.864,8.788,6.024,13.398,9.184
		c-1.461,2.875-3.521,5.61-4.232,8.661c-0.861,3.694-0.893,7.685-0.54,11.478c0.075,0.795,3.38,1.289,2.808,1.09
		c2.153-3.854,3.748-6.014,4.613-8.433c1.131-3.155,2.076-6.503,2.21-9.803c0.034-0.827-3.346-1.792-5.159-2.693
		c-0.387-3.213-0.777-6.426-1.247-10.315c8.836,9.072,16.78-1.554,26.093,0.48c-3.384,2.355-6.411,3.897-8.644,6.209
		c-1.688,1.748-2.359,4.479-3.948,7.727c11.592-6.187,21.007-11.213,30.147-16.092c0,2.787,0,7.032,0,11.98
		c2.396-0.882,4.107-1.511,6.341-2.332c-7.6,11.547-11.051,25.763-5.808,29.015c4.243,2.632,11.103,1.04,16.8,1.321
		c-1.778,2.806-3.557,5.611-5.072,8.004c1.246,2.073,2.752,4.576,4.328,7.192c2.645-5.979,5.15-11.639,7.653-17.299
		c2.558-1.964,5.111-3.929,8.573-6.588c0,3.363,0,4.939,0,6.947c1.922-0.979,3.304-1.686,4.08-2.081
		c-2.634,4.171-5.32,8.421-8.004,12.671c0.797,0.649,1.594,1.3,2.39,1.95c6.413-3.61,12.825-7.221,19.237-10.831
		c-1.357,3.397-2.714,6.794-4.65,11.641c5.348-2.201,9.736-4.009,15.415-6.348c-3.765-2.891-5.501-4.225-7.239-5.559
		c1.572-0.453,3.404-1.666,4.674-1.233c7.005,2.392,12.26,2.154,12.116-9.709c9.521,3.456,17.447,6.336,23.089,8.384
		c-0.829,5.363-1.389,8.979-1.769,11.428c6.808-1.896,12.624-4.913,18.161-4.469c2.744,0.221,4.979,6.81,7.443,10.517
		c-1.018,1.054-2.034,2.105-3.053,3.158c-2.115-1.271-4.09-3.008-6.382-3.703c-3.281-0.999-6.797-1.236-10.213-1.799
		c0.354,2.565-0.146,5.771,1.213,7.583c5.211,6.949,6.686,13.534,0.383,20.551c-0.339,0.376,0.111,1.46,0.233,2.584
		c1.737-0.2,3.426,0.086,4.49-0.599c5.094-3.281,9.619-7.86,15.119-9.989c5.592-2.165,12.721-4.031,18.023-2.364
		c6.701,2.104,8.72,9.396,8.126,16.796c-0.313,3.886,0.327,7.846,0.517,11.4c13.26,0,25.445,0,38.256,0
		c-2.559-6.049-4.451-10.52-6.342-14.988c0.863-0.531,1.722-1.063,2.584-1.595c2.27,2.154,4.541,4.309,7.403,7.025
		c0-2.233,0-3.891,0-6.428c7.486,3.952,6.085,8.954,4.835,14.942c-1.055,5.038,0.316,10.584,0.663,16.775
		c3.321-2.355,5.204-3.69,7.088-5.026c0.756,0.487,1.514,0.976,2.271,1.464c-1.674,3.559-3.369,7.108-5.017,10.681
		c-1.714,3.715-3.693,7.357-4.858,11.242c-0.311,1.038,1.932,2.841,3.001,4.293c1.82-1.47,4.754-2.667,5.195-4.473
		c0.624-2.558-0.589-5.563-0.958-7.985c2.927-0.925,5.801-1.059,7.455-2.547c2.162-1.939,3.359-4.953,4.972-7.506
		c0.961,0.74,1.924,1.481,2.886,2.222c0,4.699,0,9.399,0,14.385c11.395-10.39,11.125-12.984-1.854-21.492
		c-0.691-0.453-1.55-1.068-1.757-1.776c-1.834-6.283-3.553-12.592-12.441-13.284c4.04-1.328,8.553-2.666,11.064-0.994
		c3.225,2.146,4.84,6.708,7.533,10.819c1.115-6.381,3.301-11.928,2.623-17.103c-0.57-4.349-4.471-8.262-6.896-12.367
		c1.251-0.989,2.504-1.979,3.754-2.968c2.224,3.53,4.446,7.063,7.652,12.154c2.497-7.925,4.209-13.359,6.263-19.875
		c8.503,8.538-0.281,14.231-0.979,20.499c9.554,6.254,8.445,18.301-1.456,26.229c3.468,2.507,7.121,5.147,10.863,7.852
		c0.779-1.768,1.721-3.894,3.303-7.473c1.811,5.004,3.035,8.386,4.335,11.982c6.306-10.951,6.306-10.951-4.392-21.294
		c3.051-1.44,5.741-2.713,9.012-4.259c-2.456-14.411-6.594-28.335-13.941-42.149c1.182,0.268,3.992,0.057,4.955,1.289
		c2.546,3.254,4.287,7.137,6.355,10.765c1.652,2.896,3.317,5.783,4.977,8.675c2.188-2.406,4.999-4.49,6.439-7.283
		c3.059-5.941,5.143-3.332,8.127,0.244c-9.629,9.923-14.45,20.663-7.624,33.827c0.257,0.496,0.271,1.135,0.33,1.714
		c0.759,7.317,4.651,7.345,10.416,4.464c0.239-7.17-8.996-14.508,1.786-22.572c-0.277,4.677-0.469,7.884-0.715,11.952
		c2.813-0.401,5.426-0.331,7.701-1.175c12.711-4.715,14.111-4.255,19.759,7.607c0.653-0.616,1.573-1.08,1.83-1.785
		c2.223-6.104,5.815-10.652,12.95-8.549c5.605,1.655,12.426,3.226,9.813,12.139c-0.13,0.443,2.72,1.762,4.42,2.82
		c2.07-8.661,8.224-12.198,18.368-10.261c20.53,3.922,3.473,17.075,5.173,22.978c5.8,4.135,9.878,7.04,14.33,10.214
		c11.685,2.064,23.764-11.017,36.223-1.072c0.303-4.198-0.339-10.938,1.026-11.373c4.448-1.417,9.632-0.53,15.517-0.53
		c1.56-3.184,3.64-7.428,6.188-12.634c8.351,5.924,5.003,17.192,11.612,26.288c1.153-4.792,1.978-8.217,2.801-11.644
		c0.857-0.056,1.712-0.111,2.569-0.167c0.45,6.477,0.901,12.953,1.37,19.699c3.684-4.127,8.908-6.942,6.418-13.255
		c4.184-1.256,4.494-3.937,3.363-7.741c-2.647-8.91-1.252-17.331,5.719-25.714c1.346,4.488,2.688,8.976,4.033,13.469
		c2.432-0.543,4.803-1.07,7.815-1.74c-2.26-4.068-4.138-7.446-6.673-12.008c5.02-0.375,9.212-0.688,15.086-1.126
		c0.346-0.431,2.012-2.512,4.005-4.997c3.281,4.262,6.104,7.93,8.93,11.599c1.06-0.949,2.118-1.899,3.177-2.851
		c-6.896-7.416-13.793-14.832-20.689-22.248c0.826-0.74,1.654-1.482,2.482-2.223c3.015,2.008,6.031,4.018,10.074,6.709
		c-1.425-2.974-2.396-5.001-4.189-8.741c7.49,2.902,9.416,6.743,9.908,12.606c0.295,3.498,3.059,6.787,4.713,10.171
		c1.275-0.719,2.551-1.439,3.826-2.158c-2.363-3.988-4.724-7.975-7.781-13.134c3.526,0.529,5.592,0.84,7.764,1.165
		c0.83-2.637,1.559-4.96,2.527-8.035c4.272,1.439,7.879,2.654,11.24,3.787c8.301-13.324-10.721-12.602-11.953-24.261
		c5.786,2.517,10.047,4.37,15.482,6.735c-0.801-5.35-1.495-10.013-2.408-16.118c2.303,0.405,5.992,0.252,6.352,1.271
		c1.053,2.988,1.113,6.46,0.963,9.715c-0.303,6.48-1.95,13.047-1.238,19.376c0.543,4.833,4.222,6.796,7.779,1.753
		c-1.698-5.263-9.886-8.173-2.486-17.432c3.828,9.398,6.826,17.274,10.291,24.941c0.98,2.17,3.04,4.668,5.115,5.275
		c1.752,0.514,4.238-1.49,5.905-2.175c-2.484-3.545-4.079-5.821-5.677-8.1c2.878-0.199,5.754-0.384,8.627-0.604
		c1.15-0.089,2.295-0.256,3.442-0.387c-0.036-0.726-0.07-1.452-0.106-2.177c-5.189,0-10.382,0-15.964,0
		c3.44-3.239,6.913-6.508,11.306-10.643c-9.711-11.702-19.313-23.269-28.912-34.834c0.383-0.618,0.765-1.236,1.148-1.854
		c2.374,1.401,5.007,2.506,7.055,4.281c2.594,2.247,4.504,5.286,7.104,7.521c1.984,1.704,4.586,2.689,6.913,3.994
		c0.852-2.283,1.984-4.504,2.497-6.861c1.249-5.727,1.85-6.275,6.765-5.366c-1.914,8.241-3.838,16.526-5.994,25.813
		c5.637-1.781,8.945-2.825,10.965-3.464c1.889-2.73,3.34-4.824,4.236-6.117c3.615,4.24,6.052,8.062,9.467,10.529
		c1.074,0.774,4.777-2.092,8.152-3.711c0.534,2.209,1.207,4.99,1.992,8.245c1.625,0.111,3.746,0.257,7.289,0.499
		c-4.463-7.551-8.47-13.527-16.178-16.201c-1.253-0.435-2.45-2.397-2.715-3.832c-0.176-0.936,1.5-3.183,2.137-3.105
		c1.519,0.187,3.217,1.115,4.285,2.262c1.794,1.927,3.152,4.257,5.496,7.541c0.376-4.708,0.607-7.591,0.838-10.472
		c0.883-0.07,1.762-0.141,2.645-0.212c1.27,4.241,2.539,8.48,3.928,13.126c2.685,0.475,5.572,0.984,8.458,1.493
		c-0.608-1.865-1.723-1.969-2.482-2.541c-1.472-1.108-2.862-2.39-3.98-3.834c-0.185-0.239,1.138-2.387,1.821-2.42
		c1.924-0.094,4.488-0.209,5.688,0.895c2.278,2.094,3.527,5.271,5.685,7.543c1.846,1.944,4.361,3.254,6.581,4.845
		c0.466-0.649,0.927-1.298,1.393-1.947c-5.871-4.62-5.871-4.62-0.694-9.017c2.621,6.547,3.848,14.025,8.056,18.964
		c4.868,5.712,12.511,8.016,19.291,3.815c0.335-5.512,0.661-9.996,0.869-14.485c0.318-6.921-5.741-12.057-15.054-12.839
		c-8.58-0.72-11.048-3.551-8.49-8.296c4.8,2.237,9.568,4.461,15.996,7.457c-4.219-9.423-8.428-16.411-10.457-23.984
		c-2.426-9.063-4.59-18.774-3.74-27.914c0.492-5.277,6.146-11.862,11.229-14.582c13.74-7.352,27.03-0.185,33.892,17.284
		c6.246-2.337,12.518-4.684,18.133-6.784c-2.51-2.922-5.015-6.02-7.711-8.94c-6.92-7.501-7.258-11.077-1.316-15.758
		c6.061-4.774,12.029-2.772,17.453,3.361c8.142,9.208,17.419,17.412,26.526,26.352c0.509-7.165,0.896-12.611,1.45-20.452
		c-5.025-3.113-6.289-10.139-3.67-18.826c3.737-12.408,6.691-25.063,21.428-31.036c2.895,4.399,5.984,8.229,8.1,12.538
		c2.543,5.177,1.254,10.039-3.691,13.318c-15.119,10.025-18.016,18.545-12.012,35.391c1.363,3.824,1.781,8.033,3.457,11.689
		c2.263,4.945,5.32,9.527,8.035,14.266c0.686-0.449,1.371-0.898,2.058-1.347c-0.646-3.208-0.479-6.905-2.075-9.538
		c-7.145-11.789-5.257-23.804-1.285-35.731c2.534-7.6,6.23-14.806,9.272-22.244c2.333-5.71,5.55-9.679,12.522-7.388
		c6.885,2.263,10.611,7.199,7.708,13.918c-2.915,6.749-7.177,13.176-11.958,18.801c-6.996,8.229-7.168,16.805-4.092,27.938
		c2.318-5.058,3.836-8.662,5.596-12.146c6.082-12.039,11.936-24.211,18.594-35.926c1.67-2.942,6.127-6.33,9.109-6.155
		c14.311,0.841,15.225,4.196,9.643,17.56c-2.135,5.117,0.096,12.058,0.387,19.391c3.223-2.182,4.525-3.064,5.947-4.026
		c0.619,2.112,1.113,3.797,1.607,5.481c0.811-0.221,1.622-0.443,2.436-0.665c-0.91-3.894-1.82-7.788-3.132-13.408
		c3.458,1.049,7.128,1.14,7.683,2.502c2.836,6.962,4.869,14.251,7.332,21.888c2.601-1.264,8.278-2.396,10.964-5.853
		c2.079-2.675,0.414-8.259,0.414-12.55c0.54-0.984,1.081-1.968,1.622-2.951c1.698,7.877,4.615,8.668,8.834,4.174
		c-2.84-3.084-5.117-7.534-8.586-8.85c-4.889-1.854-9.71-2.944-6.774-9.096c2.382-4.986,6.224-7.074,12.746-3.898
		c9.147,4.453,19.194,7.053,31.064,11.221c-6.079-10.747-13.716-12.56-22.52-12.409c-7.146,0.123-12.864-1.306-11.345-10.882
		c0.414-2.598-1.581-5.578-2.594-8.773c1.344-0.714,3.147-1.67,3.832-2.031c-0.63-4.479-1.112-7.895-1.688-11.973
		c3.567,0.346,6.477-0.01,6.814,0.76c3.072,7.023,8.721,5.19,14.176,4.819c1.535-0.104,3.445,0.84,4.701,1.884
		c7.527,6.247,14.914,12.663,23.057,19.627c0-5.707,1.096-12.137-0.232-18.021c-2.615-11.604,0.494-15.287,12.664-12.536
		c-1.207-6.938,3.249-7.555,7.953-6.388c15.201,3.766,30.064,8.236,34.896,26.053c0.125,0.462,1.414,0.608,2.236,0.932
		c0.434-15.088-13.392-28.092-28.058-27.457c-3.024,0.131-6.886-2.307-9.034-4.735c-1.389-1.569-1.471-6.628-0.157-7.705
		c1.952-1.601,5.778-1.779,8.6-1.312c13.8,2.282,22.824,11.553,31.567,23.063c0-9.414-0.298-17.793,0.201-26.123
		c0.131-2.184,2.326-5.221,4.316-6.027c1.815-0.735,5.714,0.303,6.756,1.859c1.383,2.062,0.835,5.392,1.201,8.166
		c0.475,3.619,1.029,7.228,1.303,9.107C1392.418,73.965,1396.82,70.262,1401.223,66.558z M340.301,239.603
		c-5.955,0-11.91,0-18.824,0c3.534,3.167,6.416,5.751,9.444,8.465c2.125-1.546,4.017-2.719,5.655-4.176
		c1.459-1.298,2.639-2.912,3.939-4.385c1.814,4.38,3.625,8.762,5.622,13.585c1.159-2.957,2.062-5.25,3.405-8.675
		c2.26,3.008,3.848,5.12,5.436,7.234c0.547-0.275,1.095-0.549,1.643-0.822c-1.447-4.936-2.895-9.87-4.664-15.909
		C347.542,236.687,343.941,238.128,340.301,239.603z M1278.354,114.287c15.983,1.035,24.035,11.818,30.757,24.332
		C1306.133,116.727,1292.939,106.369,1278.354,114.287z M55.309,29.239c-0.91-0.376-1.818-0.752-2.729-1.13
		C36.65,40.516,36.595,44.41,44.059,71.42c0-6.789-0.116-11.113,0.027-15.431c0.197-5.929-1.288-12.05,5.283-16.491
		C52.313,37.506,53.387,32.744,55.309,29.239z M396.345,245.334c1.071,0.274,2.144,0.547,3.216,0.819
		c1.945-6.588,3.891-13.176,6.157-20.854C392.267,229.794,392.267,229.794,396.345,245.334z M405.731,298.303
		c-2.234-1.972-5.341-3.354-5.794-5.342c-2.191-9.622-8.306,0.188-11.664-2.665c-1.086,2.322-3.563,5.106-2.975,6.87
		c1.304,3.919,4.143,7.324,6.356,10.939c0.825-0.547,1.649-1.094,2.476-1.642c-2.359-4.233-4.72-8.467-7.046-12.641
		C395.494,289.566,396.738,305.694,405.731,298.303z M1223.947,174.924c-0.455-6.264-0.684-13.135-1.58-19.918
		c-0.346-2.628-2.186-5.061-3.463-7.84C1212.116,154.006,1215.161,166.526,1223.947,174.924z M215.758,182.021
		c-2.038,16.313,1.974,21.388,15.887,20.777C226.514,196.091,221.386,189.383,215.758,182.021z M414.021,216.004
		c2.49-0.484,6.374-0.14,7.236-1.591c4.483-7.531,2.918-15.348-0.891-24.981c-2.873,2.443-4.841,4.114-7.308,6.212
		C421.425,200.613,420.625,208.787,414.021,216.004z M954.78,273.633c0.362-0.936,0.726-1.872,1.089-2.808
		c-5.455-2.606-10.906-5.213-18.283-8.74c0.275,5.203,0.521,9.847,0.769,14.491c0.919,0.046,1.839,0.092,2.759,0.139
		c0.684-1.974,1.365-3.948,1.961-5.669C947.243,271.967,951.01,272.801,954.78,273.633z M483.222,257.88
		c-0.037,1.119-0.078,2.239-0.118,3.357c7.684,0.516,15.373,1.37,23.045,1.246c1.488-0.024,2.915-3.871,4.614-6.306
		C500.63,256.804,491.926,257.342,483.222,257.88z M1192.742,175.383c-0.705,1.974-2.031,5.696-3.789,10.621
		c7.701-0.47,13.926-0.85,22.582-1.379C1203.982,180.91,1198.902,178.413,1192.742,175.383z M422.988,226.955
		c-1.225,0.372-2.447,0.742-3.671,1.113c2.019,7.785,4.037,15.57,6.054,23.355c1.11-0.236,2.219-0.473,3.329-0.709
		C424.595,243.21,432.698,233.407,422.988,226.955z M410.186,202.754c-1.207-0.683-2.417-1.364-3.625-2.046
		c-2.572,4.888-5.301,9.704-7.569,14.729c-0.394,0.871,0.849,3.043,1.916,3.803c0.649,0.464,3.206-0.286,3.534-1.069
		C406.567,213.12,408.314,207.91,410.186,202.754z M408.963,234.563c7.484,2.575,5.785,6.878,4.511,11.941
		c-0.512,2.03,1.943,4.934,3.448,7.173c0.172,0.254,2.928-1.23,4.486-1.908c-2.514-5.734-4.893-11.537-7.716-17.116
		C413.359,233.995,410.598,234.563,408.963,234.563z M455.181,266.914c-12.452,1.538-19.267,8.199-18.002,17.242
		C443.767,277.847,449.474,272.381,455.181,266.914z M448.98,245.45c8.317,1.136,13.334-1.903,14.739-9.26
		c-2.063,0.992-4.095,2.893-5.753,2.609C450.642,237.548,450.682,237.32,448.98,245.45z M967.65,298.671
		c-4.631-2.059-9.266-2.733-11.566-5.412c-5.957-6.941-5.546-7.294-8.17-6.938c2.863,5.155,5.723,10.311,8.93,16.089
		C959.508,301.49,963.211,300.208,967.65,298.671z M64.98,63.14c3.945-5.815,7.271-10.719,10.596-15.622
		c-1.859-0.776-5.021-2.602-5.373-2.164c-3.24,4.025-6.086,8.387-8.745,12.83C61.187,58.639,62.902,60.281,64.98,63.14z
		 M482.313,243.494c-0.532-9.811-9.622-6.646-14.929-12.148c1.098,5.309,1.766,8.526,2.515,12.148
		C474.125,243.494,478.039,243.494,482.313,243.494z M983.185,242.041c7.325,3.99,12.706,6.921,18.085,9.853
		c0.459-0.832,0.918-1.663,1.379-2.495C996.971,246.885,995.951,236.513,983.185,242.041z M487.62,250.198
		c0.644,0.916,1.284,1.831,1.928,2.746c1.362,0,2.974,0.475,4.036-0.087c3.33-1.76,6.477-3.876,9.543-6.063
		c0.1-0.07-1.969-3.604-2.117-3.536c-3.052,1.402-5.964,3.114-8.927,4.716C490.622,248.765,489.108,249.461,487.62,250.198z
		 M463.002,286.395c5.648-9.26-5.941-6.139-6.408-10.636c-2.916,2.698-5.83,5.395-8.745,8.092
		C458.376,280.256,458.376,280.256,463.002,286.395z M1203.207,164.886c-5.315,8.571-4.076,10.646,6.922,12.528
		C1207.781,173.167,1205.619,169.25,1203.207,164.886z"/>
	<path fill-rule="evenodd" clip-rule="evenodd" fill="#031022" d="M442.559,212.196c4.007-4.782,7.479-8.928,10.658-12.722
		c-0.227,1.58-0.577,4.052-1.041,7.309c2.744-0.377,5.268-0.724,7.791-1.07c0.125,0.543,0.248,1.086,0.373,1.628
		C454.541,208.925,448.741,210.508,442.559,212.196z"/>
</g>
</svg>
