<?xml version="1.0" encoding="utf-8"?>
<!-- Generator: Adobe Illustrator 16.0.0, SVG Export Plug-In . SVG Version: 6.00 Build 0)  -->
<!DOCTYPE svg PUBLIC "-//W3C//DTD SVG 1.1//EN" "http://www.w3.org/Graphics/SVG/1.1/DTD/svg11.dtd">
<svg version="1.1" id="圖層_1" xmlns="http://www.w3.org/2000/svg" xmlns:xlink="http://www.w3.org/1999/xlink" x="0px" y="0px"
	 width="854.382px" height="521.201px" viewBox="0 0 854.382 521.201" enable-background="new 0 0 854.382 521.201"
	 xml:space="preserve">
<g>
	<g>
		<path fill-rule="evenodd" clip-rule="evenodd" fill="#040000" d="M847.737,0.189c0.973,0,1.97,0.156,2.905-0.027
			c3.139-0.623,3.767,0.538,3.738,3.667c-0.185,19.646-0.094,39.294-0.094,58.94c-11.613,6.747-21.397,15.285-28.582,26.896
			c-4.424,7.151-11.033,10.871-20.136,9.758c-6.157-0.753-12.479-0.145-18.779-0.145c-0.236,3.234,2.093,3.516,3.655,4.188
			c15.161,6.526,29.282,15.011,42.546,24.63c7.905,5.732,14.251,13.619,21.296,20.537c0,4.365,0,8.732,0,13.098
			c-5.444-5.475-10.843-11-16.358-16.402c-2.354-2.306-4.67-4.799-8.488-5.578c0.174,0.929,0.066,1.816,0.449,2.17
			c7.57,6.936,10.791,15.746,11.542,25.763c0.265,3.532,2.541,6.241,4.915,8.718c3.324,3.465,4.623,7.902,5.996,12.293
			c0.52,1.659,0.585,3.506-1.26,4.474c-1.569,0.823-3.203-0.184-3.716-1.372c-4.025-9.341-14.665-15.057-14.12-27.041
			c0.251-5.549-3.71-9.094-9.597-11.008c1.791,17.395,11.812,30.752,19.248,44.992c6.374,12.211,8.722,24.972,9.916,38.255
			c0.145,1.635-0.245,3.407-0.768,4.989c-0.733,2.229-1.007,5.143-3.85,5.704c-3.584,0.706-2.209-3.833-5.048-4.97
			c-1.166,4.323,0.94,7.887,2.141,11.554c1.281,3.911,2.924,7.726,3.919,11.704c0.828,3.316,1.226,7.709-2.734,8.742
			c-4.21,1.097-3.204-3.733-4.284-6.055c-0.994-2.139-1.672-4.426-3.115-8.35c-1.331,5.283-0.776,8.541,0.876,11.77
			c0.92,1.795,1.597,3.943-0.464,5.203c-2.389,1.457-4.301-0.285-5.436-2.156c-2.658-4.379-4.76-9.042-4.076-14.374
			c0.375-2.911,0.517-5.735-0.623-8.548c-3.85,10.301-3.738,21.169-4.818,31.757c-0.708,6.958,3.902,13.292,6.092,19.913
			c1.572,4.766,2.899,8.75-1.87,13.035c-3.518,3.161-1.806,8.209-0.483,12.338c6.575,20.572,10.135,41.793,13.824,62.994
			c0.588,3.381,1.004,6.746-0.065,10.064c-0.608,1.888-1.657,3.732-4.009,3.551c-2.502-0.193-2.734-2.281-2.987-4.273
			c-1.766-13.893-6.892-27.152-8.02-41.271c-2.095,2.99,0.543,5.977,0.162,8.969c-1.191,9.336-1.965,18.578,1.245,27.861
			c1.196,3.455-1.504,6.93-2.84,10.443c-4.259,11.193-11.062,21.824-7.972,35.238c2.266,9.834,6.371,19.346,6.485,29.648
			c0.022,1.921-0.018,3.931-0.549,5.746c-0.697,2.382-3.003,3.146-5.172,3.333c-2.038,0.177-2.84-1.585-3.285-3.288
			c-4.87-18.479-10.414-36.988-5.689-56.316c1.59-6.495,3.789-12.604,3.866-19.565c0.194-17.81-6.413-33.958-11.274-50.729
			c-1.305,19.052-9.336,37.388-5.143,56.894c0.201,0.947,0.558,1.889,0.592,2.843c0.145,4.098,1.014,9.203-4.654,9.827
			c-5.566,0.613-6.055-4.42-6.777-8.506c-2.385-13.51-3.144-26.874,2.246-40.021c1.638-3.994,1.745-8.473,1.757-12.885
			c0.014-6.977,1.88-13.412,6.865-18.629c4.193-4.385,3.903-9.629,4.364-15.359c0.798-9.902-3.193-17.232-7.676-25.293
			c-3.054-5.492-3.551-12.473-4.821-18.861c-0.563-2.838-0.339-6.64,3.231-6.975c3.142-0.297,3.924,3.271,4.022,5.916
			c0.327,8.693,5.046,15.283,10.249,23.146c6.319-27.396-3.732-50.021-15.064-72.434c1.658,8.205,0.734,16.605,2.323,24.746
			c0.534,2.728,1.73,5.888-1.646,6.738c-3.576,0.902-3.2-2.701-3.442-4.96c-0.228-2.124-1.046-3.613-3.045-4.536
			c-5.028-2.32-5.427-5.99-2.194-9.927c1.821-2.219,1.847-4.132,1.174-6.657c-2.063-7.733-2.914-15.669-3.175-23.647
			c-0.114-3.565-0.266-6.651-4.438-8.108c-3.483-1.217-4.93-4.338-5.783-7.83c-1.617-6.612-4.762-12.529-9.287-18.045
			c2.521,9.064,2.718,18.236,2.649,27.434c-0.046,6.279,0.605,12.557-3.05,18.339c-2.079,3.284-0.148,4.821,3.334,5.046
			c2.312,0.15,5.706-0.693,6.303,2.19c0.714,3.454-2.732,4.487-5.302,5.909c-14.175,7.84-27.425,4.801-41.005-3.117
			c10.535,17.387,7.649,37.427,12.133,57.494c4.443-7.41,8.565-13.461,11.027-20.479c0.563-1.599,1.018-3.254,1.748-4.774
			c1.129-2.343,1.871-5.683,5.029-5.526c3.466,0.17,3.292,3.844,3.787,6.225c4.804,23.031,3.689,46.225,1.583,69.43
			c-0.063,0.717-0.079,1.578-0.475,2.105c-7.185,9.586-7.695,20.348-6.224,31.703c0.305,2.348-0.272,5.107,1.269,6.883
			c6.081,7,9.87,16.271,19.354,19.971c3.06,1.192,4.546,3.579,4.745,6.697c0.156,2.478-1.41,4.127-3.543,5
			c-3.038,1.244-5.017-0.798-6.961-2.669c-12.949-12.431-25.489-25.196-35.652-40.134c-4.064-5.973-7.289-12.003-6.769-19.502
			c-1.012,6.798,0.656,13.711-1.169,20.374c-0.799,2.913-1.503,6.97-5.913,5.628c-3.886-1.18-3.926-4.303-3.319-8.264
			c2.211-14.508,0.963-28.883-3.551-42.896c-1.135-3.516-2.32-7.232-1.342-10.697c2.49-8.828-1.348-16.211-4.422-24.897
			c-2.521,6.85-0.027,12.21,1.269,17.714c0.659,2.801,3.024,6.441-1.749,7.876c-4.371,1.314-6.083-1.649-7.035-5.305
			c-0.47-1.81-1.035-3.597-2.112-5.267c0.278,14.444,1.404,28.918,7.579,42.05c5.867,12.479,6.727,25.565,7.804,38.792
			c0.079,0.962,0.088,1.958-0.068,2.904c-0.654,3.919,0.079,9.606-5.197,9.857c-5.646,0.271-4.86-5.368-5.483-9.337
			c-0.898-5.671-1.254-11.382-1.516-17.122c-1.324,14.055,0.537,28.023,1.431,41.943c1.467,22.955,2.808,45.875,2.327,68.878
			c-0.048,2.386,0,5.4-3.479,5.214c-2.896-0.154-4.336-2.75-3.936-5.233c2.329-14.448-3.604-28.181-3.308-42.518
			c0.247-11.776-3.193-23.348-3.56-35.283c-0.171-5.499-5.492-10.98-8.927-16.173c-1.458-2.207-3.462-0.936-4.517,1.098
			c-1.658,3.199-1.288,6.623-0.648,9.961c4.933,25.779,2.567,51.303-5.992,75.677c-3.802,10.835-9.223,21.136-11.275,32.636
			c-0.963,5.412,0.299,11.184-2.638,16.273c-1.942,0-3.884,0-5.823,0c-1.64-3.146-1.597-6.507-1.424-9.938
			c0.705-14.077,4.185-27.375,9.855-40.309c3.162-7.209,7.781-14.623,2.403-23.191c-2.362-3.76-6.471-5.385-8.646-9.504
			c-4.688-8.879-8.958-17.658-8.185-28.23c-1.188,7.074-3.221,13.49-7.606,18.895c-2.045,2.516-4.097,6.201-8.239,3.895
			c-4.511-2.512-3.139-6.453-1.697-10.221c0.839-2.193,3.267-3.962,2.192-7.605c-4.333,5.475-10.309,7.578-14.609,11.879
			c-1.871,1.871-3.955,4.057-6.885,1.834c-2.457-1.863-2.389-4.643-1.895-7.33c0.68-3.668,3.321-5.955,6.371-7.5
			c4.236-2.146,7.52-5.317,10.538-8.793c8.728-10.045,17.856-19.727,18.266-34.436c0.145-5.156,2.062-10.512,4.214-15.309
			c4.73-10.547,4.735-21.902,6.438-33.305c-1.098,9.904-11.798,11.511-15.56,19.021c-0.929,1.854-2.984,2.453-5.073,1.626
			c-1.832-0.725-2.53-2.387-2.34-4.131c0.227-2.131,0.583-4.367,1.469-6.288c5.38-11.698,13.669-21.958,23.749-28.882
			c11.682-8.022,15.985-18.846,19.416-31c5.058-17.897,8.481-36.135,11-54.557c0.32-2.357,0.92-4.457-1.794-5.429
			c-3.235-1.159-4.009,1.085-4.906,3.632c-3.565,10.107-5.584,20.498-5.993,31.178c-0.393,10.252-1.486,20.332-6.692,29.432
			c-4.568,7.98-10.342,15.25-13.921,23.824c-1.398,3.355-3.943,4.162-7.053,2.167c-3.094-1.984-3.119-4.709-1.297-7.542
			c0.773-1.203,2.01-2.098,2.902-3.238c13.23-16.883,17.014-36.07,14.183-58.551c-8.078,12.701-14.637,24.304-16.343,38.033
			c-0.307,2.487-0.779,5.477-3.725,5.395c-3.693-0.104-2.385-3.617-2.449-5.731c-0.535-17.659,6.634-33.384,17.272-45.997
			c8.085-9.588,8.437-22.489,17.329-30.936c0.12-0.111-0.326-0.822-0.836-2.01c-3.316,3.089-6.266,6.221-9.6,8.857
			c-6.937,5.486-14.572,9.84-23.715,9.477c-3.576-0.146-9.361-0.156-9.515-4.748c-0.171-4.989,5.756-3.756,9.157-4.744
			c4.82-1.4,10.751-0.208,14.498-3.789c7.775-7.426,14.927-14.982,24.385-20.97c8.566-5.421,13.773-16.146,21.733-26.127
			c-14.211,4.876-26.375,9.655-39.347,11.467c-11.813,1.65-23.182,0.552-33.531-5.899c-1.93-1.203-4.719-2.973-2.957-5.698
			c1.513-2.343,4.113-0.583,5.888,0.408c7.249,4.048,14.851,4.817,25.219,3.015c-13.367-5.599-12.063-17.121-15.194-26.898
			c-1.7,1.535-3.1,3.885-5.578,2.612c-2.257-1.157-2.166-3.583-2.282-5.772c-0.157-2.979,0.4-5.771,1.938-8.373
			c1.83-3.095,2.138-6.146-0.836-9.645c-0.725,2.561-1.217,4.619-1.902,6.612c-0.722,2.101-2.194,3.181-4.497,2.515
			c-2.047-0.593-2.431-2.324-2.212-4.06c0.208-1.653,0.93-3.233,1.299-4.874c1.883-8.319-2.782-16.851,0.751-25.16
			c0.134-0.314-0.77-1.148-1.282-1.648c-4.131-4.035-2.226-8.143,1.157-10.615c6.098-4.457,12.485-9.67,21.006-5.371
			c4.353,2.195,5.598-0.922,6.751-3.984c1.43-3.796-1.253-4.776-4.042-5.201c-4.063-0.619-8.171-0.928-12.261-1.35
			c-12.227-1.258-22.606-8.393-34.467-10.857c-2.687-0.559-4.369-0.996-6.626,1.861c-4.824,6.112-8.79,12.399-11.243,19.876
			c-1.675,5.104-3.668,11.721-11.611,6.415c-0.951-0.636-2.063-0.549-2.447,0.449c-2.001,5.193-6.356,3.055-9.973,3.434
			c-4.145,0.434-9.25-2.303-11.868-0.91c-11.062,5.893-19.476-1.113-28.727-4.238c-2.258-0.76-3.241-2.588-1.633-4.52
			c3.611-4.342-1.665-4.176-2.51-3.941c-7.425,2.046-8.067-4.985-10.614-8.385c-2.926-3.904,4.271-4.205,4.662-8.515
			c-7.582,0.443-12.938-4.374-18.939-7.81c-3.775-2.16-7.402-4.965-11.931-5.043c-22.211-0.387-44.593-4.828-66.585,0.107
			c-17.02,3.82-32.945,10.441-44.168,25.469c-7.315,9.793-15.469,19.107-26.727,25.035c-4.951,2.609-10.43,0.401-15.645,2.418
			c4.044,4.896,10.596,8.154,10.497,14.565c-0.08,5.005,2.024,9.685,1.677,14.089c-0.586,7.498-0.565,14.645,1.498,21.839
			c0.162,0.56-0.281,1.483-0.725,1.997c-4.401,5.12-1.276,9.473,1.421,13.797c1.015,1.631,2.616,2.903,3.6,4.548
			c2.276,3.813,0.003,30.215-2.77,33.739c-3.38,4.301-8.189,5.076-12.396,2.763c-4.811-2.647-4.04-7.75-2.571-12.37
			c4.396-13.838,1.312-27.479-5.225-39.064c-5.049-8.96-6.43-15.725-0.48-23.742c4.699-6.328,3.607-12.236-0.997-17.898
			c-3.589-4.412-6.237-9.291-7.36-14.826c-0.686-3.371-2.334-6.01-4.6-8.546c1.473,7.56,0.96,15.762,5.268,22.253
			c5.327,8.033,5.082,15.9,1.723,24.135c-2.01,4.924-1.467,9.31,0.946,13.89c3.676,6.976,3.716,14.086,1.712,21.824
			c-1.644,6.329-3.92,12.37-6.078,18.464c-4.19,11.846,0.08,23.396,0.887,35.033c0.438,6.289-0.225,12.092-3.42,17.391
			c-3.645,6.042-14.706,8.714-21.588,5.577c-6.53-2.978-9.24-9.702-6.891-17.657c1.301-4.412,2.822-8.766,4.435-13.074
			c2.22-5.92,2.325-11.861,0.304-17.777c-2.63-7.697-2.729-15.334,1.029-22.567c2.925-5.628,3.281-11.376,0.918-16.831
			c-3.738-8.631-4.844-17.303-2.129-26.959c-5.561,2.543-5.773,6.234-4.95,10.697c0.905,4.882,3.827,9.828,1.221,14.822
			c-3.875,7.416-6.002,15.342-7.528,23.444c-0.827,4.402-2.644,7.804-6.891,9.491c-4.927,1.957-6.027,5.029-4.836,10.307
			c1.444,6.385,0.729,12.538-6.763,15.713c-7.869,3.336-15.667,2.314-19.138-3.077c-6.246-9.689-5.641-16.401,2.021-23.282
			c4.509-4.053,9.64-7.939,10.03-14.561c0.329-5.605,2.862-9.311,6.968-12.864c8.158-7.069,9.307-13.005,5.042-22.95
			c-2.583-6.029-2.703-11.945,1.132-17.266c3.628-5.031,5.592-10.666,7.622-16.367c3.432-9.646,7.309-19.047,15.462-25.898
			c1.058-0.889,2.71-1.736,2.024-3.451c-0.589-1.471-2.232-1.585-3.686-1.875c-9.853-1.961-19.598-2.019-29.465,0.338
			c-8.813,2.105-17.466,5.678-26.981,2.549c-9.919-3.261-19.382-7.051-28.175-12.928c-8.558-5.718-18.831-7.942-28.923-7.945
			c-29.06-0.012-57.981-1.471-86.754-5.521c-12.888-1.814-24.304-6.616-34.509-15.283c-9.953-8.453-21.196-15.277-34.529-17.83
			C7.005,3.097,2.517,4.264,0,0.189C282.579,0.189,565.157,0.189,847.737,0.189z M661.465,135.029
			c-0.845,1.877-0.731,3.705-0.251,5.656c0.537,2.189,2.323,5.082-1.169,6.133c-3.638,1.093-4.17-2.277-5.177-4.672
			c-0.359-0.857-0.778-1.693-1.693-3.662c-1.58,4.906-1.254,8.705,1.416,11.508c2.736,2.877,5.845-0.098,8.732-0.832
			c11.917-3.029,23.441-9.027,34.981-10.887c12.008-1.932,13.824-8.447,16.823-16.708c1.891-5.206,4.415-10.182,6.655-15.261
			c2.087-4.734,1.103-8.203-3.645-10.888c-4.608-2.608-9.632-4.392-13.821-7.89c-6.124-5.11-10.92-10.902-12.867-18.793
			c-2.024-8.197-8.034-11.66-15.752-12.871c-1.865-0.293-4.137-0.732-5.506,0.898c-1.654,1.967,0.537,3.506,1.268,5.157
			c3.77,8.499,11.513,14.276,15.456,22.697c2.188,4.677,4.65,8.608,0.176,13.851c-2.438,2.855-2.029,8.042-0.869,11.859
			c2.419,7.971-5.908,9.428-8.198,14.49c-0.574,1.261-3.861,0.268-3.48-1.794c1.504-8.14-5.568-7.608-10.285-11.03
			C665.08,120.811,664.577,128.102,661.465,135.029z M803.667,227.844c0.595,2.417,2.402,2.723,4.563,2.295
			c5.683-1.125,11.47-1.861,17.042-3.391c5.604-1.539,8.717-10.816,5.601-15.696c-1.006-1.573-2.035-3.604-4.486-1.531
			c-4.704,3.975-6.074-0.044-6.691-3.354c-0.938-5.025-3.804-8.746-6.651-12.668c-2.304-3.166-4.715-4.271-8.674-3.019
			c-3.426,1.085-4.713,2.183-2.05,5.237c2.385,2.736,4.927,5.346,7.195,8.176c2.266,2.825,3.647,6.092,0.56,9.109
			c-2.871,2.806-5.467,0.27-7.715-1.34c-2.52-1.8-4.708-4.059-7.042-6.119C797.431,213.342,801.757,220.095,803.667,227.844z
			 M729.559,134.709c-0.936,1.873-1.553,4.449,0.353,6.139c7.014,6.219,9.498,14.928,13.103,23.045
			c0.634,1.432,0.824,3.682,3.124,3.326c1.783-0.277,1.742-2.191,1.916-3.544c0.528-4.063,1.566-8.219,1.166-12.214
			c-1.536-15.359-1.465-30.882-4.498-46.092c-0.278-1.402-0.335-2.903-2.785-3.375C739.437,113.527,734.792,124.225,729.559,134.709
			z M731.233,159.175c-0.268-1.548-0.981-3.609-3.017-3.575c-2.059,0.035-2.517,2.039-2.832,3.689
			c-1.842,9.602-5.973,18.259-10.388,26.902c-3.869,7.578-0.597,12.245,7.491,11.654c0.48-0.036,0.964-0.055,1.446-0.062
			c12.14-0.173,12.14-0.173,12.128-13.241C736.72,175.66,732.693,167.66,731.233,159.175z M734.789,211.16
			c-1.623-2.563-12.943-2.203-14.968-0.108c-1.174,1.218-1.098,2.497-0.466,3.973c4.958,11.597,19.408,19.429,32.798,17.7
			c0.423-0.055,0.807-0.441,2.467-1.402C747.294,224.71,739.829,219.127,734.789,211.16z M817.774,368.691
			c0.42-12.09,9.676-23.865,1.025-36.23c-3.084-4.404-8.119-7.998-6.266-12.037C811.145,335.141,813.837,351.955,817.774,368.691z
			 M752.179,182.9c-0.785-3.59-3.418-2.844-5.308-0.497c-3.647,4.519-3.591,9.394-0.561,14.126c2.596,4.059,4.216,8.02,2.224,12.897
			c-2.016,4.929,4.355,5.052,4.778,10.182C761.15,205.705,754.694,194.383,752.179,182.9z M741.362,303.357
			c-1.223,2.307-0.077,4.701,1.927,6.48c3.38,3.002,4.77,7.86,9.955,10.409c0-11.623,0-22.737,0-33.853
			c-0.526-0.273-1.052-0.549-1.577-0.822C748.202,291.484,744.565,297.305,741.362,303.357z M801.931,125.266
			c4.565,6.602,9.686,12.451,16.951,16.4C818.776,122.912,814.764,118.971,801.931,125.266z M821.435,246.498
			c0.734-3.246-0.978-5.545-4.088-6.705c-1.472-0.548-3.013-2.218-4.522-0.416c-1.66,1.986-1.552,4.285-0.884,6.798
			c1.84,6.923,3.405,13.915,5.461,22.454C820.753,260.357,819.906,253.242,821.435,246.498z M664.546,395.838
			c0.119-1.11-0.034-2.761-1.717-2.511c-1.965,0.292-2.712,2.178-2.704,3.817c0.04,10.26-0.714,20.648,3.943,30.319
			c0.819,1.696,1.53,3.442,2.288,5.165C667.73,420.084,663.218,408.182,664.546,395.838z"/>
	</g>
</g>
</svg>
