<?xml version="1.0" encoding="utf-8"?>
<!-- Generator: Adobe Illustrator 16.0.0, SVG Export Plug-In . SVG Version: 6.00 Build 0)  -->
<!DOCTYPE svg PUBLIC "-//W3C//DTD SVG 1.1//EN" "http://www.w3.org/Graphics/SVG/1.1/DTD/svg11.dtd">
<svg version="1.1" id="圖層_1" xmlns="http://www.w3.org/2000/svg" xmlns:xlink="http://www.w3.org/1999/xlink" x="0px" y="0px"
	 width="1402.161px" height="389.1px" viewBox="0 0 1402.161 389.1" enable-background="new 0 0 1402.161 389.1"
	 xml:space="preserve">
<g>
	<path fill-rule="evenodd" clip-rule="evenodd" fill="#011328" d="M1253.182,389.1c-1.169,0-2.337,0-3.506,0
		c0.081-2.445-0.845-5.94,0.418-7.148c4.816-4.607,1.349-7.389-1.262-11.323c-1.515,1.357-2.472,2.424-3.625,3.197
		c-1.657,1.111-3.458,2.01-5.196,2.999c0.27-2.188,0.219-4.481,0.879-6.546c1.361-4.254,3.104-8.387,4.649-12.463
		c-3.312-1.486-6.852-1.908-7.718-3.656c-4.702-9.482-11.135-5.12-17.13-2.495c-9.491,4.155-5.183,15.394-10.701,21.81
		c-2.061,2.396-2.522,7.711-4.577,8.222c-3.354,0.833-7.414-1.183-12.525-2.286c-8.307,7.521-9.628-3.306-13.505-6.668
		c-3.841,1.546-9.26,3.518-10.96,1.803c-2.623-2.646-2.702-7.816-3.861-11.916c-0.849-2.971-3.916-7.08-7.007-7.1
		c-6.48-0.039-8.911-2.645-8.772-7.299c-8.035-1.921-15.211-3.635-24.211-5.783c0.271,6.08,0.49,10.985,0.707,15.892
		c-0.398-0.353-0.797-0.706-1.196-1.059c-1.794,2.892-3.587,5.782-5.494,8.855c-8.698-4.911,4.2-9.834,0.599-14.616
		c-3.582,2.863-7.639,5.538-10.963,8.93c-3.113,3.178-5.815,6.908-8.025,10.779c-2.206,3.866-3.574,8.211-5.371,12.491
		c-7.088-7.158,0.391-15.449-0.066-24.687c-3.271,3.757-5.851,6.723-9.062,10.41c-1.614-3.336-2.631-5.438-3.699-7.645
		c-2.723,1.868-4.888,3.352-7.052,4.836c-0.605-0.552-1.21-1.102-1.816-1.652c2.035-2.868,4.07-5.736,6.105-8.604
		c-0.367-0.609-0.735-1.219-1.105-1.828c-2.916,1.173-7.293,1.575-8.409,3.695c-1.703,3.231-1.149,7.651-1.323,9.333
		c-4.729,2.824-8.294,4.955-11.775,7.033c0.486-4.725,0.943-9.161,1.523-14.792c-3.768,2.202-5.728,3.349-8.9,5.203
		c1.758-9.915,16.866-15.033,6.762-25.248c6.021-4.664,11.811-9.146,17.6-13.629c-0.024-0.751-0.05-1.501-0.076-2.253
		c-16.085,1.632-4.83-15.087-15.885-18.912c-0.885,8.984-1.724,17.505-2.561,25.998c-2.667-0.75-5.984-1.683-7.802-2.194
		c-1.876-3.43-3.312-6.055-4.746-8.679c-0.911,0.24-1.821,0.48-2.731,0.722c-1.543,5.618-3.085,11.236-4.55,16.574
		c-3.009-0.778-6.351-1.643-9.694-2.508c2.516-4.902,11.104-6.599,6.857-15.081c15.915-2.572,6.726-19.707,18.614-27.785
		c-12.724-2.482-22.929-4.474-33.134-6.465c-0.23,0.931-0.462,1.86-0.693,2.792c1.159,0.758,2.325,1.506,3.475,2.277
		c4.707,3.154,11.104,5.319,6.896,13.309c-0.555,1.054,1.378,3.185,1.438,4.843c0.119,3.263,0.825,7.388-0.824,9.528
		c-1.154,1.495-5.816,0.288-8.479,0.288c-2.474,1.964-5.323,4.229-8.175,6.492c-2.012-3.492-4.543-6.797-5.878-10.531
		c-1.148-3.214-0.931-6.916-1.317-10.403c-0.843,0.068-1.684,0.137-2.525,0.206c0.245,4.881,0.377,9.77,0.759,14.641
		c0.655,8.393-6.687,9.643-11.753,11.854c-1.424,0.621-5.486-4.837-8.36-7.485c-0.609-0.562-1.306-1.027-2.261-1.769
		c-3.169,3.196-5.416,9.708-11.436,3.566c-2.15-2.193-5.036-3.647-7.333-5.718c-1.394-1.255-3.329-3.092-3.257-4.583
		c0.316-6.564,1.275-13.099,1.91-18.825c-3.224-1.563-6.112-2.963-9.002-4.363c2.145-4.081,4.289-8.162,6.24-11.873
		c-0.785-10.513-13.044-11.854-17.713-20.302c-0.536-0.972-5.021-1.09-6.476-0.002c-7.596,5.681-16.236,5.527-25.551,4.728
		c2.415-2.069,4.832-4.139,7.249-6.208c-0.539-0.688-1.078-1.375-1.616-2.063c-3.216,2.461-6.433,4.922-9.542,7.302
		c-3.584-2.576-13.301-0.888-10.229-10.549c-7.313-4.271-10.776-0.949-11.706,5.417c-2.966-0.786-5.38-1.425-7.768-2.058
		c1.116-3.644,1.798-7.997,3.759-11.663c1.865-3.483,5.072-6.248,8.216-9.951c3.729-0.738,9.075-1.796,15.751-3.118
		c-3.838-3.021-6.164-4.854-7.373-5.806c1.962-3.698,3.701-6.976,5.439-10.252c-0.942-0.561-1.886-1.12-2.828-1.68
		c-3.613,5.107-7.227,10.215-11.049,15.618c-1.785-1.446-3.879-3.144-5.753-4.663c3.706-4.256,7.131-8.188,10.554-12.12
		c-0.654-0.528-1.308-1.057-1.963-1.585c-2.128,2.618-4.275,7.493-6.383,7.476c-10.896-0.09-11.852,6.698-11.372,15.648
		c-1.378-2.015-2.213-3.238-4.026-5.891c-0.512,4.197-0.821,6.736-1.402,11.49c-1.527-7.047-2.573-11.875-3.621-16.703
		c-1.479,0.377-2.959,0.756-4.438,1.133c2.174,8.488,4.348,16.975,6.831,26.675c-2.556-3.439-4.394-5.913-6.792-9.14
		c-0.262,2.672-0.448,4.589-0.637,6.505c-0.389-0.038-0.777-0.075-1.166-0.113c0-7.936,0-15.873,0-24.134
		c-3.123,0.677-4.963,1.076-6.803,1.475c1.658-3.451,4.436-4.956,6.42-7.17c4.848-5.404,0.742-12.178-7.151-11.17
		c0,2.659,0,5.376,0,8.092c-0.801,0.616-1.603,1.23-2.403,1.846c-0.285-2.049-0.571-4.097-0.857-6.145
		c-0.193,1.132-0.385,2.264-0.576,3.395c-4.619,2.812-9.238,5.624-12.61,7.677c4.42,6.432,8.567,12.469,12.716,18.505
		c-0.721,0.508-1.439,1.015-2.16,1.522c-2.706-4.095-5.41-8.188-8.116-12.282c-0.955,0.322-1.912,0.646-2.867,0.97
		c0.726,7.777,1.45,15.555,2.165,23.229c-1.465-1.604-3.689-4.041-6.333-6.934c-2.11,3.961-3.825,7.18-5.54,10.399
		c-0.707-0.37-1.414-0.74-2.123-1.11c1.51-3.235,3.047-6.459,4.52-9.711c1.662-3.67,3.678-7.259,4.688-11.105
		c0.389-1.484-1.564-3.582-2.451-5.4c-0.963,1.686-2.377,3.271-2.784,5.08c-0.579,2.573-0.418,5.313-0.572,7.98
		c-2.586-4.123-4.243-8.469-3.177-11.989c0.9-2.969,4.963-4.979,7.625-7.413c-0.597-0.762-1.192-1.522-1.79-2.284
		c-6.865,4.943-13.73,9.888-20.606,14.839c2.394,9.385,4.686,18.366,6.977,27.349c-0.703,0.214-1.406,0.429-2.109,0.643
		c-1.273-3.71-2.547-7.422-3.895-11.344c-2.988,1.81-5.915,3.581-9.267,5.61c4.737,4.116,8.722,7.844,2.155,12.929
		c-7.404,5.733-11.174,4.704-18.424-5.363c-6.58,8.165-11.938,9.855-15.332,3.612c-3.578-6.587-10.098-13.13-6.258-22.223
		c0.952-2.255,0.955-4.909,1.394-7.38c-0.758-0.097-1.517-0.194-2.274-0.291c-0.796,6.518-2.701,13.144-2.085,19.525
		c0.657,6.828-2.479,7.382-7.425,7.327c-9.871-0.111-12.564-3.84-9.492-13.288c0.778-2.396,1.754-4.727,2.131-5.731
		c-4.529-3.028-8.404-5.621-13.365-8.938c-3.464-0.169-8.805-0.43-13.201-0.644c1.071,5.807,2.997,12.242,3.082,18.7
		c0.035,2.56-4.539,7.618-6.104,7.283c-4.038-0.862-7.891-3.722-11.183-6.528c-2.038-1.737-2.914-4.837-4.313-7.324
		c-0.798,0.466-1.594,0.932-2.392,1.398c1.597,2.989,2.86,6.227,4.868,8.908c2.824,3.771,6.555,7.032,2.952,12.251
		c-3.802,5.504-8.109,9.929-16.636,6.431c3.039,9.157,0.574,13.814-8.299,14.748c-11.127,1.171-9.48-6.668-9.031-14.313
		c-2.798,1.757-4.383,3.432-6.186,3.711c-2.278,0.354-5.417,0.366-6.925-0.935c-1.644-1.418-2.79-4.639-2.483-6.843
		c0.721-5.193,2.432-10.248,3.743-15.359c-3.822,2.749-5.56,7.722-8.624,8.751c-2.871,0.965-8.828-1.165-10.514-3.799
		c-7.731-12.07,8.322-11.522,9.59-16.185c-2.287-5.417-3.889-9.21-6.043-14.313c-1.775-1.287-8.742-5.401-8.374-6.22
		c2.483-5.525,6.52-10.353,9.926-15.226c-6.081-2.46-13.392-5.416-22.383-9.051c0.721,5.492,1.069,8.161,1.421,10.83
		c-0.916,0.354-1.83,0.707-2.744,1.061c-1.808-6.328-3.613-12.655-5.876-20.577c-1.558,5.289-2.641,8.973-3.841,13.052
		c-2.677-1.991-4.648-3.484-6.649-4.938c-2.183-1.584-4.392-3.132-6.644-4.73c-8.373,6.464-8.476,7.662-0.958,17.523
		c-11.475-0.471-4.3,11.104-9.728,14.902c-0.885-6.444-1.744-12.71-2.604-18.975c-0.933,0.054-1.868,0.108-2.8,0.162
		c-0.988,2.127-1.976,4.254-3.631,7.819c-3.555-10.348,7.408-22.589-7.897-28.224c2.992-2.803,5.228-4.899,8.596-8.057
		c-7.749,1.316-14.292,2.428-20.282,3.445c-1.96-7.974-3.67-14.925-5.379-21.876c-1.001,0.252-2.002,0.505-3.005,0.756
		c1.107,4.538,2.213,9.075,3.04,12.468c-5.909,7.258-1.441,14.078,0.414,20.349c-3.925,0.681-7.039,1.22-10.15,1.758
		c-0.392-5.645,6.936-11.169-0.394-16.323c6.781-10.181,3.728-26.861-5.429-29.396c-0.182,3.598-0.361,7.191-0.541,10.786
		c-6.859-8.011-7.766-22.064-22.971-18.724c-0.611,2.45-1.246,4.995-1.881,7.541c-0.91,0.085-1.821,0.168-2.731,0.253
		c-2.054-6.388-4.108-12.774-6.404-19.914c-7.377,9.773-5.6-4.525-10.8-3.449c1.653,7.492,3.287,14.895,4.92,22.297
		c-1.176,0.378-2.352,0.755-3.529,1.133c-2.594-5.239-5.189-10.479-7.669-15.485c-4.065-0.614-8.073-1.221-11.937-1.805
		c0,6.186,0,10.733,0,15.281c-0.786,0.157-1.572,0.314-2.359,0.472c-2.776-7.037-5.552-14.076-7.758-19.67
		c-4.104,2.241-8.066,4.406-13.133,7.176c-1.352-5.557-2.498-10.269-3.644-14.981c-0.474,0.057-0.948,0.113-1.423,0.17
		c0,5.499,0,10.999,0,16.499c-9.459-8.985-6.578-20.19-6.685-30.791c-1.028,0.029-2.058,0.061-3.087,0.091
		c0.675,13.84,1.35,27.681,2.025,41.521c-1.104,0.132-2.207,0.265-3.309,0.398c-2.021-6.921-4.041-13.841-6.615-22.664
		c-1.733,4.862-2.486,7.987-3.957,10.727c-0.916,1.704-2.919,2.822-4.435,4.203c-0.8-1.999-2.135-3.963-2.269-6.006
		c-0.18-2.758,1.882-6.549,0.67-8.191c-4.072-5.523-9.168-10.291-14.195-15.694c-1.671,2.384-3.186,4.546-4.953,7.067
		c-8.734-7.536,3.641-15.039-0.977-22.172c-6.774,0.425-10.049,3.499-9.676,10.529c0.092,1.702-1.551,3.921-3.008,5.207
		c-6.97,6.15-7.254,9.052-1.482,16.884c1.294,1.756,1.995,3.948,3.146,6.3c-6.816-2.652-12.409-4.83-17.294-6.731
		c-1.852,6.685-3.062,11.057-4.271,15.43c-0.852-0.119-1.701-0.239-2.552-0.358c-0.884-7.247-1.768-14.495-2.766-22.676
		c-2.823,5.807-5.176,10.646-8.457,17.395c-1.03-4.802-1.618-7.544-2.364-11.021c-1.822,2.725-3.123,4.671-4.424,6.616
		c-0.591-0.128-1.182-0.255-1.771-0.383c0-3.538,0-7.075,0-10.938c-12.241,4.332-4.803,10.521-4.103,15.515
		c-2.219,5.493-4.438,10.987-6.656,16.481c-0.462-0.025-0.923-0.049-1.384-0.073c-0.72-6.069-1.439-12.138-2.448-20.648
		c-3.07,4.258-4.401,6.105-5.733,7.953c-1.428-7.114,1.508-15.581-1.498-20.039c-2.629-3.896-3.891-14.171-14.755-10.989
		c0,5.545,0,11.212,0,16.484c-3.983-1.367-9.618-5.331-13.347-3.991c-3.465,1.245-4.897,8.146-8.486,14.947
		c-1.115-9.771-1.94-17.003-2.935-25.718c-3.079,6.369-5.358,11.083-7.638,15.797c-0.584-0.122-1.169-0.245-1.754-0.368
		c-0.371-2.612-0.742-5.226-1.146-8.07c-1.631,2.201-3.163,4.27-4.695,6.337c-0.671-0.175-1.343-0.349-2.016-0.523
		c0-3.73,0-7.461,0-11.523c-11.182,5.199-4.376,11.031-0.932,16.697c-2.778,0.709-4.788,1.222-5.187,1.323
		c-1.485,5.491-2.616,9.675-3.747,13.858c-0.899-0.123-1.798-0.245-2.696-0.367c-0.347-2.712-0.692-5.423-1.054-8.25
		c-12.761,11.745-18.214,11.554-27.643,1.026c-5.965,1.893-10.924,4.817-15.785,4.665c-6.025-0.188-9.705-4.439-9.312-11.417
		c0.126-2.234-1.776-4.583-3.087-7.672c-3.851,6.875-5.598,9.994-7.338,13.104c1.593,2.851,3.179,5.709,5.289,9.513
		c-7.93-2.866-10.676-14.323-21.277-8.197c-1.833-3.562-5.65-7.444-5.113-10.582c1.762-10.282,0.654-18.724-8.945-24.521
		c-0.57-0.346-1.006-0.912-1.515-1.385c-6.036,6.92-2.995,13.578-0.941,20.562c1.337,4.545,3.281,11.745,1.104,13.944
		c-5.822,5.881-3.44,10.097,0.869,15.334c-6.912-1.377-9.774-8.156-7.536-13.83c1.6-4.056,1.918-8.615,2.808-12.951
		c-1.044-0.189-2.088-0.381-3.131-0.571c3.706,9.095-14.217,15.65-1.14,25.397c-10.228,3.068-3.7,8.726-3.294,12.674
		c-2.766,0.434-5.264,0.826-7.129,1.118c-1.125-7.146-2.252-14.313-3.537-22.485c-2.807,6.43-5.104,11.696-7.404,16.963
		c-0.603-0.118-1.204-0.236-1.807-0.354c-0.374-2.771-0.748-5.543-1.202-8.909c-1.966,2.401-3.431,4.189-4.895,5.978
		c-0.951-4.856-0.644-9.21,0.139-13.478c1.447-7.897,1.423-8.221-4.943-11.157c0.605,4.505,3.219,10.749,1.375,12.634
		c-6.322,6.463-5.96,11.674-1.038,16.035c-3.033,6.532-5.548,11.944-8.539,18.384c-1.185-7.188-2.164-13.128-3.144-19.068
		c-1.008-0.098-2.017-0.194-3.025-0.291c-0.771,1.714-1.544,3.428-2.315,5.141c-0.759-0.268-1.518-0.535-2.276-0.803
		c2.686-10.721,5.755-21.471-9.623-24.315c-3.517-0.65-5.505-1.588-8.703,2.061c-3.644,4.154-8.11,8.481-15.421,8.252
		c-3.639-0.115-7.424,4.404-10.19,6.208c-3.158,0.51-5.92,0.454-8.227,1.449c-3.216,1.389-7.718,5.833-8.845,5.025
		c-6.37-4.563-16.232,3.591-21.09-6.504c-1.493-3.102-6.563-4.48-9.995-6.648C0,101.656,0,50.828,0,0
		c467.387,0,934.773,0,1402.161,0c0,98.151,0,196.303,0,294.454c-1.46,0.456-4.188,0.928-4.184,1.364
		c0.057,4.488,0.557,8.969,0.932,13.453c-0.37-0.631-0.738-1.263-1.107-1.894c-3.568,3.603-7.968,6.707-10.506,10.929
		c-3.379,5.618-0.039,9.501,5.188,12.639c1.838,1.104,2.211,4.648,3.256,7.078c-2.544-0.217-5.088-0.435-8.036-0.687
		c-3.091,5.111,9.46,17.655-7.521,17.854c-1.957,0.022-3.876,3.362-5.812,5.165c-0.493-3.048-0.901-6.111-1.511-9.136
		c-0.334-1.662-1.094-3.235-1.5-4.889c-0.534-2.176-0.909-4.39-1.354-6.587c-1.364,0.745-3.654,1.26-3.908,2.28
		c-0.605,2.441-0.685,5.214-0.15,7.675c0.441,2.036,2.064,3.816,3.163,5.711c-0.514,0.435-1.025,0.87-1.539,1.305
		c-2.7-0.979-5.401-1.958-9.77-3.541c2.076,5.672,3.57,9.756,5.037,13.767c-5.353,0.627-10.424,1.222-14.095,1.651
		c0.694-6.478,1.268-11.811,1.924-17.913c-5.505,4.363-9.271,7.349-14.019,11.111c-0.032,0.422-0.198,2.65-0.528,7.055
		c-5.357-5.127-14.281-2.752-14.287-12.749c0-1.31-2.821-2.616-4.338-3.925c-0.573,0.675-1.148,1.349-1.724,2.022
		c1.402,2.108,2.804,4.219,4.138,6.228c-4.014,1.387-7.102,2.454-10.188,3.521c1.056,2.943,2.111,5.886,3.323,9.259
		c-10.983-0.602-10.604-9.834-12.662-16.254c-3.446,3.158-6.722,6.268-10.123,9.232c-1.556,1.355-3.36,2.425-5.053,3.624
		c-0.728-2.318-1.456-4.638-1.854-5.899c-3.368,1.238-7.016,2.579-10.661,3.919c-0.35-0.796-0.697-1.593-1.045-2.389
		c1.351-2.225,2.703-4.45,4.054-6.675c-0.384-0.339-0.767-0.679-1.15-1.019c-3.957,2.572-7.915,5.145-12.312,8.003
		c3.464,2.911,5.609,4.711,7.752,6.511C1257.468,372.197,1259.508,384.865,1253.182,389.1z M873.119,185.017
		c-0.974,0.52-1.95,1.039-2.924,1.56c0.991,9.184,1.982,18.367,2.974,27.552c1.299,0.552,2.598,1.104,3.896,1.657
		c5.33-4.466,10.662-8.932,16.861-14.125C886.408,195.646,879.764,190.33,873.119,185.017z M1343.088,313.931
		c-2.149,5.48-4.872,10.838-6.094,16.517c-0.354,1.653,3.574,4.229,5.539,6.383C1344.168,328.535,1355.768,322.776,1343.088,313.931
		z M77.479,111.809c-0.598,0.133-1.193,0.266-1.79,0.398c1.945,5.852,3.891,11.703,5.836,17.555
		c0.712-0.188,1.425-0.376,2.137-0.564c0.225-1.783,0.449-3.567,1-7.941c2.553,6.015,4.134,9.738,6.722,15.835
		c0.789-5.285,2.918-10.009,1.48-11.695C88.473,120.239,82.709,116.251,77.479,111.809z M1372.995,329.835
		c1.458,1.962,3.543,4.763,5.628,7.564c1.101-6.204-0.873-11.908-0.125-17.229c0.655-4.659,4.366-8.89,7.603-14.944
		C1371.694,309.729,1376.55,321.433,1372.995,329.835z M556.387,159.81c3.782,6.433-0.666,16.64,9.056,20.351
		C561.782,173.671,568.874,162.252,556.387,159.81z M864.767,205.917c-1.075,0.251-2.152,0.502-3.227,0.752
		c0,3.92-1.166,8.459,0.457,11.517c0.908,1.713,6.438,0.976,11.773,1.543C869.729,213.53,867.248,209.724,864.767,205.917z
		 M426.467,103.874c0.775,0.514,1.551,1.027,2.326,1.542c5.364-5.617,8.787-11.971,8.593-19.697
		c-0.922-0.364-1.845-0.73-2.768-1.095C431.901,91.041,429.185,97.457,426.467,103.874z M416.021,123.069
		c-2.359-6.34-4.719-12.682-7.105-19.097C402.938,111.78,403.487,113.842,416.021,123.069z M1356.808,324.079
		c1.939,8.311-10.175,13.69-1.483,21.686C1363.495,329.628,1363.495,329.628,1356.808,324.079z M375.27,98.175
		c1.401,0.4,2.802,0.8,4.203,1.199c1.077-4.287,2.155-8.574,3.233-12.862c-1.273-0.309-3.627-0.981-3.662-0.874
		C377.653,89.771,376.476,93.979,375.27,98.175z M1348.239,305.35c-0.369,1.074-0.74,2.147-1.11,3.222
		c4.221,2.162,7.071,10.099,14.633,1.792C1356.759,308.509,1352.498,306.929,1348.239,305.35z"/>
</g>
</svg>
