<?xml version="1.0" encoding="utf-8"?>
<!-- Generator: Adobe Illustrator 16.0.0, SVG Export Plug-In . SVG Version: 6.00 Build 0)  -->
<!DOCTYPE svg PUBLIC "-//W3C//DTD SVG 1.1//EN" "http://www.w3.org/Graphics/SVG/1.1/DTD/svg11.dtd">
<svg version="1.1" id="圖層_1" xmlns="http://www.w3.org/2000/svg" xmlns:xlink="http://www.w3.org/1999/xlink" x="0px" y="0px"
	 width="998.51px" height="345.05px" viewBox="0 0 998.51 345.05" enable-background="new 0 0 998.51 345.05" xml:space="preserve">
<g>
	<g>
		<path fill-rule="evenodd" clip-rule="evenodd" fill="#113F5A" d="M998.369,49.48c-7.809-0.261-15.379,1.579-22.879,3.229
			c-4.051,0.89-8.17,2.771-10.25,7.31c-1.95,4.24-6.61,5.57-10.24,7.711c-3.24,1.899-3.881-0.851-3.561-3.79
			c0.811-7.591,0.7-15.29,2.95-22.71c1.421-4.73,1-9.601,0.63-14.41c-0.24-3.09-1.75-6-5.4-5.4c-3.51,0.57-4.42,3.67-3.68,6.771
			c1.03,4.29,1.23,8.579,1.2,12.939c-0.03,2.851-0.659,5.28-4.47,6.93c-0.13-11.26-8.08-20.939-4.03-32.84
			c1.72-5.08,0.3-10.55-2.85-15.22h-13.101c-1,3.98-2.289,7.88-0.51,12.07c4.7,11.02,0.9,22.85,3,34.149
			c0.131,0.721-0.67,1.62-1.279,2.971c-3.621-5.921-3.021-12.96-7.771-17.58c-2.37-2.301-3.66-4.83-3.261-8.4
			c0.391-3.62-1.039-6.82-5.01-7.81c-4.02-1-7.359,0.84-9.439,3.989c-2.9,4.38-0.061,7.73,2.21,11.74
			c4.87,8.62,13.83,15.96,10.31,27.83c-0.68,2.31-0.14,4.85,1.25,7c3.45,5.3,4,11.99,8.221,16.92c1.359,1.601,0.9,2.8-0.58,4.32
			c-8.74,8.93-9.9,15.55-4.6,26.89c1.359,2.9,0.93,5.45,0.33,8.391c-3.061,15.06-10.041,28.75-14.75,43.229
			c-3.261,10.021-9.65,14.42-20.201,14.21c-7.22-0.15-11.289,3.01-13.6,9.54c-2.42,6.85-5.52,13.47-7.66,20.4
			c-2.439,7.89-7.56,10.229-15.359,10.069c-6.311-0.13-12.41-2.54-18.78-1.3c-2.72,0.54-6.101,2.39-7.841-1.02
			c-1.59-3.101,0.431-6.181,2.351-8.67c11.64-15.07,22.96-30.341,29.13-48.66c1.16-3.44,4.76-7.87,1.141-10.57
			c-3.92-2.92-5.75,2.78-8.51,4.69c-1.861,1.29-3.07,4.189-6.07,2.71c-1.33-0.65-2.4-1.86-2.32-3.44c0.15-3.07,2.29-5.1,4.83-5.78
			c6.109-1.63,9.74-6.97,15.26-9.5c2.71-1.239,4.221-4.04,3.61-7.31c-0.15-0.79-1.16-2.09-1.64-2.04
			c-3.041,0.34-4.11,3.02-5.59,5.19c-0.08,0.119-0.74-0.15-1.131-0.25c1.24-5.73,1.2-5.66-4.17-9.65c-1.09-0.811-1.8-2.24-2.449-3.5
			c-4.66-9.04,1.799-16.92,3.039-25.29s8.62-15.83,3.33-25.19c-1.07-1.88-1.49-4.64-3.75-4.97c-2.869-0.42-2.811,2.73-3.75,4.521
			c-3.93,7.489-3.6,16.869-10.779,23.09c0.359-3.521-0.701-6.92-1.83-10.29c-0.66-1.98-2.34-2.99-3.74-1.01
			c-4.35,6.159-10.54,11.699-7.131,20.72c1.051,2.79,1.24,6.02-0.479,9.109c-3.069-1.729-0.25-7.119-4.09-6.899
			c-3.771,0.21-1.319,4.47-2.479,6.64c-0.33,0.63-0.381,1.53-0.871,1.95c-6.92,5.89-10.31,14.17-14.58,22.14
			c-0.899-0.8-1.469-1.199-1.899-1.71c-8.67-10.439-0.319-24.26-6.931-35.27c-1.239-2.07,2.99-3.351,3.73-5.61
			c0.28-0.859,0.52-2.41,0.11-2.71c-3.64-2.6-4.86-9.79-9.261-8.81c-4.609,1.02-4.729,7.29-4.42,11.91
			c0.16,2.33,1.291,4.649,2.271,6.85c1.03,2.34,1.45,4.42,0.12,6.89c-2.79,5.19-2.721,10.511-0.73,16.13
			c1.08,3.04,2.7,6.28,1.61,9.961c-3.03-1.051-2.34-6.74-6.67-5.49c-3.62,1.04,0.12,4.979-2.399,7.1
			c-4.361-2.33-5.141-7.35-7.98-10.75c-1.221-1.46-2.29-3.59-4.631-2.57c-2.359,1.03-2.77,3.351-2.09,5.601
			c0.99,3.229,2.261,6.38,3.471,9.54c0.49,1.3,1.82,2.59,0.27,3.87c-1,0.83-2.279,0.51-3.43-0.061c-1.68-0.84-3.4-2.399-5.13-0.22
			c-1.56,1.96-0.99,4.07-0.17,6.19c1.271,3.3,3.8,5.319,6.37,7.64c6.89,6.229,14.5,11.81,21.49,20.88
			c-9.121-1.46-14.98-4.94-19.5-10.38c-7.131-8.61-16.91-14.24-24.48-22.36c-1.42-1.529-3.59-4.06-6.25-2.39
			c-2.75,1.74-2.189,4.91-1.15,7.28c4.721,10.859,9.721,21.6,14.62,32.38c0.101,0.21,0.3,0.38,0.46,0.56
			c7.73,8.9,7.711,9.16-2.08,15.92c-1.189,0.82-2.529,1.42-3.85,2.03c-10.76,4.93-20.721,11.63-32.5,14.29
			c-3.37,0.77-5.99,2.81-4.79,6.75c1.101,3.58,4.17,3.479,7.229,2.87c5.931-1.18,11.701-2.82,17.5-4.62
			c13.4-4.15,24.461-13.68,38.641-15.93c11.75-1.86,11.699-2.101,8.42,8.88c-0.78,2.609-1.49,5.49,1.311,7.229
			c2.93,1.82,5.59,0.38,7.859-1.729c3.21-3,4.5-7.09,5.38-11.86c3.39,2.78,4.86,5.521,6.14,8.4c3.9,8.739,3.41,9.41-6.01,10.779
			c-10.51,1.521-21.21,1.811-31.27,6.141c-5.84,2.52-8.961,6.46-7.461,12.319c1.701,6.631-1.619,7.04-6.539,7.66
			c-14.99,1.891-30.01,1.33-45.02,1.23c-16.711-0.11-33.5-0.97-50.091-0.38c-19.21,0.67-38.22-0.34-57.29-1.37
			c-3.74-0.2-8.07-0.271-13.09-3.54c5.1-0.11,8.01-1.351,9.99-4.42c4.14-6.431,7.56-13.4,7.29-20.98
			c-0.22-6.08,0.62-11.16,3.93-16.279c2.37-3.65,4.43-7.37,7.53-10.561c3.44-3.53,3.18-8.17,1.17-12.229
			c-1.75-3.521-5.55-3.48-9.02-3.08c-4.29,0.489-5.72,3.21-6.58,7.33c-1.53,7.35-5.98,13.449-10.27,19.67
			c2.83-9.82-1-20.141,3.13-29.88c2-4.69,0.58-9.41-4.86-11.24c-5.31-1.79-9.1,0.02-11.68,5.45c-3.16,6.689-4.67,13.159-1.7,20.27
			c1.91,4.58-0.4,7.96-3.34,11.71c-2.19-4.17-0.2-7.41,0.08-10.689c0.33-4-1.05-6.7-5.18-7.37c-3.89-0.62-4.89,2.199-5.7,5.17
			c-1.53,5.529-1.83,11.069,0.43,16.41c2.06,4.859,2.31,10.119,2,14.97c-0.35,5.61,0.51,10.42,2.82,15.38
			c4.47,9.58,3.72,11.26-6.07,13.58c-11.55,2.729-22.65,9.39-35.19,4.189c-5.56-2.3-11.26-2.13-17.15-0.96
			c-4.5,0.9-8.76,0.98-12.68,0.07c-1.54-0.02-3.06-0.13-4.44-0.62c-3.45-1.21-6.58-2.29-10.4-1.319c-2.21,0.56-4.28,0.79-5.72,2.72
			c-1.71,2.3-4.1,3.45-6.83,3.92c-1.72,0.3-3.47,0.63-4.92,1.54c-4.78,2.979-10.06,3.56-15.5,3.53c-1.64-0.011-3.64,0.13-3.77-2.091
			c-0.14-2.26,1.92-2.26,3.53-2.47c0.38-0.05,0.77,0.03,1.15,0.04l0.08-6.54c-2.18,0.601-4.09,1.641-6.15,2.521
			c-7.24,3.13-14.85,2.189-22.4,1.51c-0.69-0.07-1.43-0.26-1.5-1.07c-0.07-0.859,0.08-1.81,0.96-2.25
			c0.67-0.319,1.46-0.47,2.21-0.59c4.04-0.64,8.03,0.34,12.02,0.57c5.46,0.319,9.16-3.04,13.26-5.45l1.63,2.56l0.09-6.649
			c-0.8,0.029-1.63,0.08-1.87-0.88c-0.23-0.91,0.42-1.44,1.12-1.811c1.23-0.63,2.57-0.7,3.93-0.689c8.54,0.04-5.33-4.65,3.15-3.44
			c0.66,0.09,11.81-0.84,12.5-0.84c-2.82-3.67,6.26-1.57,3.45-5.17c1.51-2.05,5.33-0.21,5.27-3.25c-0.07-3.01-3.24-3.87-5.42-3.71
			c-8.16,0.6-8.48-8.5-8.71-10.79c-0.78-7.75,0.17-8.12-7.67-6.51c-2.27,0.47-6.22,1.56-5.7-1.601c0.66-4.02-2.18-9.74,3.92-12.149
			c1.8-0.71,2.57-2.15,2.23-4.08c-0.44-2.44-2.29-2.95-4.35-2.95c-3.44,0.02-6.53-1.15-9.78-2.04c-3.86-1.061-8.18-0.38-10.7,3.979
			c-1.1,1.91-2.04,4.561-5.39,3.74c-0.79-4.689,3.79-6.52,5.05-10.01c0.71-1.94,2.64-4.24,0.23-5.88c-2.06-1.4-3.33,1.06-4.76,2.24
			c-2.11,1.729-3.51,4.75-7.12,4c-0.6-2.99,1.84-3.841,3.44-4.99c3.57-2.57,4.97-6.49,6.77-10.16c0.91-1.84,1.35-3.84-0.95-5.03
			c-1.97-1.029-3.14,0.391-4.13,1.851c-0.41,0.6-0.7,1.29-1.15,1.859c-4.05,5.16-5.31,5.17-8.02,0.12
			c-0.82-1.54-2.34-1.569-3.77-1.68c-2.29-0.17-4.82-0.68-5.42-2.96c-1.6-6.04-4.41-6.84-9.87-4c-2.76,1.439-6.25,0.75-7.63,5.01
			c-0.39,1.21-4.17,2.83-7.04,2.51c-5.62-0.62-8.67,2.63-7.87,8.48c0.33,2.39,1.45,4.7,1.55,7.08c0.12,2.92,1.63,8.16-1.6,8.18
			c-4.03,0.021-1.95-4.92-1.9-7.78c0.11-6.279-4.6-11.62-9.46-9.67c-4.81,1.94-9.88,1.16-14.51,1.511
			c-6.38,0.489-5.19,3.439-3.89,6.239c1.43,3.05,2.42,5.46,0.04,8.55c-0.78-4.359-2.3-7.449-7.2-7.729
			c-0.61-0.04-0.15-4.35-2.86-3.97c-2.41,0.35-1.79,3.069-2.03,4.899c-0.27,2.11-1.08,3.82-3.27,4.311
			c-2.63,0.59-3.03-1.78-4.03-3.34c-1.03-1.631-1.98-3.351-3.24-4.79c-0.98-1.12-3.43-1.82-3.42-0.11
			c0.03,3.97-7.08,5.44-3.27,10.49c0.97,1.29-0.03,2.83-1.83,3.17c-2.23,0.42-2.44,1.93-3.26,3.87c-2.63,6.17-1.85,12.42-1.59,18.85
			c-4.81-0.6-10.83-2.52-6.41,6.021c0.38,0.739,1.22,2.46,0.1,2.239c-5.34-1.06-4.49,5.101-7.86,6.33c-1.98,0.73-2.76,2.7-1.79,4.86
			c0.94,2.08,2.79,2.34,4.84,2.47c3.29,0.21,6.31-2.34,10.24-1.05c-2.17,3.89-6.04,2.19-8.55,3.63c-3.52,2.021-8.08,3.96-6.92,8.97
			c1.13,4.88,4.89,6.99,10.11,5.471c1.34-0.391,3.36-1.28,3.98,0.279c2.91,7.29,6.84,3.561,10.69,1.23
			c1.34-0.82,3.02-1.47,3.77,0.149c1.08,2.341-1.09,2.79-2.72,3.15c-2.98,0.67-7.49-0.65-8.47,2.8c-2.4,8.5-9.4,7.42-15.17,7.721
			c-9.84,0.52-18.82,3.13-28.04,6.55c-21.42,7.95-41.44,19.979-64.92,22.2c-21.43,2.02-42.03,10.25-63.85,9.39
			c-9.43-0.38-17.76,1.939-25.44,6.979c-26.2,17.19-56.04,24.771-85.73,32.82c-4.19,1.14-8.86-0.3-12.67,2.54
			c330.85,0,661.7-0.02,992.54,0.13c4.989,0,5.979-0.97,5.97-5.96C998.32,242.56,998.369,146.02,998.369,49.48z M995.83,158.92
			c-1,1.57-2.03,3.6-4.48,1.53c-4.71-3.97-6.08,0.04-6.689,3.35c-0.94,5.03-3.811,8.75-6.66,12.67
			c-2.301,3.17-4.71,4.271-8.67,3.021c-0.26-0.08-0.51-0.16-0.74-0.25c-0.48,4.67-1.12,9.33-2.04,13.95
			c-0.28,1.399-0.33,2.909-2.78,3.38c-2.5-11.54-7.15-22.23-12.38-32.721c-0.94-1.869-1.55-4.449,0.351-6.14
			c5.689-5.04,8.399-11.71,11.14-18.38c-0.39-1.98-0.79-3.94-1.2-5.91c-2.061-9.95-0.32-16.07,3.99-15.3
			c0.26,0.04,0.51,0.07,0.779,0.08c6.111,0.21,6.451,0.22,6.461,14.67c6.22-3.8,13.84-5.7,21.15-4.76
			c0.43,0.05,0.809,0.439,2.469,1.399c-4.619,4.16-9.289,7.92-13.369,12.12c2.38,0.45,4.74,0.95,7.07,1.59
			C995.84,144.76,998.949,154.04,995.83,158.92z"/>
	</g>
</g>
</svg>
