<?xml version="1.0" encoding="utf-8"?>
<!-- Generator: Adobe Illustrator 16.0.0, SVG Export Plug-In . SVG Version: 6.00 Build 0)  -->
<!DOCTYPE svg PUBLIC "-//W3C//DTD SVG 1.1//EN" "http://www.w3.org/Graphics/SVG/1.1/DTD/svg11.dtd">
<svg version="1.1" id="圖層_1" xmlns="http://www.w3.org/2000/svg" xmlns:xlink="http://www.w3.org/1999/xlink" x="0px" y="0px"
	 width="1397.419px" height="589.632px" viewBox="0 0 1397.419 589.632" enable-background="new 0 0 1397.419 589.632"
	 xml:space="preserve">
<g>
	<g>
		<path fill-rule="evenodd" clip-rule="evenodd" fill="#2B7DAE" d="M0.14,253.312c3.673,3.666,2.679,8.569,3.409,13.479
			c0.967-1.521,1.59-2.792,2.478-3.84c1.91-2.257,4.5-3.452,7.053-1.661c2.546,1.785,1.242,4.383,0.053,6.539
			c-3.314,6.01-4.702,12.645-6.448,19.174c-0.707,2.646-0.32,4.848,2.229,6.235c12.604,6.864,21.988,18.259,34.971,24.632
			c13.389,6.571,26.012,14.313,42.379,11.399c10.862-1.935,22.11,2.028,33.291,1.27c1.463-0.1,3.006,0.355,3.804,1.732
			c2.714,4.695,5.514,1.628,7.617-0.246c6.271-5.585,11.062-6.479,18.39-1.405c6.424,4.445,14.549,5.447,20.424,10.838
			c1.207,1.108,2.965,1.818,4.479,0.008c5.992-7.162,7.997-0.027,10.284,3.318c1.349,1.975,1.966,4.262,4.501,5.208
			c2.483,0.93,4.253,0.973,4.486-2.38c0.126-1.816-0.375-4.641,2.176-4.678c2.605-0.037,4.49,2.666,4.79,4.846
			c0.987,7.179,2.905,8.984,8.281,2.704c1.761-2.06,5.267-2.21,7.592-1.394c7.232,2.546,14.937,3.406,21.733,7.713
			c7.029,4.455,15.74,4.072,23.775,5.011c3.325,0.388,6.187,0.624,9.438,1.993c8.332,3.509,17.508,3.75,26.408,4.068
			c6.115,0.217,4.822-4.737,2.795-7.719c-2.55-3.749-6.227-6.725-9.403-10.05c-1.501-1.569-4.444-3.419-4.224-4.715
			c2.205-13.021-7.813-24.866-3.335-38.12c1.276-3.777,2.626-6.119,6.838-5.787c4.753,0.373,5.148,3.813,4.893,7.368
			c-0.309,4.315-1.237,8.614,1.271,14.681c3.25-7.077,4.785-13.068,4.881-19.462c0.089-6.061-0.076-12.124-0.019-18.187
			c0.049-5.215,1.592-7.953,7.954-6.859c11.396,1.963,13.441,4.279,9.999,15.457c-2.817,9.148,1.167,18.101-0.214,27.22
			c3.541-6.726,9.937-11.512,9.535-20.374c-0.295-6.516,6.22-7.178,11.438-7.182c5.738-0.001,6.088,4.598,6.516,8.744
			c0.455,4.413-1.798,8.211-4.3,11.278c-2.389,2.93-3.274,6.413-5.155,9.327c-4.54,7.035-4.865,14.432-5.722,22.473
			c-0.987,9.29-5.805,18.26-12.056,25.915c-1.987,2.434-4.843,1.431-8.318,2.951c13.005,1.837,24.761,0.583,36.302-1.313
			c33.188-5.449,65.676-1.951,97.794,6.723c23.559,6.359,47.421,9.542,71.825,8.604c2.885-0.111,5.889-0.038,8.67,0.637
			c15.137,3.672,29.618-0.532,44.508-2.397c22.451-2.813,28.099-18.608,32.164-36.349c2.777-12.119,12.276-20.521,24.383-20.195
			c5.133,0.141,8.516,3.857,11.369,7.119c13.784,15.758,31.135,19.294,50.775,16.02c1.892-0.316,4.41-0.193,4.68-2.516
			c0.268-2.28-2.389-1.946-3.816-2.49c-13.96-5.311-22.833-16.72-32.558-27.09c-1.191-1.271-1.697-3.186-0.147-4.588
			c1.585-1.435,3.097-0.58,4.421,0.762c1.278,1.297,1.716,3.636,5.099,3.5c-1.955-5.402-4.131-10.897,0.918-15.662
			c0.268-0.251-0.814-2.084-1.425-3.088c-4.44-7.319-7.46-14.748-2.458-23.096c1.557-2.598,0.225-5.228-0.445-7.739
			c-1.244-4.668-0.43-7.221,5.162-6.062c5.015,1.039,6.019-2.055,5.363-5.974c-0.434-2.585-1.33-5.192-2.521-7.534
			c-4.357-8.566,0.68-17.597-1.519-26.301c-1.043-4.133,4.28-3.862,5.784-6.551c-7.888-0.205-13.262-10.62-9.303-17.746
			c0.453-0.814,1.148-1.935,1.895-2.08c10.002-1.952,9.33-10.18,10.404-17.406c0.326-2.198-0.688-5.654,2.818-5.571
			c3.146,0.073,3.045,3.324,3.03,5.706c-0.035,5.805,0.624,11.662-0.835,17.389c-1.79,7.021,1.764,13.281,2.836,22.063
			c1.256-8.295,3.21-14.338,1.641-20.81c-0.828-3.424,0.133-6.946,4.044-7.105c3.835-0.155,3.781,3.651,4.032,6.545
			c0.979,11.317-1.544,22.059-5.783,32.406c-1.589,3.879-1.601,7.447-0.347,11.284c5,15.285,7.908,30.92,7.514,47.064
			c-0.137,5.534,4.948,7.209,8.251,12.32c-0.521-6.112-1.162-10.553-1.229-15.003c-0.145-9.671,4.076-12.308,13.367-8.646
			c0.611,0.24,1.282,0.33,1.944,0.494c0.879-6.451,0.262-9.444-3.098-15.159c-3.081,0.394-4.303,8.262-8.159,3.188
			c-2.521-3.313-4.963-8.824,1.681-12.297c4.73-2.473,5.115-6.853,1.444-10.213c-6.604-6.045-5.679-11.925-2.626-19.494
			c2.276-5.638,1.645-12.452-3.692-17.299c-1.938-1.758-3.845-3.765-1.784-6.11c2.305-2.622,5.133-0.993,6.991,0.925
			c2.159,2.227,3.809,4.967,5.561,7.564c4.41,6.541,12.026,5.783,15.921-1.508c2.496-4.67,2.66-9.711,2.938-14.785
			c0.174-3.167,0.16-7.035,4.577-6.842c5.055,0.221,3.404,4.437,3.138,7.278c-0.393,4.198,1.293,7.47,3.67,10.714
			c2.294-1.106,1.271-2.91,0.938-4.389c-2.029-9.011,0.148-17.837,1.227-26.684c0.314-2.59,1.577-5.449,4.862-5.553
			c4.063-0.129,3.387,3.23,3.677,5.77c0.457,4.001,1.679,7.688,5.314,9.877c2.773,1.669,3.382,4.606,5.482,8.36
			c0.99-7.29,5.869-5.144,9.785-5.438c2.449-0.184,4.388,0.639,5.124,3.082c0.806,2.674,1.039,6.034-1.697,7.186
			c-8.157,3.435-9.047,11.483-11.92,18.067c-2.372,5.441-3.316,11.506-4.903,17.335c1.721,0.418,2.259-1.365,3.422-2.01
			c1.893-1.046,3.719-1.307,5.309,0.354c1.358,1.419,1.172,3.172,0.245,4.721c-1.484,2.48-2.935,5.027-4.766,7.243
			c-2.262,2.733-4.942,4.576-3.555,9.288c0.972,3.306-1.54,7.119-6.031,4.274c-3.854-2.439-4.282,0.581-4.905,2.541
			c-0.985,3.108,1.279,2.054,2.927,1.876c4.61-0.498,2.918,2.846,2.607,4.856c-0.463,3.013-2.556,5.903-0.233,9.044
			c1.882,0.702,2.352-1.035,3.264-2.004c1.403-1.494,2.539-4.702,4.879-3.096c2.624,1.802,1.273,5.018-0.229,7.169
			c-4.269,6.115-8.751,12.067-10.38,20.055c1.939-0.703,3.621-1.487,5.39-1.913c2.495-0.599,5.091-0.559,5.988,2.432
			c0.853,2.844-1.813,3.252-3.488,4.594c-6.883,5.518-13.498,11.369-20.007,17.688c7.173-3.027,14.29-1.891,21.413-0.808
			c1.877,0.287,4.332,0.031,4.344,2.724c0.01,3.032-2.633,2.95-4.787,3.196c-0.479,0.057-1.016,0.146-1.446-0.004
			c-11.663-4.113-19.896,4.04-28.757,8.699c-5.945,3.125-5.679,10.828-7.433,16.768c-0.425,1.438,1.438,2.459,2.856,2.832
			c18.192,4.795,35.088,14.153,54.262,15.464c17.819,1.217,33.59-4.095,48.889-13.253c13.278-7.949,25.982-17.102,41.486-21.317
			c12.694-3.452,24.27-1.326,35.197,4.101c15.725,7.809,32.486,11.386,49.504,13.629c10.146,1.336,20.599-0.414,30.938,0.736
			c24.003,2.672,47.871,0.32,71.61-3.1c8.708-1.256,16.524-5.457,22.988-11.547c5.839-5.501,12.385-10.085,18.512-15.189
			c12.753-10.623,21.593-24.037,25.577-40.268c2.621-10.687,8.783-18.122,18.873-22.178c3.241-1.305,4.834-2.271,2.846-6.094
			c-4.689-9.025,2.276-16.521,4.035-24.664c0.533-2.471,4.163-4.766,6.987-4.527c6.761,0.574,12.713-1.778,17.837-5.226
			c4.624-3.11,9.317-5.378,14.517-7.155c4.46-1.525,8.481-2.451,11.796,1.788c1.973,2.522,4.616,3.628,7.558,3.763
			c6.795,0.313,9.386,5.074,11.409,10.415c0.631,1.663-0.648,4.377,1.954,4.872c2.512,0.477,5.306-0.924,6.341-2.871
			c5.631-10.572,17.473-13.943,24.971-22.136c4.09-4.468,9.347-8.774,5.33-16.966c-3.742-7.629,3.711-22.115,11.608-24.804
			c3.508-1.194,5.274-2.757,2.942-6.206c-11.146-16.491-9.072-35.718-10.867-54.018c-1.13-11.531-0.254-23.264-0.201-34.905
			c0.038-8.417,4.426-13.745,12.935-15.929c5.308-1.362,12.593,2.628,15.896,8.951c1.668,3.193,3.525,6.37,3.334,10.241
			c-0.232,4.75,2.885,6.55,6.896,6.584c4.611,0.04,4.273-3.807,4.39-6.903c0.169-4.36,0.143-8.729,0.165-13.094
			c0.018-3.457-0.025-6.91,3.825-8.676c2.605-1.193,2.185-3.484,1.969-5.658c-0.586-5.893,0.704-11.65,1.89-17.285
			c1.45-6.893,3.39-13.76,12.826-14.156c3.234-0.136,6.822-2.587,7.838-5.888c2.197-7.146,7.368-9.672,13.957-10.705
			c1.457,0,2.91,0,4.366,0c5.842,5.845,9.961,12.2,8.862,21.18c-0.699,5.719-4.104,9.675-6.902,14.134
			c-2.143,3.413-3.049,7.27,0.797,9.577c2.752,1.652,6.138,6.186,8.66,4.036c4.161-3.547,8.252-7.785,8.869-14.31
			c1.1-11.627,7.777-15.816,19.009-12.787c0,20.374,0,40.749,0,61.124c-2.624,1.668-3.653,4.109-4.427,7.121
			c-2.033,7.932-4.305,15.828-7.018,23.551c-2.59,7.378-2.02,8.87,5.638,9.889c1.909,0.254,3.869,0.137,5.807,0.189
			c0,153.297-0.032,306.592,0.14,459.887c0.005,4.982-0.979,5.96-5.961,5.959c-461.828-0.148-923.655-0.148-1385.482-0.002
			C0.98,589.633-0.01,588.658,0,583.673C0.183,473.553,0.14,363.433,0.14,253.312z"/>
		<path fill-rule="evenodd" clip-rule="evenodd" fill="#2B7DAE" d="M1397.267,21.912c-11.231-3.029-17.909,1.16-19.009,12.787
			c-0.617,6.524-4.708,10.763-8.869,14.31c-2.522,2.149-5.908-2.384-8.66-4.036c-3.846-2.308-2.939-6.164-0.797-9.577
			c2.799-4.459,6.203-8.415,6.902-14.134c1.099-8.979-3.021-15.335-8.862-21.18c11.745,0,23.493,0.115,35.235-0.077
			c3.112-0.051,4.455,0.22,4.177,3.938C1396.942,9.902,1397.267,15.919,1397.267,21.912z"/>
		<path fill-rule="evenodd" clip-rule="evenodd" fill="#2B7DAE" d="M1397.267,123.786c-1.938-0.053-3.897,0.064-5.807-0.189
			c-7.657-1.019-8.228-2.511-5.638-9.889c2.713-7.723,4.984-15.619,7.018-23.551c0.773-3.012,1.803-5.453,4.427-7.121
			C1397.267,96.62,1397.267,110.202,1397.267,123.786z"/>
	</g>
</g>
</svg>
