<?xml version="1.0" encoding="utf-8"?>
<!-- Generator: Adobe Illustrator 16.0.0, SVG Export Plug-In . SVG Version: 6.00 Build 0)  -->
<!DOCTYPE svg PUBLIC "-//W3C//DTD SVG 1.1//EN" "http://www.w3.org/Graphics/SVG/1.1/DTD/svg11.dtd">
<svg version="1.1" id="圖層_1" xmlns="http://www.w3.org/2000/svg" xmlns:xlink="http://www.w3.org/1999/xlink" x="0px" y="0px"
	 width="998.504px" height="345.053px" viewBox="0 0 998.504 345.053" enable-background="new 0 0 998.504 345.053"
	 xml:space="preserve">
<g>
	<g>
		<path fill-rule="evenodd" clip-rule="evenodd" fill="#113F5A" d="M0,344.916c3.811-2.84,8.477-1.4,12.663-2.536
			c29.692-8.051,59.536-15.63,85.738-32.821c7.677-5.036,16.008-7.357,25.438-6.983c21.816,0.864,42.412-7.362,63.844-9.389
			c23.485-2.218,43.502-14.245,64.926-22.2c9.213-3.42,18.201-6.03,28.035-6.543c5.773-0.302,12.775,0.781,15.176-7.723
			c0.975-3.45,5.49-2.134,8.464-2.8c1.635-0.364,3.802-0.813,2.723-3.147c-0.751-1.627-2.426-0.972-3.771-0.156
			c-3.846,2.336-7.777,6.066-10.689-1.229c-0.622-1.563-2.641-0.668-3.979-0.277c-5.219,1.522-8.978-0.594-10.11-5.471
			c-1.163-5.005,3.4-6.952,6.921-8.97c2.505-1.436,6.382,0.263,8.546-3.63c-3.93-1.289-6.949,1.264-10.232,1.055
			c-2.059-0.131-3.902-0.397-4.84-2.472c-0.977-2.16-0.191-4.135,1.784-4.858c3.374-1.233,2.517-7.392,7.863-6.334
			c1.12,0.222,0.278-1.502-0.103-2.237c-4.423-8.544,1.597-6.626,6.413-6.025c-0.259-6.427-1.044-12.679,1.587-18.851
			c0.824-1.934,1.03-3.447,3.261-3.869c1.797-0.341,2.8-1.875,1.827-3.166c-3.809-5.053,3.301-6.523,3.271-10.486
			c-0.013-1.717,2.44-1.016,3.42,0.105c1.258,1.441,2.207,3.159,3.243,4.788c0.994,1.563,1.399,3.93,4.032,3.342
			c2.188-0.487,2.997-2.2,3.269-4.305c0.234-1.831-0.387-4.554,2.025-4.901c2.712-0.388,2.249,3.929,2.863,3.964
			c4.896,0.28,6.416,3.37,7.194,7.732c2.382-3.094,1.391-5.503-0.031-8.548c-1.309-2.805-2.493-5.747,3.888-6.237
			c4.624-0.354,9.694,0.425,14.504-1.51c4.862-1.957,9.575,3.381,9.463,9.667c-0.051,2.858-2.125,7.802,1.898,7.776
			c3.235-0.021,1.727-5.255,1.605-8.183c-0.099-2.375-1.228-4.688-1.554-7.076c-0.802-5.846,2.25-9.097,7.869-8.476
			c2.867,0.317,6.648-1.309,7.039-2.512c1.387-4.266,4.869-3.575,7.635-5.012c5.456-2.836,8.268-2.042,9.867,4.002
			c0.604,2.28,3.131,2.782,5.419,2.959c1.427,0.112,2.951,0.141,3.774,1.68c2.707,5.047,3.967,5.033,8.021-0.125
			c0.446-0.568,0.733-1.256,1.143-1.857c0.996-1.464,2.16-2.877,4.137-1.852c2.294,1.191,1.854,3.197,0.952,5.033
			c-1.807,3.673-3.204,7.588-6.779,10.162c-1.592,1.146-4.032,1.996-3.438,4.983c3.607,0.757,5.016-2.27,7.118-3.997
			c1.433-1.178,2.706-3.637,4.765-2.24c2.412,1.637,0.475,3.938-0.229,5.884c-1.258,3.484-5.847,5.32-5.048,10.007
			c3.346,0.82,4.281-1.828,5.387-3.74c2.521-4.364,6.835-5.042,10.694-3.983c3.256,0.894,6.348,2.06,9.785,2.047
			c2.055-0.007,3.91,0.51,4.347,2.947c0.345,1.929-0.428,3.369-2.228,4.079c-6.099,2.405-3.262,8.125-3.921,12.147
			c-0.518,3.166,3.431,2.072,5.7,1.606c7.839-1.611,6.895-1.249,7.67,6.508c0.229,2.29,0.554,11.384,8.713,10.787
			c2.182-0.159,5.353,0.702,5.414,3.714c0.063,3.035-3.76,1.191-5.267,3.242c3.499,4.493,7.11,9.006,10.587,13.618
			c6.792,9.015,15.968,11.384,26.518,9.285c5.882-1.171,11.586-1.336,17.145,0.965c12.543,5.194,23.642-1.463,35.191-4.197
			c9.791-2.318,10.536-3.993,6.07-13.576c-2.314-4.962-3.172-9.773-2.817-15.377c0.307-4.855,0.059-10.117-1.999-14.973
			c-2.26-5.339-1.964-10.885-0.438-16.412c0.818-2.968,1.811-5.79,5.704-5.166c4.13,0.663,5.514,3.367,5.175,7.366
			c-0.278,3.285-2.269,6.519-0.07,10.693c2.937-3.749,5.25-7.134,3.337-11.712c-2.971-7.111-1.461-13.579,1.702-20.266
			c2.572-5.437,6.366-7.244,11.681-5.456c5.432,1.828,6.853,6.555,4.86,11.245c-4.134,9.734-0.307,20.054-3.137,29.878
			c4.296-6.223,8.738-12.327,10.273-19.675c0.859-4.119,2.287-6.835,6.582-7.329c3.463-0.399,7.27-0.434,9.015,3.084
			c2.016,4.063,2.269,8.7-1.169,12.227c-3.104,3.188-5.159,6.912-7.524,10.563c-3.317,5.119-4.151,10.193-3.935,16.281
			c0.268,7.573-3.146,14.549-7.292,20.976c-1.979,3.065-4.893,4.314-9.99,4.416c5.02,3.272,9.348,3.343,13.097,3.545
			c19.065,1.03,38.078,2.041,57.281,1.364c16.594-0.584,33.388,0.272,50.091,0.385c15.013,0.103,30.038,0.663,45.021-1.232
			c4.923-0.623,8.246-1.027,6.547-7.654c-1.506-5.866,1.617-9.801,7.46-12.321c10.056-4.337,20.761-4.618,31.269-6.146
			c9.418-1.37,9.906-2.037,6.008-10.779c-1.281-2.875-2.75-5.622-6.145-8.399c-0.871,4.772-2.162,8.86-5.38,11.856
			c-2.27,2.115-4.925,3.56-7.855,1.733c-2.798-1.743-2.09-4.614-1.308-7.231c3.277-10.981,3.328-10.736-8.427-8.875
			c-14.173,2.243-25.24,11.778-38.632,15.93c-5.801,1.798-11.57,3.438-17.502,4.617c-3.066,0.608-6.135,0.708-7.229-2.874
			c-1.201-3.938,1.416-5.977,4.784-6.739c11.778-2.662,21.744-9.364,32.498-14.299c1.319-0.605,2.667-1.209,3.854-2.03
			c9.785-6.754,9.807-7.021,2.078-15.914c-0.159-0.182-0.358-0.351-0.455-0.564c-4.908-10.779-9.906-21.516-14.627-32.377
			c-1.032-2.374-1.596-5.544,1.158-7.282c2.652-1.674,4.82,0.858,6.248,2.392c7.563,8.119,17.344,13.75,24.48,22.355
			c4.514,5.444,10.374,8.92,19.498,10.384c-6.992-9.074-14.605-14.647-21.494-20.879c-2.564-2.321-5.1-4.339-6.371-7.64
			c-0.818-2.126-1.385-4.227,0.174-6.192c1.734-2.185,3.454-0.624,5.135,0.216c1.141,0.571,2.421,0.891,3.422,0.067
			c1.552-1.279,0.225-2.578-0.27-3.875c-1.205-3.163-2.475-6.311-3.463-9.542c-0.688-2.249-0.279-4.562,2.09-5.594
			c2.334-1.019,3.402,1.113,4.622,2.567c2.845,3.397,3.622,8.423,7.982,10.753c2.517-2.121-1.219-6.062,2.397-7.104
			c4.335-1.249,3.646,4.439,6.676,5.491c1.088-3.679-0.527-6.918-1.608-9.962c-1.989-5.617-2.062-10.933,0.729-16.129
			c1.324-2.467,0.91-4.543-0.128-6.884c-0.974-2.202-2.107-4.524-2.265-6.854c-0.313-4.616-0.188-10.894,4.415-11.913
			c4.401-0.974,5.62,6.217,9.266,8.817c0.412,0.294,0.165,1.848-0.112,2.707c-0.735,2.261-4.971,3.54-3.729,5.609
			c6.611,11.016-1.74,24.828,6.935,35.268c0.428,0.514,0.998,0.911,1.899,1.717c4.269-7.97,7.657-16.258,14.577-22.143
			c0.489-0.417,0.538-1.318,0.873-1.952c1.155-2.17-1.296-6.425,2.473-6.638c3.844-0.217,1.022,5.164,4.091,6.898
			c1.727-3.085,1.533-6.321,0.479-9.114c-3.402-9.015,2.785-14.555,7.137-20.713c1.401-1.984,3.08-0.973,3.741,1.01
			c1.122,3.365,2.185,6.77,1.823,10.291c7.184-6.221,6.852-15.6,10.781-23.091c0.938-1.788,0.881-4.943,3.749-4.526
			c2.266,0.33,2.686,3.09,3.748,4.972c5.299,9.367-2.081,16.818-3.326,25.193c-1.241,8.364-7.702,16.25-3.041,25.286
			c0.651,1.264,1.362,2.693,2.448,3.503c5.369,3.989,5.416,3.923,4.174,9.653c0.389,0.093,1.048,0.366,1.13,0.247
			c1.483-2.172,2.55-4.845,5.59-5.189c0.483-0.054,1.488,1.247,1.638,2.037c0.615,3.268-0.901,6.075-3.612,7.316
			c-5.513,2.521-9.148,7.863-15.257,9.498c-2.537,0.68-4.681,2.711-4.832,5.774c-0.078,1.583,0.988,2.792,2.322,3.446
			c3.005,1.474,4.21-1.426,6.072-2.711c2.759-1.906,4.589-7.607,8.506-4.689c3.627,2.7,0.022,7.124-1.14,10.571
			c-6.167,18.321-17.483,33.589-29.129,48.662c-1.921,2.487-3.937,5.562-2.349,8.665c1.742,3.408,5.118,1.558,7.839,1.025
			c6.373-1.249,12.473,1.167,18.778,1.294c7.804,0.161,12.922-2.175,15.359-10.064c2.141-6.93,5.243-13.554,7.663-20.405
			c2.306-6.527,6.383-9.685,13.6-9.541c10.553,0.212,16.938-4.193,20.196-14.214c4.712-14.477,11.696-28.168,14.756-43.221
			c0.598-2.945,1.03-5.491-0.329-8.397c-5.304-11.333-4.146-17.961,4.601-26.892c1.48-1.511,1.938-2.717,0.572-4.314
			c-4.219-4.93-4.768-11.625-8.211-16.923c-1.396-2.148-1.935-4.687-1.25-6.995c3.52-11.877-5.449-19.21-10.317-27.829
			c-2.27-4.02-5.111-7.364-2.21-11.743c2.082-3.147,5.424-4.988,9.443-3.987c3.965,0.987,5.4,4.187,5.005,7.809
			c-0.391,3.571,0.892,6.095,3.262,8.401c4.749,4.618,4.155,11.657,7.774,17.574c0.607-1.352,1.412-2.249,1.275-2.971
			c-2.098-11.295,1.704-23.126-2.995-34.15c-1.786-4.188-0.491-8.082,0.507-12.066c4.365,0,8.732,0,13.098,0
			c3.154,4.668,4.578,10.141,2.85,15.222c-4.049,11.901,3.901,21.581,4.033,32.838c3.813-1.653,4.445-4.081,4.468-6.928
			c0.036-4.358-0.167-8.652-1.194-12.941c-0.743-3.097,0.17-6.205,3.679-6.775c3.646-0.593,5.157,2.318,5.397,5.41
			c0.373,4.802,0.795,9.678-0.633,14.402c-2.244,7.42-2.133,15.122-2.949,22.717c-0.315,2.939,0.32,5.688,3.563,3.782
			c3.626-2.132,8.295-3.467,10.24-7.71c2.078-4.535,6.201-6.412,10.254-7.303c7.498-1.651,15.066-3.49,22.873-3.23
			c0,96.536-0.05,193.074,0.141,289.611c0.01,4.983-0.979,5.961-5.963,5.959C661.695,344.902,330.847,344.916,0,344.916z"/>
	</g>
</g>
</svg>
