<?xml version="1.0" encoding="utf-8"?>
<!-- Generator: Adobe Illustrator 16.0.0, SVG Export Plug-In . SVG Version: 6.00 Build 0)  -->
<!DOCTYPE svg PUBLIC "-//W3C//DTD SVG 1.1//EN" "http://www.w3.org/Graphics/SVG/1.1/DTD/svg11.dtd">
<svg version="1.1" id="圖層_1" xmlns="http://www.w3.org/2000/svg" xmlns:xlink="http://www.w3.org/1999/xlink" x="0px" y="0px"
	 width="601.196px" height="445.121px" viewBox="0 0 601.196 445.121" enable-background="new 0 0 601.196 445.121"
	 xml:space="preserve">
<polygon fill="#FFFFFF" points="281.138,139.987 180.471,198.654 152.471,260.654 139.805,315.988 151.805,363.988 195.138,399.321 
	289.805,419.988 360.471,411.988 419.805,379.321 450.471,349.988 461.805,299.321 439.805,238.654 390.471,173.321 
	349.138,157.987 "/>
<path fill-rule="evenodd" clip-rule="evenodd" d="M468.085,217.659c9.733,23.473,17.948,47.351,18.696,73.152
	c0.513,17.825,7.56,32.563,21.905,43.36c11.822,8.896,23.899,17.457,35.943,26.055c15.855,11.318,29.523,24.841,41.295,40.329
	c8.237,10.839,12.924,23.136,15.037,36.479c0.436,2.764,0.525,5.881-2.108,7.54c-2.705,1.701-4.556-0.982-6.506-2.377
	c-13.259-9.477-26.198-19.441-39.805-28.389c-23.793-15.644-48.948-28.564-76.989-34.974c-9.637-2.202-18.858-2.865-25.904,6.216
	c-1.485,1.913-3.85,3.195-5.926,4.596c-34.653,23.371-73.494,35.183-114.429,40.793c-29.605,4.058-58.976,0.197-88.425-3.179
	c-37.049-4.249-68.842-19.295-93.223-46.934c-10.524-11.928-20.349-13.321-33.473-9.185c-3.104,0.979-6.234,1.938-9.232,3.196
	c-30.096,12.649-56.847,30.701-82.083,51.14c-5.642,4.569-10.835,9.692-16.284,14.503c-1.422,1.258-2.785,3.46-5.068,2.034
	c-2.021-1.262-1.578-3.569-1.112-5.504c0.821-3.405,1.681-6.826,2.853-10.121c11.41-32.119,33.564-56.703,56.784-80.472
	c14.233-14.569,30.644-26.664,46.296-39.604c5.645-4.665,8.804-9.741,7.979-17.378c-0.674-6.222,0.188-12.493,1.541-18.675
	c5.256-24.005,14.17-46.468,27.828-66.977c7.923-11.9,15.762-23.858,23.726-35.733c2.414-3.604,4.331-7.338,4.69-11.721
	c0.952-11.7,7.479-19.943,17.646-24.371c13.82-6.022,22.715-16.847,31.569-28.172c18.058-23.104,38.979-42.581,67.981-51.145
	c4.141-1.224,5.441-3.498,5.574-7.574c0.418-12.826,3.336-25.314,5.689-37.867c0.537-2.879,0.774-6.604,4.712-6.701
	c3.646-0.088,4.648,3.305,5.669,6.153c3.424,9.543,5.069,19.637,5.1,29.528c0.035,10.459,4.574,14.21,13.885,17.197
	c25.454,8.167,42.822,27.221,59.153,47.146c10.482,12.791,20.086,26.259,35.116,34.545c7.151,3.941,11.166,11.034,12.184,19.044
	c1.319,10.391,6.913,18.664,11.747,27.421c2.52,4.568,5.64,4.265,9.31,1.976c5.713-3.564,8.045-9.451,10.099-15.4
	c3.707-10.732,4.729-22.023,6.538-33.145c4.084-25.122,9.618-49.762,23.426-71.702c6.934-11.016,15.985-19.248,29.104-22.14
	c1.955-0.431,4.135-1.313,5.573,0.61c1.347,1.799-0.489,3.243-1.381,4.646c-2.994,4.705-4.855,9.839-6.397,15.182
	c-9.283,32.187-9.212,64.902-5.088,97.712c2.339,18.598,3.544,37.697,11.7,54.92c13.257,27.984,29.096,54.383,51.93,75.904
	c1.442,1.358,3.252,2.682,2.172,5.049c-0.875,1.926-2.804,1.84-4.558,1.938c-7.857,0.436-14.747-2.355-21.253-6.407
	c-13.532-8.431-23.146-20.635-31.989-33.507c-7.975-11.615-16.606-22.645-26.746-32.465c-7.844-7.595-17.263-11.809-27.835-13.514
	C466.317,209.931,465.94,212.487,468.085,217.659z M189.912,286.186c1.393,1.606,3.165,3.818,5.685,2.718
	c2.527-1.105,2.064-3.878,1.876-6.024c-0.854-9.669-1.899-19.318-2.894-29.146c4.247-0.303,5.127,3.212,7.057,5.167
	c5.275,5.352,10.252,10.996,15.547,16.325c2.05,2.061,4.479,4.811,7.773,3.25c2.997-1.421,2.331-4.858,2.098-7.476
	c-0.994-11.217-2.221-22.418-3.428-33.618c-0.265-2.455-0.859-4.887,0.816-8.01c3.529,2.396,4.402,6.161,6.318,9.122
	c5.033,7.772,9.406,16.021,15.894,22.761c1.651,1.717,3.411,4.323,6.277,3.05c2.589-1.147,2.671-4.031,2.861-6.539
	c1.015-13.236,2.012-26.476,2.98-39.714c0.251-3.47,0.38-6.945,2.856-11.43c2.496,6.63,4.779,12.064,6.596,17.654
	c3.348,10.297,8.436,19.826,12.727,29.707c1.113,2.561,2.754,5.176,5.894,5.146c3.396-0.036,4.198-3.179,5.135-5.732
	c4.606-12.549,5.847-25.884,8.999-38.771c0.98-4.004,0.998-8.4,3.801-11.91c2.703,1.671,2.739,4.044,2.907,6.241
	c1.145,14.845,5.892,28.946,8.938,43.396c0.687,3.258,1.048,7.833,5.347,8.061c3.661,0.193,4.731-3.984,6.297-6.748
	c8.504-15.008,15.276-30.875,23.145-48.303c2.426,5.631,2.811,9.895,2.751,14.195c-0.177,12.803,0.792,25.548,1.854,38.288
	c0.25,2.996,0.161,6.457,3.296,7.9c3.687,1.696,6.067-1.376,8.348-3.578c7.17-6.913,11.962-15.375,15.629-24.553
	c0.807-2.021,1.376-5.39,3.72-5.037c3.294,0.49,2.016,4.082,2.074,6.351c0.272,10.519,0.232,21.039,0.507,31.558
	c0.077,2.907-0.137,6.625,3.215,7.804c2.867,1.011,4.918-1.805,7.127-3.394c4.605-3.311,6.608-9.237,12.239-12.569
	c1.542,7.029-1.08,12.911-1.771,18.96c-0.33,2.884-2.053,6.577,0.781,8.445c2.852,1.878,5.554-1.169,8.025-2.683
	c2.716-1.667,5.217-3.688,8.38-5.964c1.651,5.262-2.199,8.346-3.123,12.147c-0.617,2.541-3.561,5.598-0.956,7.533
	c2.773,2.06,4.584-1.793,6.693-3.293c0.973-0.693,1.904-1.444,2.798-2.123c2.512,1.68,0.921,3.287,0.523,4.811
	c-0.551,2.123-2.152,4.132-1.167,6.42c0.468,1.084,1.759,0.805,2.628,0.21c2.437-1.664,5.682-2.879,5.726-6.388
	c0.028-2.165-0.69-4.453-1.536-6.494c-23.462-56.525-64.756-93.96-122.914-111.941c-19.055-5.89-38.646-0.881-56.33,7.543
	c-45.552,21.693-78.876,56.006-100.987,101.278c-1.328,2.722-2.75,5.614-0.634,8.509c1.743,2.38,3.608,6.15,6.55,5.482
	c3.59-0.816,1.242-4.583,1.213-7.097c-0.021-1.695-0.922-3.774,1.006-4.752c2.032-1.03,3.01,1.122,4.306,2.182
	c2.019,1.655,3.618,5.29,6.604,3.684c2.713-1.465,1.033-5.027,1.254-7.677c0.51-6.116-2.947-12.051-1.037-19.385
	C182.511,277.092,186.077,281.754,189.912,286.186z M424.455,341.216c-0.339-1.983-0.247-4.234-2.562-5.004
	c-2.724-0.903-4.384,1.052-5.39,3.035c-2.784,5.483-5.27,11.116-8.441,17.909c-1.849-5.052-2.97-9.039-4.74-12.714
	c-2.323-4.819-5.42-5.01-8.131-0.246c-3.86,6.776-6.555,14.081-9.223,21.388c-0.652,1.787-0.758,4.568-3.089,4.646
	c-2.774,0.091-2.24-2.911-2.707-4.649c-2.091-7.785-4.573-15.403-8.981-22.224c-1.729-2.67-3.184-6.157-7.072-6.015
	c-3.881,0.144-5.14,3.613-6.567,6.507c-4.79,9.7-7.955,20.03-11.513,30.206c-0.828,2.365-1.63,4.752-2.665,7.025
	c-0.488,1.069-1.413,2.576-2.305,2.696c-1.807,0.25-2.218-1.562-2.651-3.016c-2.784-9.353-4.491-19.07-9.346-27.717
	c-2.632-4.69-4.038-12.054-10.175-11.685c-5.307,0.319-5.568,7.652-7.382,12.112c-3.399,8.351-6.035,17.012-9.175,25.474
	c-0.893,2.399-0.735,6.451-3.982,6.396c-2.972-0.053-2.173-4.014-2.975-6.202c-3.707-10.117-7.137-20.336-10.717-30.501
	c-0.822-2.334-1.405-5.319-4.263-5.692c-3.26-0.429-4.803,2.614-6.019,4.902c-4.579,8.632-8.836,17.437-13.193,26.185
	c-1.008,2.021-1.86,4.119-2.924,6.104c-0.77,1.438-1.144,3.729-3.475,3.138c-1.645-0.419-1.706-2.3-2.025-3.747
	c-2.115-9.544-4.188-19.095-6.334-28.631c-0.548-2.443-1.205-4.872-1.995-7.249c-1.843-5.545-4.663-5.331-7.782-1.049
	c-5.684,7.801-8.413,17.043-12.373,25.685c-0.99,2.16-0.877,5.055-4.127,6.351c-3.133-6.294-2.182-13.239-3.41-19.762
	c-0.739-3.928-1.082-7.992-2.348-11.744c-1.587-4.714-4.256-5.108-7.396-0.874c-4.636,6.248-7.281,13.492-10.354,22.706
	c-3.455-7.431-2.999-13.571-4.747-19.108c-1.213-3.851-0.391-10.01-5.297-10.519c-4.379-0.456-4.879,5.554-6.922,8.839
	c-1.305,2.094-1.463,4.849-4.074,6.716c-2.668-2.098-1.563-5.431-2.454-8.018c-0.595-1.733-1.079-3.897-3.37-2.867
	c-4.408,1.984-6.059,6.441-8.277,10.34c-1.98,3.478,0.287,5.522,2.335,7.835c10.382,11.723,23.487,19.303,37.585,25.681
	c67.623,30.599,134.441,26.185,200.717-4.248c11.574-5.314,21.021-13.473,29.744-22.656c4.282-4.509,5.031-9.569,4.344-15.255
	c-0.154-1.285-0.491-2.608-1.839-2.988c-1.499-0.416-2.16,0.947-2.895,1.93c-1.853,2.479-2.217,6.037-5.245,7.829
	C423.72,346.266,424.854,343.552,424.455,341.216z"/>
</svg>
