<svg id="logo" data-name="logo" xmlns="http://www.w3.org/2000/svg" viewBox="0 0 402.02 403.7"><defs><style>.cls-1{fill:#1eb327;}</style></defs><path class="cls-1" d="M120.08,165.57c0,11,0,22,0,33,0,3.1.45,5.93,2.72,8.28s2.17,5.6,2.39,8.44c.92,11.75,1.86,23.53,2,35.3.1,9.59,2.32,18.7,4,28,2.13,11.72,3.38,23.6,4.8,35.44.31,2.57,1.44,4.78,2.25,7.08,3.29,9.27,3.17,18.94,3.84,28.51.18,2.62.58,4.84,2.62,6.69,3.14,2.85,3.22,6.76,3.22,10.59a4.44,4.44,0,0,1-3.44,4.44c-4.6.59-9.71,2.4-13.48-2.16-2.46-3-6-2.57-9.13-3.24s-6.08-1.48-8.28-4.07c-.73-.86-1.78-2-2.75-2-7.42-.55-13.67-4.87-19.05-8.66-6-4.23-13.54-6.08-18.38-11.88a7.32,7.32,0,0,0-3.64-2.41c-.93-.3-2.19-.28-2.76-.9-6.1-6.65-14.64-10.14-21-16.28a28.78,28.78,0,0,1-6.15-9.21C37.11,304,32,299.4,28.27,293.91c-3.91-5.71-5.81-11.58-7.47-18-1-3.7-5.73-5.37-6.54-9.74-.25-1.35-.93-2.75-.92-4.22,0-5,0-9.82-3.17-14.26-2-2.87-1.77-6.83-1.81-10.16-.16-15-1.31-30,.81-44.86.42-2.91.7-5.9,2.95-8.27,1.8-1.89,1.31-4.48,1.07-6.71-.71-6.76,2.11-12.4,5.71-17.58a11.27,11.27,0,0,0,2.33-7.33,17.44,17.44,0,0,1,5.21-13.46c3.58-3.71,2.49-8.47,3.4-12.72.75-3.51,1.36-6.81,4.3-9.2.64-.51,1.52-1.2,1.58-1.87.7-7.22,6-12.36,9-18.45s5.55-13.39,11.61-17.9c.52-.39,1.22-.93,1.28-1.47.81-6.87,6-11.73,8.87-17.53A72.82,72.82,0,0,1,78.35,42.35c3.52-3.71,7.47-7.51,10.43-12.32,4-6.55,7.49-15.35,17.31-16.56,6.17-.77,12-.44,16.53,4.55a8.32,8.32,0,0,0,2.76,2.08c7,2.9,11.24,9.52,17.34,13.14,5.79,3.44,10.52,7.8,15.59,11.91,9.68,7.84,19,16,27.89,24.8,3.54,3.48,6.59,7.87,11.27,10.59,3,1.75,5.12,5.44,7.46,8.26,4.42,5.33,10,9.61,14.09,14.94,5.95,7.71,14.42,13.68,17.36,23.61a3.91,3.91,0,0,0,1.13,1.62c6.42,5.9,10.26,13.35,13,21.49a14,14,0,0,0,2.42,3.72c.81,1,2.34,1.85,2.6,3,2.19,9.5,9.28,17.25,9.63,27.38a18.57,18.57,0,0,0,3,8.87c3.17,5.34,2.75,7.32-1.48,11.78-3.6,3.79-7.16,7.45-12.82,7.86-2.19.15-3.21,2.23-4.85,3.25-6.67,4.18-13.34,8.38-20.31,12-2.51,1.31-4.5,2.22-6.28,4.84-2.51,3.69-6.56,6.27-9.6,9.74-5.7,6.51-12,12.59-12.92,21.85-.18,1.73-.33,3.71-1.94,4.34-6.54,2.53-5.93,8.67-6.73,13.71s-1.57,9.59-3.92,14.19-2,10-2.26,15.16c-.2,4.05-.88,8.91-5,9-3.75.09-5-4.63-4.87-8.57a8,8,0,0,0-2.63-6.75c-3-2.53-4.25-5.71-4.8-9.51-.75-5.17-.83-10.75-5.81-14.25a.65.65,0,0,1-.27-.41c-.53-11.83-10.22-21.33-8.57-33.72.31-2.38.06-5.27-1.55-6.64-5.87-4.95-5.05-11.91-6.25-18.28a22.39,22.39,0,0,0-3.75-9.5c-3.06-4.24-2.92-9.75-3.22-14.83-.35-5.65-.2-11.32-.16-17,0-2.18-.3-4.13-2.71-4.69-3.94-.91-4.57-4.05-4.92-7.22a43.4,43.4,0,0,1-.11-8c.32-4.24-.56-7.73-4.09-10.59-3-2.41-2.47-6.35-2.82-9.72-.38-3.63-.13-7.32-.18-11,0-1.36-.15-3.13-1.75-3.1-1.84,0-1.4,1.94-1.4,3.18Q120.06,148.08,120.08,165.57Zm-3.87-.71c0-7.83.21-15.66-.06-23.48-.29-8.7.14-17.2,3.85-25.25.48-1,.49-2.49,2-2.55s1.48,1.39,2,2.42c4.77,10.08,5.07,21.34,8.64,31.84,3,8.81,1.73,19,7.84,27.11a7.06,7.06,0,0,1,.61,2.39c1.61,6.38.6,12.92,1.1,19.37.13,1.81-.11,3.67,1.37,5.14,3.39,3.38,3.81,7.84,4.71,12.26.81,4-.5,8.56,2.54,11.92,2.11,2.34,2.91,5.07,3.86,7.93,2.51,7.61,3,15.67,6.33,23.22,3.14,7.07,3.48,15,8,22.08,3.75,5.88,2.2,14.49,7.78,20.34,1.47,1.55.52,6,3.27,5.74,2.17-.22,1.3-4.27,2-6.55a10.68,10.68,0,0,0,.11-2.48c.48-7.93.52-15.31,5.2-23,5.6-9.22,9.15-19.74,15.72-28.7,2.39-3.26,5.56-5,8.24-7.5,5.51-5.23,9.39-12.48,17.8-14a3,3,0,0,0,1.34-.62c7.19-6.34,14.78-11.69,24.58-13.59,6-1.17,9.23-7.68,8.26-13.59-1.18-7.16-2.85-13.8-6.58-20.46-3.2-5.7-4.2-12.57-8.13-18.57-2.83-4.31-4.08-10-6.69-15-3.7-7.1-8.79-13-13.6-19.05-5.54-7-10.84-14.25-16.7-21.08-5.3-6.16-11.8-11-17-17.26a89.41,89.41,0,0,0-13.81-13.45c-3.14-2.39-5.49-6.21-8.36-7.8-5.52-3.08-8.79-9.15-15.23-10.7a5.06,5.06,0,0,1-2.55-2.27c-4.63-7.24-12.39-11.08-18.71-16.31-4.52-3.73-8.72-9.15-15.5-9.89-.79-.09-1.54-1.22-2.18-2-5-5.84-10.07-6.23-15.33-.67-5,5.31-9.2,11.36-13.74,17.06s-10.29,10.59-13,17.76A4.72,4.72,0,0,1,74.44,58c-4.42,2.46-6,6.17-5.76,11.1.09,1.61-1.21,3-2.52,4.16-4.77,4.08-7.08,10-10.63,14.92-2.13,3-2.3,7.44-7.08,8.17-1.22.18-1.28,1.5-1.23,2.45C47.79,108.5,40.49,115,37,123c-1.74,3.94-3.53,7.53-4.07,11.86-.45,3.7.14,8.14-3.2,10.66s-3.45,5.53-3.91,9.1c-.56,4.43.54,9.75-4,12.8-2.92,2-3.62,4.44-3.64,7.63a91.83,91.83,0,0,1-3.74,26c-2.93,9.76-2.84,19.5-1.38,29.07,1.68,10.94,5.45,21.55,5.34,32.81a6.39,6.39,0,0,0,2.6,5.2,13,13,0,0,1,4.69,8.5c.33,1.94.62,4.28,1.85,5.59,4.94,5.27,5.58,12.93,11.83,17.89,7.81,6.2,12,16.21,20.53,22.23,2.52,1.78,5.51,3.1,7.58,5.44,5.31,6,11.86,10,18.82,14,5.3,3,10,6.75,16.28,7.61a1.83,1.83,0,0,1,1.17.89c1.91,3.87,5.66,4.1,9.22,4.89,1.59.35,3.67.76,4.49,1.89,4.22,5.86,11,4.67,16.68,6.47,2.58.82,3.85-1.15,4-3.21.42-7,1-14.17-1.48-20.74a99,99,0,0,1-6.4-34.25c0-2.14.3-4.26-.43-6.42a103.74,103.74,0,0,1-5.47-31.08c-.46-19.1-1.38-38.1-6-56.76a76.31,76.31,0,0,1-2.11-21.23C116.44,181.52,116.21,173.19,116.21,164.86Z" transform="translate(-7.91 -13.15)"/><path class="cls-1" d="M409.88,250.47c-.51,8.23.88,18.74-1,29.16-.61,3.46-1.26,6.68-3.82,9.47-2,2.22-2.08,5.42-2.18,8.42-.23,7,1.42,14.2-1.13,20.81-2.87,7.44-5.18,15.09-8,22.43-2.05,5.37-3.79,11.61-6.92,16.09-5.93,8.51-8.93,18.86-17.7,25.84-6.2,4.94-11.71,11.11-17.45,16.8-1.2,1.19-2.89,1.63-4.13,2.5-5.88,4.13-12.9,6-18.85,9.35a39.91,39.91,0,0,1-19.06,5.29c-12.81.39-25.64.18-38.46,0-4.8-.05-9.61-.48-14.39-1-4.5-.49-8-2.93-9.25-7.27s-1.23-8.63,2.61-12a11.49,11.49,0,0,0,4.07-7.21,7.27,7.27,0,0,1,3.5-5.26c2.23-1.31,2.39-4,3.64-5.34,6.08-6.58,7.22-15.58,12.05-22.85,3.2-4.81,8.66-7.74,10.42-13.54.38-1.26,1.77-1.92,3.22-2a2.66,2.66,0,0,0,2.51-1.37c3.21-8,11.6-11.53,15.92-18.58.86-1.39,2.74-1.78,4.38-2.18.88-.22,1.62-.85,1.52-1.71a1.75,1.75,0,0,0-1.83-1.38c-3.42-.1-7.2-1-8.63,3.64-.19.62-.54,1.53-1,1.65-4.8,1.33-7.07,6.5-11.37,8a43.73,43.73,0,0,0-14.84,8.6c-6,5.47-12.44,10.56-17.52,17.28-3.07,4.05-6.82,8.43-11.87,11.32a68,68,0,0,0-14.83,12.13,59.52,59.52,0,0,1-9,7.83c-4,2.79-8.29.54-9.48-4.72-.66-2.91-1.56-5.88-1.48-8.81.12-4.59-3.94-7.1-4.71-11.3-1.49-8.13-1-16.27-.91-24.39.06-10.11-1-20.26,1-30.36,1.44-7.56,4.53-14.63,7.53-21.46,2-4.59,5.85-9,8.89-13.36,3.56-5.13,8.57-8.93,11.64-14.32,2-3.52,5.92-4.74,8.86-7,5.63-4.38,10.62-9.73,18.22-11.63,5.23-1.3,9.86-5,14.8-7.51a67.25,67.25,0,0,1,18.94-6.3c10-1.84,19.46-6.31,29.83-6.84a23.57,23.57,0,0,1,2.45-.4c7.54.35,14.71-.57,21.59-4.23,6.08-3.23,13.1-1.63,19.65-2.15,10.9-.87,21.94-1.46,32.82.4,6.6,1.13,9.54,5,9.65,11.76C410,231.27,409.88,239.76,409.88,250.47Zm-5-6.64c0-6.08,0-10.41,0-14.74-.05-8.71-3.51-11.65-12.33-12.14-22.34-1.24-44.34,3.69-66.63,3.31-2.72,0-6.07.52-8.08,2.12-5.41,4.34-11.72,3.82-17.87,4.81-4.5.72-9.74-.64-13.37,2.85-3,2.87-6.47,3.79-10.16,4.81-6.65,1.83-11.11,8.76-18.85,8.16-.12,0-.29.18-.38.31-4.41,6.88-13.16,7.63-18.64,13.14-1.56,1.58-3.45,2.85-3.55,5.05-.12,2.64-1.71,4.08-3.15,5.92-2.47,3.14-7.87,3.85-8.81,6.76-2.34,7.2-8.31,12.73-9.34,20.07-1,6.83-2.33,13.31-5.34,19.49a9.45,9.45,0,0,0-.44,3.94c0,7-.55,14.05.2,21,.6,5.55-.36,11.39,1.9,16.63,2.18,5,4.36,9.93,3.93,15.59a19.17,19.17,0,0,0,1,7.86c.4,1.16.92,2.77,2.15,1.84,2.38-1.79,6-1.88,7.46-4.66,2.86-5.27,8.37-7.71,12.26-11.94,7.21-7.84,16.49-13.52,24-21.24a144,144,0,0,1,17-14.77c7.33-5.51,15.73-9.41,23.1-15,6.85-5.19,14.51-9.31,21.77-14,2.39-1.54,3.95-.5,5.65,1.16,2.08,2,.53,3.23-.81,4.48-2,1.83-3.79,3.63-4.44,6.44a5,5,0,0,1-3.71,3.71,8.18,8.18,0,0,0-4.46,3c-5,6.75-11.13,12.43-16.77,18.58-3.06,3.33-6.3,6.72-9.14,10-4,4.65-8.41,9.43-11.09,15.64A68.16,68.16,0,0,1,269.42,377c-4.85,6.21-9.9,12.24-12.33,19.94a8.34,8.34,0,0,1-1.32,2.63c-4.21,5.39-4.24,5.4,2.11,8.25,1.19.54,2.52.77,3.76,1.22,16,5.75,32.47,3.76,48.86,2.93a4.77,4.77,0,0,0,3.51-1.67c2.27-2.59,5.3-3.11,8.52-3.42,4.12-.39,8.89-.51,11.78-3.22,5.14-4.83,12.37-5.52,17.53-10.71,3.86-3.88,8.46-7.46,12.63-11.28,3.53-3.23,5.82-7.59,8.79-11.19,4.59-5.57,4.89-13.62,11.18-17.94.21-.15.28-.61.29-.93.21-6.37,2.74-11.83,6.32-17,1.46-2.08,1.79-4.55,1.88-7.12.15-4.19.9-8.47,3.25-11.89,2.84-4.11,3.29-8.6,3.62-13.23.3-4.14,0-8.28.5-12.45C402.06,274,406,258.29,404.91,243.83Z" transform="translate(-7.91 -13.15)"/><path class="cls-1" d="M116.21,164.86c0,8.33.23,16.66-.07,25a76.31,76.31,0,0,0,2.11,21.23c4.64,18.66,5.56,37.66,6,56.76a103.74,103.74,0,0,0,5.47,31.08c.73,2.16.41,4.28.43,6.42a99,99,0,0,0,6.4,34.25c2.46,6.57,1.9,13.77,1.48,20.74-.12,2.06-1.39,4-4,3.21-5.67-1.8-12.46-.61-16.68-6.47-.82-1.13-2.9-1.54-4.49-1.89-3.56-.79-7.31-1-9.22-4.89a1.83,1.83,0,0,0-1.17-.89c-6.25-.86-11-4.61-16.28-7.61-7-3.93-13.51-8-18.82-14-2.07-2.34-5.06-3.66-7.58-5.44-8.54-6-12.72-16-20.53-22.23-6.25-5-6.89-12.62-11.83-17.89-1.23-1.31-1.52-3.65-1.85-5.59a13,13,0,0,0-4.69-8.5,6.39,6.39,0,0,1-2.6-5.2c.11-11.26-3.66-21.87-5.34-32.81-1.46-9.57-1.55-19.31,1.38-29.07a91.83,91.83,0,0,0,3.74-26c0-3.19.72-5.67,3.64-7.63,4.55-3,3.45-8.37,4-12.8.46-3.57.62-6.61,3.91-9.1s2.75-7,3.2-10.66C33.42,130.56,35.21,127,37,123c3.54-8,10.84-14.53,10.27-24.25,0-1,0-2.27,1.23-2.45,4.78-.73,4.95-5.19,7.08-8.17,3.55-5,5.86-10.84,10.63-14.92,1.31-1.13,2.61-2.55,2.52-4.16C68.42,64.15,70,60.44,74.44,58a4.72,4.72,0,0,0,1.67-2.41c2.68-7.17,8.38-12,13-17.76s8.71-11.75,13.74-17.06c5.26-5.56,10.36-5.17,15.33.67.64.76,1.39,1.89,2.18,2,6.78.74,11,6.16,15.5,9.89,6.32,5.23,14.08,9.07,18.71,16.31a5.06,5.06,0,0,0,2.55,2.27c6.44,1.55,9.71,7.62,15.23,10.7,2.87,1.59,5.22,5.41,8.36,7.8a89.41,89.41,0,0,1,13.81,13.45c5.25,6.23,11.75,11.1,17,17.26,5.86,6.83,11.16,14,16.7,21.08,4.81,6.1,9.9,12,13.6,19.05,2.61,5,3.86,10.71,6.69,15,3.93,6,4.93,12.87,8.13,18.57,3.73,6.66,5.4,13.3,6.58,20.46,1,5.91-2.25,12.42-8.26,13.59-9.8,1.9-17.39,7.25-24.58,13.59a3,3,0,0,1-1.34.62c-8.41,1.54-12.29,8.79-17.8,14-2.68,2.54-5.85,4.24-8.24,7.5-6.57,9-10.12,19.48-15.72,28.7-4.68,7.72-4.72,15.1-5.2,23a10.68,10.68,0,0,1-.11,2.48c-.72,2.28.15,6.33-2,6.55-2.75.29-1.8-4.19-3.27-5.74-5.58-5.85-4-14.46-7.78-20.34-4.52-7.07-4.86-15-8-22.08-3.36-7.55-3.82-15.61-6.33-23.22-1-2.86-1.75-5.59-3.86-7.93-3-3.36-1.73-7.93-2.54-11.92-.9-4.42-1.32-8.88-4.71-12.26-1.48-1.47-1.24-3.33-1.37-5.14-.5-6.45.51-13-1.1-19.37a7.06,7.06,0,0,0-.61-2.39c-6.11-8.1-4.84-18.3-7.84-27.11-3.57-10.5-3.87-21.76-8.64-31.84-.49-1-.44-2.48-2-2.42s-1.47,1.52-2,2.55c-3.71,8.05-4.14,16.55-3.85,25.25C116.42,149.2,116.21,157,116.21,164.86Z" transform="translate(-7.91 -13.15)"/><path class="cls-1" d="M404.91,243.83C406,258.29,402.06,274,400.3,290c-.46,4.17-.2,8.31-.5,12.45-.33,4.63-.78,9.12-3.62,13.23-2.35,3.42-3.1,7.7-3.25,11.89-.09,2.57-.42,5-1.88,7.12-3.58,5.13-6.11,10.59-6.32,17,0,.32-.08.78-.29.93-6.29,4.32-6.59,12.37-11.18,17.94-3,3.6-5.26,8-8.79,11.19-4.17,3.82-8.77,7.4-12.63,11.28-5.16,5.19-12.39,5.88-17.53,10.71-2.89,2.71-7.66,2.83-11.78,3.22-3.22.31-6.25.83-8.52,3.42A4.77,4.77,0,0,1,310.5,412c-16.39.83-32.86,2.82-48.86-2.93-1.24-.45-2.57-.68-3.76-1.22-6.35-2.85-6.32-2.86-2.11-8.25a8.34,8.34,0,0,0,1.32-2.63c2.43-7.7,7.48-13.73,12.33-19.94A68.16,68.16,0,0,0,277.93,362c2.68-6.21,7.08-11,11.09-15.64,2.84-3.29,6.08-6.68,9.14-10,5.64-6.15,11.79-11.83,16.77-18.58a8.18,8.18,0,0,1,4.46-3,5,5,0,0,0,3.71-3.71c.65-2.81,2.48-4.61,4.44-6.44,1.34-1.25,2.89-2.46.81-4.48-1.7-1.66-3.26-2.7-5.65-1.16-7.26,4.67-14.92,8.79-21.77,14-7.37,5.59-15.77,9.49-23.1,15a144,144,0,0,0-17,14.77c-7.49,7.72-16.77,13.4-24,21.24-3.89,4.23-9.4,6.67-12.26,11.94-1.5,2.78-5.08,2.87-7.46,4.66-1.23.93-1.75-.68-2.15-1.84a19.17,19.17,0,0,1-1-7.86c.43-5.66-1.75-10.56-3.93-15.59-2.26-5.24-1.3-11.08-1.9-16.63-.75-6.91-.22-14-.2-21a9.45,9.45,0,0,1,.44-3.94c3-6.18,4.38-12.66,5.34-19.49,1-7.34,7-12.87,9.34-20.07.94-2.91,6.34-3.62,8.81-6.76,1.44-1.84,3-3.28,3.15-5.92.1-2.2,2-3.47,3.55-5.05,5.48-5.51,14.23-6.26,18.64-13.14.09-.13.26-.32.38-.31,7.74.6,12.2-6.33,18.85-8.16,3.69-1,7.18-1.94,10.16-4.81,3.63-3.49,8.87-2.13,13.37-2.85,6.15-1,12.46-.47,17.87-4.81,2-1.6,5.36-2.16,8.08-2.12,22.29.38,44.29-4.55,66.63-3.31,8.82.49,12.28,3.43,12.33,12.14C404.94,233.42,404.91,237.75,404.91,243.83Z" transform="translate(-7.91 -13.15)"/></svg>