<svg id="圖層_1" data-name="圖層 1" xmlns="http://www.w3.org/2000/svg" viewBox="0 0 31.33 30.87"><defs><style>.cls-1{fill:#fff;}</style></defs><path d="M32.86,19.49A13.05,13.05,0,0,1,30.63,27,.69.69,0,0,0,30.76,28c1.71,1.69,3.39,3.41,5.06,5.15a1.94,1.94,0,0,1-2.46,3,11,11,0,0,1-1.42-1.22c-1.34-1.31-2.68-2.62-4-3.95-.35-.36-.61-.36-1-.07A13.91,13.91,0,1,1,30,11,13.75,13.75,0,0,1,32.86,19.49Zm-3.25,0A10.64,10.64,0,1,0,19,30.12,10.71,10.71,0,0,0,29.61,19.5Z" transform="translate(-5.04 -5.57)"/><path class="cls-1" d="M29.61,19.5A10.64,10.64,0,1,1,19,8.81,10.71,10.71,0,0,1,29.61,19.5Z" transform="translate(-5.04 -5.57)"/></svg>