<svg id="圖層_1" data-name="圖層 1" xmlns="http://www.w3.org/2000/svg" viewBox="0 0 35.85 32.33" fill="currentColor"><defs></defs><path  d="M23.21,5c-2,.77-3.65,1.51-5.91.21C13.32,2.9,9.15,3.63,5.79,6.5A10.1,10.1,0,0,0,2.46,17.24c2.22,8.94,8.82,14,16.08,18.56a3.46,3.46,0,0,0,2.36.27c6.9-1.5,17-14.35,17-21.62C38,7,30.58,2.14,23.21,5Zm-2.7,28a3,3,0,0,1-1.4-.19C12.85,30.85,4.9,20.37,5,14.27A7.51,7.51,0,0,1,16.69,8c2.48,1.63,4,2.53,6.52,0,2.11-2.07,5.23-1.81,7.87-.32A7.24,7.24,0,0,1,35,14.2C35.11,20.3,26.3,31.81,20.51,33Z" transform="translate(-2.08 -3.84)"/><path class="cls-2" d="M23.21,5c-2,.77-3.65,1.51-5.91.21C13.32,2.9,9.15,3.63,5.79,6.5A10.1,10.1,0,0,0,2.46,17.24c2.22,8.94,8.82,14,16.08,18.56a3.46,3.46,0,0,0,2.36.27c6.9-1.5,17-14.35,17-21.62C38,7,30.58,2.14,23.21,5Zm-2.7,28a3,3,0,0,1-1.4-.19C12.85,30.85,4.9,20.37,5,14.27A7.51,7.51,0,0,1,16.69,8c2.48,1.63,4,2.53,6.52,0,2.11-2.07,5.23-1.81,7.87-.32A7.24,7.24,0,0,1,35,14.2C35.11,20.3,26.3,31.81,20.51,33Z" transform="translate(-2.08 -3.84)"/></svg>
