<svg id="圖層_1" data-name="圖層 1" xmlns="http://www.w3.org/2000/svg" viewBox="0 0 27.76 27.64" fill="currentColor"><defs><style></style></defs><path  d="M19.58,6.18C15.67,6.28,12,10,12,13.72a8.17,8.17,0,0,0,8.37,8A8,8,0,0,0,27.71,14,8.11,8.11,0,0,0,19.58,6.18Zm.5,13.43a5.72,5.72,0,0,1-5.61-5.55A5.32,5.32,0,0,1,20,8.58c3.17.22,5.23,1.87,5.39,5.24A5.64,5.64,0,0,1,20.08,19.61Z" transform="translate(-6.12 -6.18)"/><path class="" d="M19.6,26.23c-5.08-.45-9.11,1.28-11.23,6.44-.24.58-.55,1.47-1.48,1s-.9-1.24-.44-2.09c.27-.49.36-1.07.65-1.54,2.65-4.25,6.44-6.19,11.51-6.31,5.78-.14,10.93.72,14.08,6.18.59,1,2.15,2.67.34,3.61-1.61.84-1.74-1.3-2.22-2.22C28.42,26.75,24.36,26,19.6,26.23Z" transform="translate(-6.12 -6.18)"/></svg>
