<?xml version="1.0" encoding="utf-8"?>
<!-- Generator: Adobe Illustrator 16.0.0, SVG Export Plug-In . SVG Version: 6.00 Build 0)  -->
<!DOCTYPE svg PUBLIC "-//W3C//DTD SVG 1.1//EN" "http://www.w3.org/Graphics/SVG/1.1/DTD/svg11.dtd">
<svg version="1.1" id="圖層_1" xmlns="http://www.w3.org/2000/svg" xmlns:xlink="http://www.w3.org/1999/xlink" x="0px" y="0px"
	 width="271.099px" height="281.674px" viewBox="0 0 271.099 281.674" enable-background="new 0 0 271.099 281.674"
	 xml:space="preserve">
<path fill-rule="evenodd" clip-rule="evenodd" d="M172.819,138.989c0,38.979,0.029,77.957-0.066,116.935
	c-0.007,2.562-0.389,5.445-1.605,7.613c-2.646,4.711-7.818,4.898-12.793,0.773c-17.687-14.668-35.334-29.383-52.989-44.088
	c-12.41-10.336-24.76-20.744-37.273-30.953c-1.502-1.227-3.854-1.945-5.825-1.975c-11.991-0.178-23.986-0.061-35.979-0.101
	c-6.678-0.022-9.493-2.728-9.504-9.314c-0.045-25.819-0.046-51.638,0.001-77.457c0.012-6.529,2.856-9.193,9.598-9.213
	c11.66-0.035,23.326,0.174,34.977-0.148c2.692-0.075,5.843-1.265,7.925-2.982c29.666-24.478,59.197-49.121,88.721-73.77
	c3-2.505,6.029-4.221,9.951-2.332c4.033,1.943,4.885,5.481,4.881,9.576C172.805,60.699,172.819,99.844,172.819,138.989z
	 M32.944,171.199c11.394,0,22.363-0.252,33.307,0.156c3.214,0.121,6.976,1.359,9.436,3.372
	c20.887,17.087,41.524,34.478,62.25,51.761c5.936,4.949,11.916,9.844,18.359,15.162c0-68.654,0-136.416,0-204.8
	c-1.364,1.068-2.152,1.652-2.905,2.279c-22.667,18.856-45.815,37.176-67.776,56.822c-9.875,8.834-19.9,12.787-32.802,11.379
	c-6.517-0.711-13.175-0.124-19.869-0.124C32.944,128.771,32.944,149.586,32.944,171.199z"/>
<path fill-rule="evenodd" clip-rule="evenodd" d="M252.962,146.188c-0.215,14.033-7.486,32.066-21.799,47.275
	c-2.981,3.17-6.477,4.072-10.365,2.176c-3.426-1.67-4.639-4.827-3.813-8.386c0.422-1.817,1.652-3.599,2.917-5.048
	c23.026-26.404,23.225-59.095,0.449-85.449c-4.038-4.672-4.216-8.851-0.524-12.291c3.766-3.509,8.189-2.889,12.561,1.762
	C245.494,100.175,252.983,119.503,252.962,146.188z"/>
<path fill-rule="evenodd" clip-rule="evenodd" d="M214.321,142.102c-0.428,12.625-5.263,24.715-14.625,34.921
	c-4.381,4.776-8.746,5.308-12.582,1.78c-3.434-3.16-3.234-7.948,0.518-12.393c14.52-17.199,14.559-37.27,0.107-54.301
	c-3.793-4.47-4.071-9.218-0.728-12.407c3.742-3.569,8.217-3.007,12.626,1.586C209.304,111.359,215.098,126.919,214.321,142.102z"/>
</svg>
