<svg id="圖層_1" data-name="圖層 1" xmlns="http://www.w3.org/2000/svg" viewBox="0 0 24.91 24.91" fill="currentColor"><path d="M20.62,1.78c-2.11,0-4.22,0-6.34,0s-4.26,0-6.39,0A5.88,5.88,0,0,0,1.82,7.86q0,6.37,0,12.74a5.89,5.89,0,0,0,6.06,6.08c4.25,0,8.49,0,12.74,0a5.88,5.88,0,0,0,6.09-6.11c0-4.22,0-8.46,0-12.68A5.87,5.87,0,0,0,20.62,1.78Zm4.64,18.83a4.43,4.43,0,0,1-4.59,4.61q-6.42,0-12.84,0a4.44,4.44,0,0,1-4.56-4.58V7.85A4.45,4.45,0,0,1,7.86,3.23H20.7a4.44,4.44,0,0,1,4.56,4.59Z" transform="translate(-1.81 -1.78)"/><path d="M14.27,6.2a8,8,0,1,0,8,8A8,8,0,0,0,14.27,6.2Zm0,14.4a6.38,6.38,0,1,1,6.35-6.37A6.35,6.35,0,0,1,14.28,20.6Z" transform="translate(-1.81 -1.78)"/><path d="M23.42,6.35a1.28,1.28,0,1,1-2.56.06,1.28,1.28,0,0,1,2.56-.06Z" transform="translate(-1.81 -1.78)"/></svg>
