<svg id="圖層_1" data-name="圖層 1" xmlns="http://www.w3.org/2000/svg" viewBox="0 0 31.82 31.97"><defs><style></style></defs><path class="" d="M27.9,22.49c-2.2.83-4,1.14-6-.33a17.19,17.19,0,0,1-4.45-4.71c-.54-.83-1.34-1.82-.77-2.87,2.53-4.71-1.34-6.95-3.73-9.71-1.05-1.23-2.43-.94-3.71-.35-4.75,2.17-6.4,6.29-4,10.94a44.94,44.94,0,0,0,20,19.68,5.69,5.69,0,0,0,3.15.83c3.45,0,7.73-4.12,7.57-7.17C35.79,26.66,29.91,21.73,27.9,22.49Zm.49,11a7.85,7.85,0,0,1-4.07-1.41,45.72,45.72,0,0,1-17-17.63c-1-1.8-1.54-3.77.09-5.47,1.14-1.19,2.18-3.11,4.35-2.1,2,.94,3.67,4.73,2.86,6.38a4.43,4.43,0,0,0,.24,4.39,16.12,16.12,0,0,0,5.43,6.26c2.38,1.49,4.74,3,7.68.91.91-.64,5.4,3.15,5.45,4.34C33.45,30.9,30.4,33.55,28.39,33.52Z" transform="translate(-4.09 -4.01)"/></svg>
