<svg id="圖層_1" data-name="圖層 1" xmlns="http://www.w3.org/2000/svg" viewBox="0 0 37.72 38"><defs><style></style></defs><path d="M38.2,37a24.66,24.66,0,0,0-2.84-2.76c-1.83-1.44-2.17-2.65-.66-4.82,4.19-6,4.23-12.38.55-18.67A17.64,17.64,0,0,0,20.06,1.61,18.69,18.69,0,0,0,2.6,12.83,17.39,17.39,0,0,0,6.2,32.12,17.77,17.77,0,0,0,27.13,35.8c3.45-1.78,5.37-1.23,7.48,1.42A11.21,11.21,0,0,0,36.39,39c.64.53,1.45,1,2.14.25S38.78,37.61,38.2,37ZM19.57,34.81C10.72,34.81,4,28.27,4,19.62A15.18,15.18,0,0,1,19.65,4.48a15.17,15.17,0,1,1-.08,30.33Z" transform="translate(-1.14 -1.61)"/></svg>
